<?xml version="1.0" encoding="UTF-8"?>
<!DOCTYPE svg PUBLIC "-//W3C//DTD SVG 1.1//EN" "http://www.w3.org/Graphics/SVG/1.1/DTD/svg11.dtd">
<!-- Creator: CorelDRAW 2021 (64-Bit) -->
<svg xmlns="http://www.w3.org/2000/svg" xml:space="preserve" width="70mm" height="70mm" version="1.1" shape-rendering="geometricPrecision" text-rendering="geometricPrecision" image-rendering="optimizeQuality" fill-rule="evenodd" clip-rule="evenodd"
viewBox="0 0 271.33 271.33"
 xmlns:xlink="http://www.w3.org/1999/xlink"
 xmlns:xodm="http://www.corel.com/coreldraw/odm/2003">
 <g id="Слой_x0020_1">
  <metadata id="CorelCorpID_0Corel-Layer"/>
  <circle fill="none" cx="135.67" cy="135.67" r="135.67"/>
  <g id="_2246020659024">
   <path fill="white" d="M119.11 203.01c-1.13,-2.06 -11.26,-47.82 -12.86,-51.04 -2.09,-4.19 -6.55,-3 -10.95,-1.36 -7.95,2.97 -14.06,6.61 -19.82,12.35 -1.37,1.36 -2.54,2.58 -3.85,4.04 -5.97,6.64 -11.1,17.46 -12.49,27.54 -1.33,9.63 -1.6,19.02 12.04,19l128.33 -0c13.57,0.02 14.16,-7.87 12.75,-18.42 -2.17,-16.27 -11.83,-30.69 -24.99,-39.03 -3.37,-2.14 -6.84,-3.72 -10.79,-5.29 -12.48,-4.96 -11.69,1.42 -14.68,13.65 -1.06,4.32 -2.15,8.67 -3.17,12.92 -1.03,4.32 -2.12,8.56 -3.18,12.92 -0.58,2.37 -2.42,11.23 -3.23,12.73 -0.71,-1.19 -9.31,-34.73 -10.92,-40.4 -0.65,-2.27 -0.23,-2.29 0.83,-3.96 3.15,-4.95 8.52,-11.63 4.24,-15.27 -2.41,-2.05 -6.62,-1.59 -10.23,-1.59 -3.38,0 -7.82,-0.62 -10.45,1.06 -5.17,3.29 0,9.82 3.33,15.36 2.01,3.36 1.44,2.73 -0.12,8.64 -1.61,6.06 -3.28,12.05 -4.87,18.18 -0.72,2.77 -4.03,16.51 -4.91,17.99z"/>
   <path fill="white" d="M131.79 37.13c-24.83,2.77 -42.22,22.96 -40.07,48.05 1.96,22.96 22.46,42.07 47.96,39.81 23.04,-2.04 42.17,-22.23 39.94,-48 -2.07,-23.9 -24.06,-42.52 -47.83,-39.86z"/>
  </g>
 </g>
</svg>
