<?xml version="1.0" encoding="UTF-8"?>
<!DOCTYPE svg PUBLIC "-//W3C//DTD SVG 1.1//EN" "http://www.w3.org/Graphics/SVG/1.1/DTD/svg11.dtd">
<!-- Creator: CorelDRAW 2021 (64-Bit) -->
<svg xmlns="http://www.w3.org/2000/svg" xml:space="preserve" width="33.5767mm" height="8.9538mm" version="1.1" shape-rendering="geometricPrecision" text-rendering="geometricPrecision" image-rendering="optimizeQuality" fill-rule="evenodd" clip-rule="evenodd"
viewBox="0 0 381.59 101.76"
 xmlns:xlink="http://www.w3.org/1999/xlink"
 xmlns:xodm="http://www.corel.com/coreldraw/odm/2003">
 <g id="Слой_x0020_1">
  <metadata id="CorelCorpID_0Corel-Layer"/>
  <polygon fill="none" points="-0,0 381.59,0 381.59,101.76 -0,101.76 "/>
  <path fill="white" fill-rule="nonzero" d="M5.44 24.54l0 11.62 6.59 0 0 41.06 29.81 0 0 -29.41 -11.62 0 0 17.78 -6.56 0 0 -41.06 -18.22 0zm60.85 0l0 29.48 -6.56 0 0 -17.86 -11.62 0 0 29.43 18.18 0 0 11.62 18.22 0 0 -11.62 -6.59 0 0 -41.06 -11.63 0zm21.71 0l0 52.68 11.62 0 0 -29.47 6.56 0 0 17.81 11.63 0 0 -29.4 -18.18 0 0 -11.62 -11.62 0zm36.48 0l0 52.68 11.62 0 0 -41.06 6.56 0 0 17.63 11.63 0 0 -29.26 -29.81 0zm54.47 0l0 41.06 -6.59 0 0 -41.06 -11.62 0 0 52.68 36.4 0 0 -11.62 -6.59 0 0 -41.06 -11.59 0zm22.04 0l0 52.68 11.62 0 0 -11.7 18.26 0 0 -11.58 -18.26 0 0 -17.78 6.56 0 0 12.09 11.63 0 0 -23.71 -29.81 0zm36.36 0l0 52.68 29.81 0 0 -29.41 -11.63 0 0 17.78 -6.56 0 0 -23.46 18.18 0 0 -11.58 -18.18 0 0 -6.02 -11.62 0zm36.36 0l0 52.68 11.62 0 0 -41.06 6.56 0 0 17.63 11.63 0 0 -29.26 -29.81 0zm36.25 0l0 52.68 29.81 0 0 -29.41 -11.63 0 0 17.78 -6.56 0 0 -23.46 18.18 0 0 -11.58 -18.18 0 0 -6.02 -11.62 0zm36.36 0l0 52.68 29.81 0 0 -11.62 -18.18 0 0 -41.06 -11.62 0z"/>
 </g>
</svg>
