<?xml version="1.0" encoding="UTF-8"?>
<!DOCTYPE svg PUBLIC "-//W3C//DTD SVG 1.1//EN" "http://www.w3.org/Graphics/SVG/1.1/DTD/svg11.dtd">
<!-- Creator: CorelDRAW 2021 (64-Bit) -->
<svg xmlns="http://www.w3.org/2000/svg" xml:space="preserve" width="12mm" height="12mm" version="1.1" shape-rendering="geometricPrecision" text-rendering="geometricPrecision" image-rendering="optimizeQuality" fill-rule="evenodd" clip-rule="evenodd"
viewBox="0 0 51.55 51.55"
 xmlns:xlink="http://www.w3.org/1999/xlink"
 xmlns:xodm="http://www.corel.com/coreldraw/odm/2003">
 <g id="Слой_x0020_1">
  <metadata id="CorelCorpID_0Corel-Layer"/>
  <rect fill="none" width="51.55" height="51.55"/>
  <path fill="white" d="M33.55 51.55l-8.03 0 0.03 -18.42 -4.79 0c-0.62,0 -1.13,-0.5 -1.13,-1.12l-0.02 -5.94c-0,-0.63 0.5,-1.13 1.13,-1.13l4.78 -0 0 -5.74c0,-6.66 4.07,-10.28 10.01,-10.28l4.87 0c0.62,0 1.13,0.51 1.13,1.13l0 5.01c0,0.62 -0.51,1.13 -1.13,1.13l-2.99 0c-3.23,0 -3.86,1.53 -3.86,3.79l0 4.97 7.1 0c0.68,0 1.2,0.59 1.12,1.26l-0.7 5.94c-0.07,0.57 -0.55,1 -1.12,1l-6.36 0 -0.03 18.42z"/>
 </g>
</svg>
