<?xml version="1.0" encoding="UTF-8"?>
<!DOCTYPE svg PUBLIC "-//W3C//DTD SVG 1.1//EN" "http://www.w3.org/Graphics/SVG/1.1/DTD/svg11.dtd">
<!-- Creator: CorelDRAW 2021 (64-Bit) -->
<svg xmlns="http://www.w3.org/2000/svg" xml:space="preserve" width="40mm" height="40.0001mm" version="1.1" shape-rendering="geometricPrecision" text-rendering="geometricPrecision" image-rendering="optimizeQuality" fill-rule="evenodd" clip-rule="evenodd"
viewBox="0 0 675.62 675.62"
 xmlns:xlink="http://www.w3.org/1999/xlink"
 xmlns:xodm="http://www.corel.com/coreldraw/odm/2003">
 <g id="Слой_x0020_1">
  <metadata id="CorelCorpID_0Corel-Layer"/>
  <path fill="#999999" d="M329.81 9.82c-2.72,2.79 -8.35,4.66 -11.74,6.46 -4.04,2.15 -7.14,5 -10.79,6.5 -2.45,1.94 -4.6,3.51 -7.08,5.44 -2.63,2.04 -4.27,3.99 -6.59,6 -4.58,3.97 -8.26,8.37 -12.21,12.92 -2.45,3.89 -5.59,7.37 -8.07,11.53 -1.41,2.36 -5.54,10.28 -7.25,11.73 -0.39,3.21 -3.16,8.57 -4.51,11.96 -1.5,3.76 -2.64,7.89 -3.73,11.92 -2.2,11.04 -4.11,20.02 -4.14,32.17l-0.02 70.7c0.12,8.34 1.04,27.73 0.24,34.96l-84.44 0 0 105.58 84.28 0.06 0.06 337.8 5.62 -0.03 11.72 0 11.84 0 11.72 0 11.84 0 11.72 0 11.84 0 11.72 0 11.84 0 11.72 0 14.61 0.1 -0 -337.5 20.8 -0.36 63.59 0c1.77,-4.49 5.35,-16.52 8.25,-19.34l4.32 -11.91c1.45,-4.43 2.94,-7.65 4.57,-12.07 1.13,-3.07 3.23,-9.4 5.25,-11.37 0.44,-3.69 7.28,-20.34 9.03,-23.69 0.66,-3.15 3,-9.67 5.11,-11.66 0.15,-3.24 3.47,-10.83 5.2,-14.22 -1.67,-2.06 -3.82,-1.44 -8.73,-1.39l-115.99 -0.08c-2.54,-0.85 -1.45,-9.78 -1.45,-15.23 0,-15.36 -0.76,-59.31 0.06,-71.21 1.32,-19.26 15.5,-35.35 32.52,-38.76 2.35,-0.5 3.01,-0.8 5.89,-0.39 2.36,-1.84 42.89,-0.7 45.99,-0.82l0.1 -105.22 -4.85 -0.39 -11.72 0 -11.84 0 -11.72 0 -11.84 0 -11.72 0 -11.84 0 -11.72 0c-8.78,-0.01 -17.53,1.33 -25.78,3.19 -6.97,1.57 -16.57,5.99 -21.67,6.63z"/>
  <rect fill="none" y="0" width="675.62" height="675.62"/>
 </g>
</svg>
