<?xml version="1.0" encoding="UTF-8"?>
<!DOCTYPE svg PUBLIC "-//W3C//DTD SVG 1.1//EN" "http://www.w3.org/Graphics/SVG/1.1/DTD/svg11.dtd">
<!-- Creator: CorelDRAW 2021 (64-Bit) -->
<svg xmlns="http://www.w3.org/2000/svg" xml:space="preserve" width="70mm" height="70mm" version="1.1" shape-rendering="geometricPrecision" text-rendering="geometricPrecision" image-rendering="optimizeQuality" fill-rule="evenodd" clip-rule="evenodd"
viewBox="0 0 296.41 296.41"
 xmlns:xlink="http://www.w3.org/1999/xlink"
 xmlns:xodm="http://www.corel.com/coreldraw/odm/2003">
 <g id="Слой_x0020_1">
  <metadata id="CorelCorpID_0Corel-Layer"/>
  <circle fill="none" cx="148.21" cy="148.21" r="148.21"/>
  <path id="handshake-angle-solid.svg" fill="white" fill-rule="nonzero" d="M224.67 145.8l0 1.13 23.79 -23.79c7.48,-7.48 7.48,-19.56 0,-27.03l-26.66 -26.63c-7.48,-7.48 -19.56,-7.48 -27.03,0l-13.69 13.69c-0.92,-0.1 -1.88,-0.17 -2.83,-0.17l-38.23 0c-12.66,0 -23.08,9.56 -24.44,21.85l-0.14 0 0 40.96c0,7.54 6.11,13.65 13.65,13.65 7.54,0 13.65,-6.11 13.65,-13.65l0 -24.58c0,0 0,-0.03 0,-0.03l0 -5.43 5.46 0 46.42 0c0,0 0,0 0.03,0l2.7 0c15.09,0 27.31,12.22 27.31,27.31l0 2.73 0 0zm-71 -19.12l0 19.12c0,13.59 -10.99,24.58 -24.58,24.58 -13.59,0 -24.58,-10.99 -24.58,-24.58l0 -40.48c-12.25,2.12 -22.46,11.03 -25.94,23.28l-5.63 19.66 -24.99 24.99c-7.48,7.48 -7.48,19.56 0,27.04l26.66 26.66c7.48,7.48 19.56,7.48 27.03,0l12.87 -12.87c0.31,0 0.61,0.03 0.92,0.03l54.62 0c9.05,0 16.38,-7.34 16.38,-16.38 0,-1.91 -0.34,-3.76 -0.92,-5.46l0.92 0c9.05,0 16.38,-7.34 16.38,-16.38 0,-4.37 -1.71,-8.33 -4.51,-11.26 8.77,-1.71 15.39,-9.42 15.43,-18.71l0 -0.14c-0.03,-10.51 -8.57,-19.05 -19.12,-19.05 0,0 0,0 0,0l-40.96 0 0 -0.03z"/>
 </g>
</svg>
