<?xml version="1.0" encoding="UTF-8"?>
<!DOCTYPE svg PUBLIC "-//W3C//DTD SVG 1.1//EN" "http://www.w3.org/Graphics/SVG/1.1/DTD/svg11.dtd">
<!-- Creator: CorelDRAW 2021 (64-Bit) -->
<svg xmlns="http://www.w3.org/2000/svg" xml:space="preserve" width="10mm" height="10mm" version="1.1" shape-rendering="geometricPrecision" text-rendering="geometricPrecision" image-rendering="optimizeQuality" fill-rule="evenodd" clip-rule="evenodd"
viewBox="0 0 124.65 124.65"
 xmlns:xlink="http://www.w3.org/1999/xlink"
 xmlns:xodm="http://www.corel.com/coreldraw/odm/2003">
 <g id="Слой_x0020_1">
  <metadata id="CorelCorpID_0Corel-Layer"/>
  <rect fill="none" x="-0" y="-0" width="124.65" height="124.65"/>
  <path fill="black" fill-rule="nonzero" d="M22.35 98.78c0.04,-0.15 0.33,-1.69 0.64,-3.41 1.1,-6.2 1.98,-8.47 4.18,-10.7 2.2,-2.24 4.44,-3.08 12.39,-4.69 6.14,-1.24 8.73,-2.03 10.47,-3.19 1.09,-0.73 1.7,-1.62 2.29,-3.34l0.37 -1.09 -0.79 -0.92c-0.97,-1.13 -2.07,-2.81 -2.86,-4.41 -0.54,-1.09 -0.7,-1.55 -1,-2.88 -0.08,-0.35 -0.18,-0.43 -0.57,-0.43 -0.57,0 -1.51,-0.46 -1.97,-0.96 -1.03,-1.13 -1.5,-2.93 -1.43,-5.53 0.05,-1.86 0.07,-1.95 0.53,-2.61 0.35,-0.49 0.66,-0.73 1.14,-0.89 0.64,-0.21 0.66,-0.22 0.35,-0.44 -0.3,-0.21 -0.32,-0.39 -0.32,-2.13 -0,-2.71 -0.26,-6.17 -0.56,-7.5 -0.52,-2.3 -1.71,-4.12 -3.06,-4.66 -0.29,-0.11 -0.55,-0.23 -0.58,-0.25 -0.12,-0.09 1.79,-2.3 3.61,-4.2 6.72,-7 12.92,-9.94 18.23,-8.67 1.14,0.27 3.14,1.26 4.23,2.09 0.54,0.41 1.45,1.26 2.01,1.88 0.97,1.08 1.07,1.14 1.83,1.22 2.49,0.26 5.13,1.99 6.83,4.5 3.72,5.47 3.42,13.31 -0.67,17.61 -0.58,0.61 -1.06,1.16 -1.06,1.21 0,0.05 0.46,0.1 1.03,0.1 1.8,0 2.66,0.72 2.83,2.39 0.07,0.71 -0.02,1.14 -0.66,3.01 -0.41,1.2 -0.88,2.45 -1.04,2.77 -0.35,0.71 -0.98,1.06 -1.9,1.06l-0.68 0 -0.19 1.02c-0.33,1.79 -1.16,3.33 -3.05,5.67 -0.57,0.71 -1.04,1.41 -1.04,1.56 0,0.45 1,2.72 1.61,3.67 0.52,0.81 0.7,0.95 2.02,1.59 1.97,0.95 4.3,1.63 9.79,2.83 8.63,1.9 10.05,2.44 12.23,4.67 2.22,2.26 3.06,4.42 4.16,10.65 0.3,1.73 0.59,3.26 0.64,3.41 0.08,0.26 -1.9,0.27 -39.98,0.27 -38.08,0 -40.05,-0.01 -39.98,-0.27zm36.61 -11.42l1.51 -3.48 -0.94 -1.09c-0.99,-1.15 -1.22,-1.76 -1.05,-2.77 0.05,-0.31 0.25,-0.74 0.45,-0.95 0.64,-0.7 1.18,-0.82 3.73,-0.82 2.65,0 3.24,0.16 3.76,1 0.71,1.17 0.5,2.17 -0.73,3.62l-0.86 1.01 1.52 3.53c1.02,2.38 1.56,3.46 1.64,3.31 0.19,-0.35 4.67,-12.48 4.67,-12.66 0,-0.09 -0.35,-0.69 -0.78,-1.34 -0.43,-0.65 -0.97,-1.67 -1.2,-2.25 -0.23,-0.59 -0.48,-1.07 -0.55,-1.07 -0.07,0 -0.47,0.24 -0.88,0.53 -2.57,1.83 -6.03,2.8 -8.76,2.46 -2.14,-0.27 -3.82,-0.91 -5.83,-2.25l-0.41 -0.27 -0.42 1.07c-0.23,0.59 -0.73,1.54 -1.1,2.11l-0.68 1.04 2.42 5.91c1.33,3.25 2.52,6.15 2.65,6.44 0.12,0.29 0.25,0.5 0.28,0.47 0.03,-0.04 0.74,-1.63 1.57,-3.55zm4.75 -13.11c2.56,-0.52 5.38,-2.29 7.39,-4.62 2.2,-2.55 3.12,-4.5 3.12,-6.57 0,-0.87 0.06,-1.14 0.31,-1.39 0.38,-0.38 0.65,-0.39 1.27,-0.07 0.26,0.13 0.66,0.22 0.88,0.2 0.37,-0.04 0.47,-0.22 1.08,-1.93 0.8,-2.22 0.95,-2.96 0.68,-3.28 -0.31,-0.37 -1.24,-0.27 -2.17,0.23 -0.6,0.32 -0.93,0.42 -1.17,0.33 -0.52,-0.19 -0.72,-0.76 -0.56,-1.6 0.58,-3.08 0.48,-6.9 -0.24,-9.19 -0.65,-2.05 -2.2,-4.02 -4,-5.07l-0.72 -0.42 -1.08 0.72c-2.38,1.6 -4.15,2.24 -7.52,2.72 -3.09,0.44 -4.08,0.68 -5.44,1.31 -2.35,1.08 -4.15,2.65 -4.87,4.23 -0.47,1.03 -0.67,2.53 -0.51,3.95 0.2,1.81 0.18,2.05 -0.25,2.33 -0.36,0.24 -0.46,0.23 -1.6,-0.15 -1.43,-0.47 -1.8,-0.5 -2.16,-0.14 -0.23,0.23 -0.25,0.53 -0.2,2.07 0.06,1.53 0.13,1.94 0.47,2.69 0.5,1.08 0.84,1.29 1.9,1.16 1.13,-0.14 1.34,0.05 1.51,1.4 0.22,1.74 0.91,3.34 2.39,5.55 3,4.46 7.1,6.44 11.49,5.54z"/>
 </g>
</svg>
