<?xml version="1.0" encoding="UTF-8"?>
<!DOCTYPE svg PUBLIC "-//W3C//DTD SVG 1.1//EN" "http://www.w3.org/Graphics/SVG/1.1/DTD/svg11.dtd">
<!-- Creator: CorelDRAW 2021 (64-Bit) -->
<svg xmlns="http://www.w3.org/2000/svg" xml:space="preserve" width="70mm" height="70mm" version="1.1" shape-rendering="geometricPrecision" text-rendering="geometricPrecision" image-rendering="optimizeQuality" fill-rule="evenodd" clip-rule="evenodd"
viewBox="0 0 296.41 296.41"
 xmlns:xlink="http://www.w3.org/1999/xlink"
 xmlns:xodm="http://www.corel.com/coreldraw/odm/2003">
 <g id="Слой_x0020_1">
  <metadata id="CorelCorpID_0Corel-Layer"/>
  <circle fill="none" cx="148.21" cy="148.21" r="148.21"/>
  <path id="chess-knight-solid.svg" fill="white" fill-rule="nonzero" d="M101.17 62.62l-5.22 5.22c-4.71,4.71 -7.34,11.07 -7.34,17.74l0 51.97c0,4.2 2.08,8.13 5.57,10.44l4.16 2.75c5.61,3.77 12.84,4.2 18.88,1.18l1.26 -0.63c1.02,-0.51 1.96,-1.1 2.87,-1.77l19.39 -14.52c2.59,-1.96 6.16,-1.96 8.75,0 4,3.02 3.89,9.07 -0.27,11.89l-50.24 34.27c-6.48,4.44 -10.36,11.78 -10.36,19.63l125.6 0 11.34 -62.41c0.82,-4.44 1.22,-8.95 1.22,-13.46l0 -5.77c0,-41.61 -33.76,-75.36 -75.36,-75.36l-55.03 0c-4.28,0 -7.77,3.49 -7.77,7.77 0,2.94 1.65,5.61 4.28,6.95l8.28 4.12zm9.42 26.69c0,-4.33 3.52,-7.85 7.85,-7.85 4.33,0 7.85,3.52 7.85,7.85 0,4.33 -3.52,7.85 -7.85,7.85 -4.33,0 -7.85,-3.52 -7.85,-7.85l0 0zm-38.23 140.28c-1.65,1.65 -2.59,3.93 -2.59,6.28 0,4.91 3.96,8.87 8.87,8.87l145.54 0c4.91,0 8.87,-3.96 8.87,-8.87 0,-2.35 -0.94,-4.63 -2.59,-6.28l-16.25 -16.25 -125.6 0 -16.25 16.25z"/>
 </g>
</svg>
