<?xml version="1.0" encoding="UTF-8"?>
<!DOCTYPE svg PUBLIC "-//W3C//DTD SVG 1.1//EN" "http://www.w3.org/Graphics/SVG/1.1/DTD/svg11.dtd">
<!-- Creator: CorelDRAW 2021 (64-Bit) -->
<svg xmlns="http://www.w3.org/2000/svg" xml:space="preserve" width="1283.35mm" height="641.674mm" version="1.1" shape-rendering="geometricPrecision" text-rendering="geometricPrecision" image-rendering="optimizeQuality" fill-rule="evenodd" clip-rule="evenodd"
viewBox="0 0 99005.55 49502.82"
 xmlns:xlink="http://www.w3.org/1999/xlink"
 xmlns:xodm="http://www.corel.com/coreldraw/odm/2003">
 <defs>
   <mask id="id0">
     <radialGradient id="id1" gradientUnits="userSpaceOnUse" cx="1461.11" cy="2045.53" r="2126.08" fx="1461.11" fy="2045.53">
      <stop offset="0" stop-opacity="1" stop-color="white"/>
      <stop offset="1" stop-opacity="0" stop-color="white"/>
     </radialGradient>
    <rect fill="url(#id1)" x="-7.7" y="-7.71" width="99020.95" height="49518.25"/>
   </mask>
     <mask id="id2">
       <linearGradient id="id3" gradientUnits="userSpaceOnUse" x1="47122.1" y1="12828.9" x2="51960.86" y2="12725.84">
        <stop offset="0" stop-opacity="1" stop-color="white"/>
        <stop offset="1" stop-opacity="0" stop-color="white"/>
       </linearGradient>
      <rect fill="url(#id3)" x="47112.98" y="11637.35" width="4315.3" height="3961.19"/>
     </mask>
     <mask id="id4">
       <linearGradient id="id5" gradientUnits="userSpaceOnUse" x1="43371.74" y1="33163.85" x2="49616.73" y2="33165.72">
        <stop offset="0" stop-opacity="1" stop-color="white"/>
        <stop offset="1" stop-opacity="0" stop-color="white"/>
       </linearGradient>
      <rect fill="url(#id5)" x="44454.2" y="31111.28" width="1530.15" height="2632.21"/>
     </mask>
     <mask id="id6">
       <linearGradient id="id7" gradientUnits="userSpaceOnUse" x1="43117.7" y1="34536.2" x2="49611.83" y2="34485.72">
        <stop offset="0" stop-opacity="1" stop-color="white"/>
        <stop offset="1" stop-opacity="0" stop-color="white"/>
       </linearGradient>
      <rect fill="url(#id7)" x="43260.37" y="34206.9" width="11657.37" height="1384.05"/>
     </mask>
     <mask id="id8">
       <linearGradient id="id9" gradientUnits="userSpaceOnUse" x1="45984.29" y1="28889.86" x2="49693.73" y2="28921.42">
        <stop offset="0" stop-opacity="1" stop-color="white"/>
        <stop offset="1" stop-opacity="0" stop-color="white"/>
       </linearGradient>
      <rect fill="url(#id9)" x="45971.63" y="28277.24" width="7124.19" height="1320.68"/>
     </mask>
     <mask id="id10">
       <linearGradient id="id11" gradientUnits="userSpaceOnUse" x1="45028.52" y1="30064.85" x2="49668.15" y2="29955.7">
        <stop offset="0" stop-opacity="1" stop-color="white"/>
        <stop offset="1" stop-opacity="0" stop-color="white"/>
       </linearGradient>
      <rect fill="url(#id11)" x="45020.8" y="29891.1" width="8987.43" height="347.6"/>
     </mask>
     <mask id="id12">
       <linearGradient id="id13" gradientUnits="userSpaceOnUse" x1="47778.13" y1="16327.8" x2="49625.2" y2="16315.88">
        <stop offset="0" stop-opacity="1" stop-color="white"/>
        <stop offset="1" stop-opacity="0" stop-color="white"/>
       </linearGradient>
      <rect fill="url(#id13)" x="47770.45" y="16163.02" width="3585.01" height="289.36"/>
     </mask>
     <mask id="id14">
       <linearGradient id="id15" gradientUnits="userSpaceOnUse" x1="44051.67" y1="17944.88" x2="49618.34" y2="17948.39">
        <stop offset="0" stop-opacity="1" stop-color="white"/>
        <stop offset="1" stop-opacity="0" stop-color="white"/>
       </linearGradient>
      <rect fill="url(#id15)" x="47735.88" y="17809.83" width="3696.09" height="287.33"/>
     </mask>
     <mask id="id16">
       <linearGradient id="id17" gradientUnits="userSpaceOnUse" x1="46838.38" y1="17083.84" x2="49593.36" y2="17102.31">
        <stop offset="0" stop-opacity="1" stop-color="white"/>
        <stop offset="1" stop-opacity="0" stop-color="white"/>
       </linearGradient>
      <rect fill="url(#id17)" x="46830.55" y="16877.81" width="4830.05" height="449.17"/>
     </mask>
 </defs>
 <g id="Слой_x0020_1">
  <metadata id="CorelCorpID_0Corel-Layer"/>
  <g id="_2210262462512">
   <polygon fill="#141018" points="-0,49502.81 -0,0.03 99005.55,0.03 99005.55,49502.81 "/>
   <g>
    <path fill="#FD0000" d="M64328.01 2466.8l-548.46 80.74c-39.18,152.38 156.69,252.6 235.05,529.55 352.6,1308.69 78.37,1184.88 861.89,2623.75l3369.2 4203c156.69,222.1 548.46,1160.81 548.46,1483.59 78.37,1034.69 -509.29,1631.34 -1057.78,2317.16l-3486.71 2229.59c-1762.95,797.03 -1214.48,637.14 -2624.83,1468.36 -313.41,174.44 -509.29,149.45 -940.24,160.51 -901.07,23.03 -901.07,-110.79 -1684.59,-248.66 -744.37,-126.22 -1096.94,-193.69 -1919.67,-140.74 -274.23,62.8 -39.17,47.69 -430.92,345.41 -587.65,431.8 -1018.6,1569.06 -1723.77,2168.91 -587.65,530.13 -901.06,1476.32 -1527.89,1938.66 -274.23,206.84 0,-24.89 -195.91,151.54l-509.29 393.47c-744.34,241.88 -1214.48,-150.03 -1802.12,-480.71l-313.41 -178.49c-39.18,-15.75 -39.18,-36.64 -78.37,-52.85 -979.39,-615.35 -1292.8,-1246.45 -2154.69,-1961.69l-1175.3 -1295.93c-195.9,-180.31 -195.9,-175.98 -352.59,-381.7l-235.06 -310.16c-313.41,-549.8 -509.32,-594.47 -1057.78,-927.94 -587.65,-377.69 -1292.81,-1330.82 -2233.05,-946.93l-430.95 527.56c-352.6,476.69 -979.4,910.88 -274.24,1774.82 587.65,698.07 2468.14,866.48 3290.85,2065.43 352.59,531.21 666,895.22 705.19,1685.62 78.33,1077.26 -117.54,1878.86 391.75,2667.11l705.19 885.83c39.18,29.98 78.37,126.51 117.55,154.82 235.05,311.59 -78.37,21.5 156.68,185.11 78.37,28.9 470.11,143.35 587.65,174.17 1096.94,341.74 666.01,383.92 2389.78,734.98 1332.02,260.2 3760.94,40.45 4857.91,-858.23 744.34,-577.63 1684.58,-1063.24 2389.78,-1707.22l2468.1 -2137.47c156.72,-134.24 39.18,-32.85 195.91,-182.24l117.51 -116.37c470.14,-377.09 1880.49,-911.5 2664.01,-640.01 313.41,116.69 744.37,425.67 901.06,587.22 861.89,783.23 744.38,1593.89 1488.72,2136.49 2115.54,1565.38 1527.89,1188.6 4074.39,1643.51l1096.94 398.89c39.18,11.33 78.37,35.04 78.37,55.92 0,757.98 -391.78,1796.58 -901.07,2361.66 -235.08,279.03 -352.6,186.12 -626.83,481.45 -470.14,505.89 117.51,228.79 -470.14,459.21l-1371.17 546.81c-1096.94,496.3 -1096.94,240.04 -1958.82,532.48 -313.41,104.17 -156.72,73.04 -352.59,143.45 -195.91,76.21 -235.06,74.87 -509.32,132.61 -587.65,141.62 -1214.45,287.97 -1762.95,430.11 -626.83,157.7 -1214.48,141.22 -1841.27,264.57 -587.65,117.15 -1332.02,386.85 -1841.31,447.63 -901.06,27.34 -2350.59,305.3 -3212.47,475.52 -1175.3,227.55 -1958.85,340.07 -3134.15,612.09 -1645.41,384.54 -4270.23,1011.69 -4897.06,2390.46 -235.09,792.19 0,1283.96 470.11,1823.23 117.54,144 156.72,200.67 274.23,326.34l509.29 495.09c352.59,315.24 -39.15,152.52 430.95,333.64l156.69 134.31c548.5,393.8 391.78,154.38 626.83,515.19l1371.2 974.44c705.16,269.27 509.29,74.05 665.98,-170.95 -509.29,-614.33 195.91,-1163.36 666.01,-1393.55 666.01,-878.16 6189.9,-2936.74 7404.38,-3360.23 5406.38,-1891.06 6973.46,1182.18 8932.27,-630.94 1096.97,-1038.4 1018.61,-2227.54 1762.95,-3565.92 666.01,-1196.47 1998.03,-1843.33 3565.07,-1920.97 2938.25,-144.88 5602.26,1227.85 7090.97,3622.2l470.14 161.13c548.47,-639.62 1606.23,-1367.62 2311.42,-2571 39.17,-23.78 39.17,-57 78.36,-80.97 0,-23.88 0,-57.13 39.18,-80.81l117.51 -224.16c39.18,-20.88 39.18,-48.35 78.37,-68.93 0,-20.84 39.17,-48.09 39.17,-68.9l274.24 -371.55c274.23,-428.84 274.23,-375.96 78.36,-752.24 -195.91,-262.13 -2468.13,-1709.67 -3173.33,-1973.5 -1488.71,-537.05 -3055.75,-436.24 -4583.65,8.94 -1018.6,288.88 -2977.42,1536.54 -3956.84,830.53 -1096.94,-761.95 -1057.76,-2609.56 -979.43,-4284.95l0 -868.27c-391.75,-175.25 -39.15,-205.59 -744.34,-273.78 -391.78,-39.51 -705.19,49.85 -1096.94,20.29 -2389.78,-176.43 -5171.33,-3730.41 -1762.95,-5936.51 1371.17,-891.44 4348.59,-2323.29 4583.65,-4110.12 235.05,-1545.61 -1606.23,-1279.11 -1762.95,-2589.86 -195.87,-1686.44 2546.46,-1928.03 1645.4,-4579.24 -313.38,-792.04 -470.11,-828.21 -352.56,-1874.75 744.34,-850.43 1958.81,-1124.41 3055.75,-456.41 901.06,545.47 1684.61,1274.73 1998.04,2245.13 470.1,1565.31 -274.24,2517.1 39.17,3897.73 235.06,1005.13 1214.45,1881.17 2076.36,2072.15 548.47,31.42 548.47,-109.71 861.89,-444.79l391.74 -376.44c156.72,-172.41 117.54,-141.85 313.41,-290.45 1057.78,-737.46 2977.42,-1052.47 4387.77,-723.49 744.37,176.69 1449.56,-48.64 2311.45,163.25 195.87,412.36 -195.91,1042.46 391.74,1666.18l430.95 452.46c117.55,511.57 1606.26,1341.51 2193.9,1634.28 901.07,441.49 1880.46,833.33 2859.88,1069.79l587.65 84.56c-156.72,-692.43 -666,-761.86 -666,-1682.07 0,-629.77 470.14,-1175.3 822.7,-1557.65 587.65,-702.78 1762.95,-1531.84 1802.13,-2900.99 0,-794.68 -39.18,-1312.13 -352.57,-1904.37 -626.83,-1190.28 -1057.78,-2253.83 391.75,-3038.53 510.52,-274.04 917.15,-380.42 1494.94,-415.88l0 -1936.93 -12803.98 0c-4.64,43.42 -9.03,86.87 -13.01,130.49 -3213.17,614.37 -7196.18,1291.07 -9979.13,-130.49l-5464.13 0c-384.34,1278.94 -1546.39,2550.35 -3479.04,2668.28 -470.11,29.26 -1136.12,37.42 -1606.26,-0.72 -626.8,-48.05 -783.52,-238.41 -1331.99,-200.8z"/>
    <path fill="#FD0000" d="M17942.88 33787.34c-274.23,474.12 -979.43,417.35 -1527.89,541.45 -156.69,162.11 -117.52,75.72 -705.16,168.4l-2233.09 -466.84c-548.46,33.08 -666.01,891.83 -979.43,490.63 -1998,-122.11 -2899.06,-494.54 -4622.82,-345.81 -195.87,308.49 -626.83,866.65 -705.19,1073.18 -430.92,726.04 -626.83,2445.89 -861.88,2893.2 -783.52,1634.67 -1841.31,237.92 -2154.69,-395.66 -470.15,-1037.01 -783.56,-1602.73 -1919.67,-2310.47 -39.18,-16.12 -78.37,-35.17 -78.37,-50.79 -39.18,-15.76 -78.33,-34.52 -78.33,-49.59l-195.91 -90.46c-861.89,-379.09 -1018.57,-481.14 -1802.13,-507.79l0 3323.33c1645.44,203.44 3094.97,1706.87 3565.08,3065.55 705.19,2245.22 -1919.64,2803.08 -3565.08,2928.07l0 5449.08 945.34 0c-517.54,-860.51 -812.98,-2053.72 229.97,-3024.63 2272.27,-2122.4 -78.33,-433.47 3956.85,-2601.51l2781.55 -1509.14c626.8,-587.06 1488.72,132.09 3251.66,-348.29 705.16,-194.21 548.46,226.67 1567.03,-613.75 391.78,-323.24 744.38,-635.54 1136.15,-931.8 78.33,-207.19 470.11,-595.99 665.98,-765.28 509.32,-182.27 666.01,-850.56 1057.78,-1054 274.24,-467.65 470.11,-670.48 744.35,-967.87 313.41,-346.11 470.14,-594.44 901.06,-838.5 195.91,-566.93 2389.78,-1766.37 3251.66,-2118.77 3447.56,-1438.25 6346.63,332.37 10068.39,707.8 2507.32,255.7 4936.28,1016.16 7678.65,-110.07 3878.45,-1621.49 1136.11,-4807.81 548.46,-5027.2 -548.46,-208.23 -235.08,-604.71 -1292.84,-725.48 -1253.66,-142.07 -2037.18,472.98 -3055.78,844.63 -195.87,73.07 -548.47,181.42 -744.34,243.67 -1136.12,373.5 -3251.66,370.21 -4113.54,-181.78l-1802.13 -1283.25c-39.18,-17.61 -39.18,-46.94 -78.36,-64.3l-195.87 -170.88c-1096.97,-765.09 -5328.02,-1394.72 -6816.73,-596.23l-1136.15 836.34c-548.46,606.86 -391.74,410.73 -665.97,1195.07 -156.73,542.14 -626.83,2599.31 -587.65,3255.41l-430.95 134.34z"/>
    <path fill="#FD0000" d="M85169.98 45471.38l-1606.26 461.65c-979.43,439.02 -3212.47,440.58 -4270.23,237.02 -1175.3,-101.95 -666.01,-251.17 -1684.62,150.59 -117.51,1170.37 274.23,1796.91 1136.12,2294.58 352.6,215.18 822.73,377.78 1449.56,311.13 1018.57,-105.99 1880.46,-1787.19 3643.4,68.31 191.17,208.99 353.18,374.78 492.52,508.15l14675.07 0 0 -5366.75c-2627.11,89.2 -4463.59,310.81 -7253.89,-14.65 -1214.48,-144.62 -2428.95,-183.35 -3643.43,171.87 -1018.61,302.12 -1958.85,980.76 -2938.25,1178.1z"/>
    <path fill="#FD0000" d="M88930.93 26447.39c-195.87,278.11 -744.34,721.3 -1018.57,992.8 -352.6,324.61 -587.65,755.69 -783.55,1050.65l-548.47 854.7c-391.77,853.27 -352.6,2198.92 -783.52,2800.57 -979.43,1257.28 -3408.38,1051.43 -3760.98,821.1 -1371.17,62.22 -2115.55,45.08 -2037.18,1647.1 39.18,952.47 430.95,1599.2 1214.48,1956.24l391.78 189.16c901.06,-149.12 1723.77,412.62 2899.06,159.62 2076.36,-463.23 3330.02,-3296.25 6307.44,1366.21 195.87,346.33 430.93,621.71 666.01,933.69 861.89,1102.05 2193.87,1425.52 3447.53,960.7 1417.53,-516.17 2329.43,-1933.99 4080.59,-2135.05l0 -3426.1c-546.51,-58.33 -1058.02,-195.32 -1494.94,-376.54 -235.06,-1118.37 626.83,-2362.5 1096.97,-2731.93 148.47,-131.6 262.46,-227.29 397.97,-298.22l0 -5517.5c-774.49,396.35 -1774.53,1314.31 -2200.11,1678.33 -2193.9,1861.53 -4113.57,3639.59 -6934.27,301.96 -587.65,-705.61 -274.23,-1037.07 -940.24,-1227.49z"/>
    <path fill="#FD0000" d="M67.22 25343.69l0 5422.75 5878.29 -1705.74c275.46,-76.97 443.41,-132.78 768.27,-195.49 1228.63,-237.15 2479.73,-364.3 3665.43,-586.03 1119.72,-209.4 2319.4,-462.99 3536.56,-661.06 1591.73,-258.97 1224.65,-318.44 1700.03,-401.93 360.61,-63.34 675.46,-14.54 1038.53,-124.01 451.34,-136.06 173.56,-143 671.34,-277.43 932.36,-251.8 1502.68,-324.12 2375.67,-878.91l293.87 -204.72c350.31,-226.34 1107.15,-563.28 1043.2,-1526.3 -44.12,-664.3 -784.22,-1555.64 -1290.1,-1961.55 -237.12,-190.28 -299.51,-185.25 -538.71,-428.7 -727.61,-740.39 -455.24,-340.81 -925,-708.87 -251.16,-196.79 -94.15,-23.91 -271.72,-278.34 -2244.3,-285.28 -2958.91,392.04 -4326.1,1445.95 -4347.05,3350.99 -5556.84,1660.28 -9152.27,1779.02 -1955.84,64.61 -3698.5,1110.35 -4467.3,1291.38z"/>
    <path fill="#FD0000" d="M27893.76 8957.2c313.41,430.76 587.65,432.84 979.4,814.83 979.42,899.04 1410.38,1864.6 3251.66,2067.29 2507.32,273.75 4035.21,-2012.71 2233.09,-3431.51 -156.72,-639.94 -1880.49,-1838.44 -2468.14,-2153.45 -2115.54,-1138.59 -4662.01,-476.37 -8070.38,-1366.08 -3173.3,-834.12 -4035.18,-3393.97 -11047.79,-770.38 -1841.31,692.4 -3839.34,1165.41 -4897.09,-1037.89 -1175.3,-2501.71 391.77,-2127.29 1762.95,-1771.43 940.24,244.09 1214.48,226.47 2233.09,54.97 316.18,-410.6 470.2,-882.56 502.37,-1363.53l-12294.56 0 0 1951.57c1802.13,105.67 3408.39,1832.83 4191.91,3276.59 979.43,1881.82 -587.65,4744.48 509.28,6664.73 313.41,590.03 705.19,935.32 1175.3,1299.63 744.37,551.99 940.24,643.63 2115.55,496.27 3408.38,-370.53 9010.63,-2141.51 12183.93,-3472.59 1567.07,-642.52 3055.79,-1339.2 4818.74,-1531.25 1919.67,-213.88 2076.35,322.77 2820.73,272.21z"/>
    <path fill="#FD0000" d="M59139.33 49502.81c-112.72,-138.19 -218.49,-261.51 -296.06,-353.35 -430.92,-489.78 -783.52,-918.52 -1645.4,-851.83 -325.84,403.13 -492.85,766.03 -583.67,1205.18l2525.14 0z"/>
   </g>
   <g>
    <path fill="#6C0002" d="M31372.54 49502.81c176.76,-62.41 349.5,-130.43 517.21,-204.72l783.56 -339.25c195.87,-88.12 391.74,-188.6 587.65,-276.69l587.65 -361.5c-587.65,33.31 -391.77,-133.69 -626.83,-663.07 -195.91,-537.31 -1018.61,-1532.46 -1527.89,-1796.03l-470.14 -250.12 -352.57 -61.92c-2585.68,-135.36 -4740.37,1001.61 -7208.51,1325.82 -2468.14,323.24 -5484.75,437.77 -7952.85,494.41 -2389.78,54.64 -10420.99,-213.75 -12105.6,620.18 -725.35,359.09 -1119.05,811.48 -1332.8,1512.89l29101.12 0z"/>
    <path fill="#6C0002" d="M67.22 25343.69c768.8,-181.02 2511.45,-1226.77 4467.3,-1291.38 3595.43,-118.74 4805.22,1571.97 9152.27,-1779.02 1367.19,-1053.91 2081.79,-1731.23 4326.1,-1445.95 1069.37,170.95 2475.08,1479.12 3816,1835.53 737.96,196.19 1788.14,202.25 2591.83,127.5 1038.49,-96.59 1419.33,-672.54 2208.27,-472.78l20.81 -235.25c944.26,-116.23 1497.08,-524.29 2730.85,-499.78 1117.5,22.18 1910.14,181.44 2979.3,294.51 1344.68,142.18 1983.59,603.21 2711.55,-606.34 75.56,-125.6 20.03,-45.07 136.83,-218.62 996.97,-1481.63 808.52,-3479.06 -136.09,-4054.13 -751.2,-457.32 -1858.14,-50.92 -2609.13,211.8 -159.36,55.78 -218.52,80.7 -344.12,138.55l-847 287.5c-2897.75,515.49 -3778.6,368.77 -6032.13,-1487.89l-2854.12 -1988.49c-938.7,-553.88 -2977.69,-783.6 -4063.35,-710.88 -1904.37,127.57 -3558.1,588.77 -5312.09,1056.16 -1400.21,373.13 -4661.91,306.44 -5390.47,-510.01 779.44,-301.87 145.91,-16.33 436.3,-305.92 -1165.84,147.36 -1366.05,55.74 -2096.27,-496.27 -481.87,-364.29 -854.44,-709.58 -1190.71,-1299.61 -1094.37,-1920.25 487.53,-4782.93 -504.58,-6664.72 -761.13,-1443.77 -2373.14,-3170.92 -4197.37,-3276.59l0 23392.08z"/>
    <path fill="#6C0002" d="M50025.56 0.03c20,224.55 10.41,458.75 -36.21,684.8 -195.87,982.98 -705.16,1269.87 -705.16,1279.08 -1802.12,2189.5 -2899.1,1884.4 -5719.8,1998.19 -117.54,650.64 -78.36,1055.96 235.06,1463.1 156.72,213.03 0,38.66 156.72,198.81 1606.23,1409.28 6503.32,446.58 9284.84,799.28 940.24,118.39 -78.33,64.92 1292.84,445.37 156.69,350.15 78.36,486.09 352.59,746.04l156.69 112.02c0,13.08 39.18,34.09 78.37,57.13 -39.18,1864.5 -705.19,2818.68 -1998,3982.62 -2233.09,2013.96 -6973.46,370.9 -8305.45,1669.78 1998,-335.37 1998,1237.74 6816.73,1299.75 1527.89,20.13 2899.07,-87.82 4035.18,-820.16 705.19,-458.75 1214.48,-489.29 1762.95,-1577.19 587.65,-1267.36 -156.69,-2272.92 822.7,-3268.39 901.06,-956.17 2037.21,-208.83 3447.56,-387.77 1175.3,-154.05 1292.81,-1752.67 744.34,-2655.65 -352.59,-565.2 78.37,-79.34 -783.52,-589.44 -666,-409.01 -1214.48,-378.24 -1919.67,-761.63 0,-931.07 1096.97,-1538.49 1723.8,-1956.18 391.74,-268.65 744.34,-618.08 1214.45,-675.27l1567.07 364.53c0,12.17 39.18,36.31 78.36,57.94 548.47,-37.62 705.19,152.74 1331.99,200.8 470.14,38.13 1136.15,29.98 1606.26,0.72 1932.65,-117.93 3094.7,-1389.34 3479.04,-2668.28l-20719.74 0z"/>
    <path fill="#6C0002" d="M73111.95 22654.74c359.47,-654.4 353.59,-3041.06 2448.24,-4824.62 387.01,-329.55 69.96,-82.92 583.28,-314.51 2687.89,-1212.72 2725.39,-174.47 8847.3,-3424.37l472.78 -276.9c414.96,-243.87 967.75,-344.12 1342.32,-437.85 652.22,-163.17 644.02,-71.58 938.38,-635.42 267.95,-513.25 532.33,-619.3 629.82,-1110.5 -1233.91,48.69 -2947.44,-198.17 -4104.69,-349.23 -661.02,-86.27 -2947.08,-533.59 -3476.83,-1080.25 -856.38,-190.98 -1868.92,-1067.01 -2096.77,-2072.15 -313.03,-1380.63 446.52,-2332.43 -35.88,-3897.75 -299.05,-970.39 -1096.58,-1699.66 -1983.28,-2245.11 -1085.88,-667.99 -2317.61,-394.02 -3076.77,456.41 -122.28,1046.52 71.09,1082.72 350.46,1874.76 935.11,2651.2 -1829.55,2892.78 -1623,4579.23 160.53,1310.74 1977.15,1044.26 1771.27,2589.86 -238,1786.83 -3243.18,3218.67 -4614.8,4110.11 -3394.44,2206.1 -618.55,5760.08 1778.56,5936.53 401.27,29.55 716.97,-59.82 1110.42,-20.31 679.34,68.2 342.78,98.52 749.62,273.8l-10.45 868.27z"/>
    <path fill="#6C0002" d="M94924.96 13351.88c744.34,634.04 626.83,196.4 1331.99,399.12 156.72,42.97 705.19,472.26 822.73,616.13 626.83,642 430.92,1629.78 -39.18,2331.84 -666.01,1015.83 -744.38,1034.89 -1645.44,1815.63 -78.33,67.24 -156.69,114.38 -195.87,171.93 -1057.75,848.73 -1096.93,710.7 -1645.4,1092.21 -39.18,20.48 -117.54,86.71 -156.72,108.76 0,15.57 -39.18,40.72 -39.18,56.41l-1331.99 902.17c-1253.66,700.33 -548.47,86.52 -1802.13,1201.17 -2468.13,2228.49 -901.06,3404.73 -1292.84,4400.14 666.01,190.42 352.6,521.88 940.24,1227.49 2820.7,3337.63 4740.37,1559.57 6934.27,-301.96 425.58,-364.01 1425.62,-1281.98 2200.11,-1678.33l0 -23757.63c-577.8,35.46 -984.42,141.84 -1494.94,415.88 -1449.53,784.7 -1018.58,1848.26 -391.75,3038.53 313.38,592.24 352.57,1109.69 352.57,1904.37 -39.18,1369.15 -1214.48,2198.21 -1802.13,2900.99 -352.56,382.34 -822.7,927.88 -822.7,1557.65 0,920.21 509.28,989.63 666,1682.07l-587.65 -84.56z"/>
    <path fill="#6C0002" d="M16377.07 34687.69c546.87,-124.08 1307.85,-426.23 1572.78,-900.35l-26.23 -495.95c-1240.07,-507.19 -1641.2,-670.96 -2193.28,-1918.74 -420.22,-949.76 -341.62,-2386.48 -1737.22,-2213.1 -913.14,113.45 -1835.64,1146.45 -1901.1,2102.61l712.61 3265.4c1016.27,282.6 2499.44,157.46 3572.44,160.14z"/>
    <path fill="#6C0002" d="M69005.04 41515.83l747.71 -12.71c613.84,-164.75 757.72,-470.11 1280.74,-709.78 290.98,-399.33 427.53,-468.21 787.53,-644.69 317.08,-155.42 372.25,-606.55 1750.92,-1333.66 372.46,-196.45 737.71,-322.86 1046.02,-562.08 733.74,-109.44 296.34,-41.3 837.86,-302.68 273.59,-132.04 691.76,-204.19 933.46,-265.25 839.29,-212.01 1411.93,-213.56 2307.75,-298.83 222.11,239.96 89.08,-11.59 127.11,452.32 28.34,-27.6 66.16,-110.91 80.21,-87.47 90.95,151.8 -50.7,-345.35 1042.79,-795.21 1227.57,-505 644.43,-115.7 1644.44,-196.09l-381.91 -189.16c-767.25,-357.01 -1165.17,-1003.77 -1211.05,-1956.24 -77.18,-1602.01 662.36,-1584.89 2052.29,-1647.08l604.94 -12.88c-83.38,-470.92 -185.42,-240.77 -352.15,-823.21 -1493.84,-2394.34 -4155.11,-3767.09 -7090.93,-3622.19 -1573.38,77.64 -2885.92,724.5 -3560.18,1920.95 -754.3,1338.38 -657.29,2527.54 -1770.67,3565.92 -1944.02,1813.14 -3503.92,-1260.11 -8921.46,630.96 -1213.17,423.49 -6748.1,2482.08 -7401.6,3360.22 -462.04,230.21 -1173.67,779.22 -687.43,1393.56 487.11,156.94 1044.19,508.73 1740.5,658 880.81,188.84 1550.46,208.13 2470.6,203.52 442.5,-58.84 1593.35,-150.74 1975.46,-473.13l909.93 -267.82c1138.31,-401.16 3520.22,-1701.97 4817.36,-665.63 606.49,193.7 1222.26,704.65 1690.01,1284.58 294.75,365.46 363.63,462.32 724.82,778.77 366.51,321.09 433.1,492.82 887.08,580.29l917.86 36.72z"/>
    <path fill="#6C0002" d="M17332.84 36848.04c-438.91,244.05 -588.59,492.4 -903.98,838.49 -271.06,297.4 -484.09,500.22 -749.86,967.89 -396.93,203.45 -574.12,871.72 -1074.26,1054.01 -8.62,561.56 391.9,468.21 957.5,646.94 439.4,138.84 713.31,212.78 1174.26,317.5 719.09,163.38 1756.73,298.49 2483.14,504.05 50.11,13.59 327.39,65.81 335.36,68.84 354.51,133.24 124.89,-61.86 351.48,200.46l454.3 123.7 1018.35 539.85c404.68,440.32 2286.05,818.74 2813.38,916.21 1205.81,222.84 2389.79,170.88 3655.86,222.57l641.02 27.6 1265.25 -55.38 741.3 -30.18c-374.15,-480.74 -614.08,-599.79 -1035.81,-750 -137.39,-1087.05 -424.85,-1968.59 172.68,-2933.56 435,-260 56.52,-47.15 406.55,-393.28 101.34,-100.21 371.97,-341.37 459.37,-401.48 330.43,-227.26 741.34,-352.96 1114.4,-516.59 1993.24,-207.01 3202.3,1468.67 6807.58,1485.64 891.76,-292.43 1072.25,-479.93 1847.43,-891.23 695.49,-111.69 957.71,-403.74 2096.1,-432.75 -490.25,-287.57 -882.08,-116.61 -1465.85,-5.32l4356.91 -2260.6c427.43,-216.09 619.93,-179.75 1046.17,-347.43l2062.54 -794.72c633.56,-1378.77 3255.64,-2005.96 4913.73,-2390.46 1173.17,-272.04 1964.48,-384.54 3117.54,-612.12 862.47,-170.21 2333.17,-448.17 3216.87,-475.49 264.4,-309.33 2587.33,-1076.65 4141.73,-4361.77 260.78,-551.09 825.43,-1237.11 606.62,-2140.07 -319.75,-1319.83 -2778.28,-1015.04 -4280.78,-174.02 -1333.94,746.73 -1360.17,1511.91 -3503.38,2245.85 -3935.36,1347.68 -8565.26,-598.49 -9800.3,-637.68 -1571.37,-49.9 -2928.24,901.83 -4199.3,1532.74 -563.91,279.93 -1313.28,610.99 -1872.86,979.02 -232.64,153.07 -562.6,337.71 -882.15,495.84l-1001.87 483.49 61.09 405.17c555.56,219.4 3329.93,3405.71 -578.17,5027.23 -2714.48,1126.23 -5161.34,365.77 -7685.47,110.06 -3706.45,-375.46 -6619.79,-2146.06 -10067.09,-707.82 -844.57,352.4 -3032.15,1551.84 -3217.36,2118.77z"/>
   </g>
   <g>
    <path fill="#C80000" d="M44800 13436.24c-1111.91,56.9 -8204.31,3105.71 -5558.18,5613.81 771.63,731.34 904.3,598.42 2302.4,806.58 2496.9,371.84 3466.02,4252.61 1940.71,5757.69 -2841.87,2804.08 -5912.86,2423 -9292.94,1199.5 -1570.67,-568.52 -6787.33,-3519.86 -7563.01,-4496.23 -788.94,-199.75 -1169.79,376.2 -2208.27,472.78 -803.69,74.75 -1853.87,68.69 -2591.83,-127.5 -1340.92,-356.42 -2746.63,-1664.59 -3816,-1835.53 177.58,254.44 20.57,81.55 271.72,278.34 469.76,368.07 197.39,-31.51 925,708.87 239.19,243.45 301.59,238.42 538.71,428.7 505.88,405.91 1245.98,1297.25 1290.1,1961.55 63.95,963.03 -692.89,1299.96 -1043.2,1526.3l-293.87 204.72c-873,554.79 -1443.32,627.11 -2375.67,878.91 -497.78,134.44 -220,141.37 -671.34,277.43 -363.07,109.47 -677.92,60.67 -1038.53,124.01 -475.38,83.49 -108.31,142.96 -1700.03,401.93 -1217.15,198.07 -2416.83,451.66 -3536.56,661.06 -1185.7,221.73 -2436.8,348.88 -3665.43,586.03 -324.86,62.71 -492.81,118.52 -768.27,195.49l-5878.29 1705.74 0 3970.32c790.56,26.66 960.6,128.7 1816.31,507.78l174.86 90.49c27.85,15.07 57.39,33.81 84.61,49.58 27.05,15.63 56.83,34.68 83.21,50.77 1161.55,707.75 1467.71,1273.49 1937.61,2310.5 287.08,633.56 1371.16,2030.31 2149.23,395.63 212.89,-447.29 440,-2167.15 839.54,-2893.17 113.7,-206.55 520.14,-764.72 740.35,-1073.21 1699.4,-148.73 2606.38,223.7 4589.06,345.81 335.67,401.24 26.13,414.12 565.68,381.06l2963.88 -7.46c582.89,-92.68 193.03,-44.75 365.53,-206.87 -1073,-2.68 -2556.17,122.46 -3572.44,-160.14l-712.61 -3265.4c65.46,-956.16 987.96,-1989.16 1901.1,-2102.61 1395.6,-173.38 1317,1263.35 1737.22,2213.1 552.07,1247.78 953.2,1411.55 2193.28,1918.74l26.23 495.95 408.88 -134.33c-17.96,-656.09 427.32,-2713.27 608.45,-3255.43 262.07,-784.33 108.21,-588.2 652.92,-1195.07l1158.45 -836.34c1488.25,-798.49 5716.24,-168.84 6803.57,596.23l200.57 170.88c18.31,17.36 41.37,46.69 59.4,64.29l1813.63 1283.28c869.36,551.97 2989.58,555.28 4112.01,181.76 187.11,-62.25 543.38,-170.6 741.34,-243.66 1006.73,-371.66 1809.97,-986.69 3054.41,-844.61 1057.61,120.77 732.81,517.25 1317.47,725.45l-61.09 -405.17 1001.87 -483.49c319.54,-158.13 649.5,-342.78 882.15,-495.84 559.58,-368.03 1308.95,-699.08 1872.86,-979.02 1271.06,-630.92 2627.93,-1582.64 4199.3,-1532.74 1235.04,39.19 5864.94,1985.35 9800.3,637.68 2143.21,-733.95 2169.44,-1499.12 3503.38,-2245.85 1502.5,-841.02 3961.03,-1145.81 4280.78,174.02 218.81,902.96 -345.84,1588.98 -606.62,2140.07 -1554.41,3285.11 -3877.33,4052.43 -4141.73,4361.77 521.09,-60.78 1259.61,-330.49 1852.89,-447.64 624.68,-123.34 1222.29,-106.86 1836.02,-264.58 553.17,-142.14 1200.57,-288.48 1790.74,-430.11 240.57,-57.74 275.42,-56.4 486.41,-132.6 194.96,-70.43 42.92,-39.3 347.08,-143.45 854.19,-292.43 859.4,-36.2 1958.84,-532.5l1361.41 -546.8c605.64,-230.42 25.07,46.69 481.06,-459.19 266.23,-295.35 395.71,-202.43 638.17,-481.48 491.02,-565.07 895.11,-1603.66 906.02,-2361.66 -25.32,-20.88 -62.36,-44.58 -81.1,-55.92l-1094.61 -398.88c-2549.58,-454.89 -1973.42,-78.13 -4088.38,-1643.53 -733.03,-542.57 -638.31,-1353.24 -1468.45,-2136.48 -171.23,-161.54 -590.29,-470.52 -924.37,-587.21 -777.19,-271.48 -2174.27,262.92 -2643.1,640l-129.58 116.38c-165.14,149.4 -50.95,47.99 -191.69,182.25l-2456.52 2137.44c-702.53,644.01 -1665.6,1129.62 -2389.12,1707.26 -1125.74,898.66 -3555.22,1118.41 -4857.4,858.21 -1756.62,-351.06 -1301.3,-393.25 -2424.19,-734.97 -101.37,-30.84 -508.59,-145.28 -552.5,-174.19 -248.46,-163.59 67.36,126.48 -177.01,-185.1 -22.22,-28.31 -74.54,-124.82 -95.7,-154.82l-726.87 -885.81c-512.04,-788.27 -300.66,-1589.86 -371.72,-2667.12 -52.15,-790.43 -370.6,-1154.44 -730.98,-1685.63 -813.45,-1198.95 -2705.96,-1367.36 -3282.48,-2065.43 -713.52,-863.95 -88.41,-1298.13 263.1,-1774.83l446.9 -527.57c949.79,-383.88 1653.88,569.26 2244.09,946.93 521.16,333.49 735.46,378.14 1058.66,927.96l202.35 310.14c159.51,205.73 190.74,201.41 366.24,381.69l1190.11 1295.95c858.56,715.25 1172.96,1346.34 2141.06,1961.69 25.5,16.2 54.65,37.08 80.46,52.85l331.76 178.49c559.08,330.67 1028.98,722.58 1797.64,480.71l483.52 -393.48c191.97,-176.41 -70.67,55.31 203.31,-151.52 612.43,-462.36 938.03,-1408.52 1541.45,-1938.66 682.78,-599.86 1137.32,-1737.12 1708.35,-2168.91 393.76,-297.75 149.25,-282.64 439.16,-345.42 819.54,-52.95 1181.26,14.51 1911.62,140.74 797.29,137.85 780.88,271.69 1694.23,248.67 438.98,-11.06 630.18,13.91 927.18,-160.53 1415.64,-831.2 877.57,-671.3 2639.58,-1468.35l3472.54 -2229.58c567.26,-685.81 1138.7,-1282.47 1076.45,-2317.15 -19.4,-322.78 -416.79,-1261.51 -552.29,-1483.59l-3359.41 -4203c-808.17,-1438.87 -532.49,-1315.07 -882.96,-2623.77 -74.12,-276.94 -270.67,-377.15 -222.08,-529.54l540.11 -80.74c-28.03,-21.62 -66.76,-45.78 -88.98,-57.92l-1557.01 -364.55c-464.47,57.18 -827.47,406.62 -1225.92,675.28 -619.55,417.68 -1723.21,1025.07 -1721.52,1956.16 703.81,383.39 1254.33,352.64 1935,761.63 849.06,510.11 421.27,24.25 777.12,589.44 568.59,902.99 436.09,2501.62 -761.73,2655.67 -1391.13,178.95 -2529.47,-568.41 -3441.77,387.75 -949.83,995.49 -205.32,2001.05 -828.27,3268.42 -534.69,1087.89 -1053.13,1118.41 -1762.47,1577.18 -1132.21,732.33 -2480.32,840.29 -4035.04,820.14 -4786.35,-62 -4793.25,-1635.11 -6817.54,-1299.75z"/>
    <path fill="#C80000" d="M7992.03 42367.53l-2781.55 1509.14c-4035.18,2168.04 -1684.58,479.11 -3956.85,2601.51 -1042.94,970.91 -747.5,2164.12 -229.97,3024.63l1247.76 0c213.75,-701.41 607.45,-1153.8 1332.8,-1512.89 1684.61,-833.93 9715.82,-565.54 12105.6,-620.18 2468.1,-56.63 5484.71,-171.17 7952.85,-494.41 2468.13,-324.22 4622.82,-1461.18 7208.51,-1325.82l352.57 61.92 470.14 250.12c509.28,263.57 1331.99,1258.72 1527.89,1796.03 235.06,529.39 39.18,696.38 626.83,663.07 430.92,-168.86 979.4,-593.46 1371.17,-911.44 274.24,-210.29 430.92,-354.88 666.01,-575.22 391.74,-368.13 1018.58,-979.1 979.4,-1542.73 0,-854.84 -2624.83,-724.38 -3643.4,-834.78l-1606.26 -647.44 -1136.12 -618.45 -744.37 30.18 -1253.63 55.39 -626.83 -27.63c-1253.66,-51.68 -2468.13,0.29 -3643.44,-222.56 -548.46,-97.48 -2428.95,-475.88 -2820.73,-916.21l-1018.57 -539.85 -470.15 -123.7c-235.05,-262.33 0,-67.21 -352.56,-200.44 0,-3.03 -274.23,-55.27 -313.41,-68.84 -744.38,-205.59 -1762.95,-340.69 -2507.32,-504.07 -470.11,-104.72 -744.35,-178.65 -1175.3,-317.49 -548.46,-178.75 -940.24,-85.41 -940.24,-646.96 -195.87,169.29 -587.65,558.09 -665.98,765.28 -391.77,296.26 -744.37,608.56 -1136.15,931.8 -1018.57,840.42 -861.88,419.54 -1567.03,613.75 -1762.95,480.38 -2624.87,-238.77 -3251.66,348.29z"/>
    <path fill="#C80000" d="M74617.97 38252.9c-308.31,239.22 -673.56,365.63 -1046.02,562.08 -1378.67,727.11 -1433.84,1178.24 -1750.92,1333.66 -360,176.48 -496.55,245.36 -787.53,644.69 -523.03,239.68 -666.91,545.03 -1280.74,709.78l-747.71 12.71 -917.86 -36.72c-453.98,-87.47 -520.57,-259.2 -887.08,-580.29 -361.19,-316.45 -430.07,-413.31 -724.82,-778.77 -467.75,-579.93 -1083.52,-1090.88 -1690.01,-1284.58 -1297.15,-1036.34 -3679.05,264.47 -4817.36,665.63l-909.93 267.82c-382.11,322.39 -1532.96,414.29 -1975.46,473.13 -920.14,4.61 -1589.79,-14.68 -2470.6,-203.52 -696.31,-149.26 -1253.39,-501.06 -1740.5,-658 -158.91,245 48.27,440.21 -649.26,170.96l-1382.01 -974.44c-240.07,-360.81 -75.88,-121.37 -606.16,-515.18l-169.86 -134.33c-454.75,-181.12 -60.25,-18.38 -422.96,-333.63l-508.31 -495.1c-110.21,-125.67 -173.63,-182.33 -297.64,-326.34 -464.41,-539.27 -702.22,-1031.03 -471.23,-1823.21l-2062.54 794.72c-426.23,167.68 -618.74,131.34 -1046.17,347.43l-4356.91 2260.6c583.77,-111.3 975.6,-282.26 1465.85,5.32l575.8 85.25c848.21,236.41 1319.76,508.49 1946.63,973.56 606.9,298.97 1401.52,1195.28 1885.78,1656.23 847.36,806.48 1613.7,1613.66 2357.22,2371.83 461.13,470.18 812.43,635.67 1411.69,922.82 605.88,53.45 762.54,-158.24 1201.06,-446.27 121.23,-645.99 -85.39,-195.21 329.61,-533.2 151.9,-123.73 434.13,-301.06 620.67,-361.48 485.67,-157.32 1181.3,-6.3 1425.74,363.56 453.84,158.07 1036.69,849.75 1284.4,1103.98 902.33,925.95 653.91,997.54 1553.39,900.32 58.27,-834.44 -6.52,-1208.81 -78.56,-1963.91 -107.12,-1122.96 105.42,-1118.56 225.7,-1939.34 707.12,-143.13 830.25,-229.09 1578.6,-12.47l951.2 398.28c279.58,169.12 132.85,64.33 231.9,196.02 558.52,183.63 1232.81,625.81 1747.96,955.32l2932.68 1714.23c206.48,255.67 956.51,731.62 1458.84,753.1l50.63 166.72c842.92,260.71 1514.41,794.37 2623.95,1083.98 988.67,258.06 2322.01,514.83 3242.33,-27.46 658.7,-182.64 501.62,-431.93 1031.87,-524.61 229.33,-422.29 273.41,-322.08 543.42,-631.87 143.13,-164.27 323.41,-478.07 398.45,-673.6 480.53,-349.3 1306.94,-1815.96 1695.88,-2560.04 245.5,-469.61 1783.21,-1856.87 2188.32,-2112.54 195.24,-390.32 442.18,-320.43 548.06,-757.01 2.08,-840.84 52.11,-625.88 226.48,-1256.97l270.21 -363.31c-38.03,-463.91 95,-212.36 -127.11,-452.32 -895.82,85.28 -1468.46,86.83 -2307.75,298.83 -241.69,61.06 -659.86,133.21 -933.46,265.25 -541.51,261.37 -104.12,193.24 -837.86,302.68z"/>
    <path fill="#C80000" d="M80792.56 10201.1c529.75,546.66 2815.81,993.98 3476.83,1080.25 1157.26,151.06 2870.78,397.92 4104.69,349.23 341.69,-183.13 808.28,-876.27 963.52,-1149.47l538.38 166.73 -433.69 -452.47c-608.84,-623.73 -195.07,-1253.84 -405.43,-1666.2 -834.04,-211.87 -1558.42,13.45 -2315.88,-163.24 -1410.54,-328.98 -3306.45,-13.94 -4368.7,723.49 -214.02,148.63 -143.18,118.03 -307.75,290.46l-382.25 376.44c-321.9,335.07 -339.86,476.19 -869.72,444.79z"/>
    <path fill="#C80000" d="M82303.69 32131.13c166.73,582.43 268.77,352.29 352.15,823.21l-604.94 12.88c352.86,230.32 2780.29,436.16 3736.52,-821.12 457.57,-601.63 409.01,-1947.3 793.77,-2800.57l529.36 -854.68 -1313.06 -417.15c177.18,376.3 176.26,323.42 -72.39,752.26l-270.46 371.54c-15.95,20.81 -39.97,48.03 -55.64,68.88 -15.49,20.6 -38.94,48.06 -54.01,68.95l-146.09 224.16c-14.47,23.69 -30.5,56.93 -44.86,80.8 -14.4,23.98 -30.7,57.19 -45.28,80.99 -738.44,1203.38 -1781.52,1931.37 -2325.42,2570.99l-479.65 -161.13z"/>
    <path fill="#C80000" d="M99005.55 31212.09c-135.52,70.93 -249.51,166.61 -397.97,298.22 -470.14,369.43 -1332.02,1613.56 -1096.97,2731.93 436.93,181.22 948.43,318.21 1494.94,376.54l0 -3406.69z"/>
   </g>
  </g>
  <polygon fill="black" mask="url(#id0)" points="0.02,0 99005.53,0 99005.53,49502.82 0.02,49502.82 "/>
  <g id="_2210262460112">
   <rect fill="white" transform="matrix(21.9871 -21.9871 21.9871 21.9871 29277 24751.4)" width="919.89" height="919.89"/>
   <path fill="#333333" d="M29276.87 24751.42l20225.93 -20212.74 20225.94 20212.74 -20225.94 20212.73 -20225.93 -20212.73zm168.95 0l20056.98 -20112.25 20057.15 20112.25 -20057.15 20112.25 -20056.98 -20112.25z"/>
   <g>
    <rect fill="none" stroke="#333333" stroke-width="5.88" stroke-miterlimit="22.9256" transform="matrix(5.77173 -5.77173 5.77173 5.77173 30226.9 24751.4)" width="3339.72" height="3339.72"/>
    <polygon fill="#333333" points="54099.82,35746.55 55900.77,37547.49 49502.8,43945.45 43105,37547.65 44906.09,35746.55 49564.19,35746.55 "/>
    <path fill="white" d="M52995.87 27656.63l2904.9 -2904.9 6397.96 6397.96 -6397.96 6397.81 -1800.94 -1800.94 2005.21 0 0 -790.4c-0.15,-260.01 -103.62,-510.6 -287.65,-694.31 -184.02,-183.7 -433.35,-286.86 -693.37,-286.71l-461.46 0 31.56 -4.71 32.66 -6.75 32.19 -8.79 31.72 -10.52 30.93 -12.41 30.15 -14.29 29.36 -15.85 28.41 -17.59 27.17 -19.16 25.74 -20.57 24.66 -21.82 23.24 -23.24 21.98 -24.49 20.41 -25.75 19.16 -26.85 17.43 -27.8 15.7 -28.89 13.66 -28.57 12.09 -29.36 10.52 -29.83 8.63 -30.46 7.85 -35.17 5.65 -35.49 3.45 -36.58 1.26 -36.74 -0.94 -31.24 -2.35 -30.93 -9.74 -60.3 -15.86 -57.94 -21.51 -55.42 -26.85 -52.44 -31.88 -49.14 -36.58 -45.54 -40.98 -41.61 -17.43 -14.76 -18.37 -13.35 -38.94 -23.55 -41.45 -20.1 -43.18 -17.9 -87.92 -34.23 -43.18 -18.85 -41.45 -21.66 -56.53 -34.08 -55.27 -35.8 -54.17 -37.52 -52.76 -39.1 -51.5 -40.83 -50.09 -42.55 -48.67 -43.97 -47.26 -45.53 -45.85 -46.95 -44.12 -48.36 -42.87 -49.94 -40.98 -51.18 -39.56 -52.61 -37.84 -53.69 -36.11 -55.11 -34.23 -56.37 -32.66 -57.47 -30.77 -58.56 -28.89 -59.66 -27 -60.77 -24.96 -61.86 -23.08 -62.64 -21.04 -63.75 -19 -64.69 -16.96 -65.47 -14.76 -66.25 -12.72 -67.2 -10.36 -67.83 -8.17 -68.61 -5.81 -69.24 -3.61 -69.87 -1.1 -70.5 1.41 -78.03 4.4 -77.25 7.07 -76.47 10.04 -75.53 12.72 -74.89 15.38 -73.79 18.06 -72.86 20.57 -71.75 8.01 -16.02 12.41 -12.41 15.54 -7.85 17.74 -2.82 316.69 0c62.02,-0.15 121.84,-24.81 165.65,-68.77 43.97,-43.81 68.46,-103.48 68.46,-165.49l0 -204.59c0,-62.02 -24.66,-121.84 -68.61,-165.65 -43.97,-43.96 -103.48,-68.45 -165.49,-68.45l-1357.37 0 66.73 -19.94 64.22 -25.12 61.39 -30.15 58.56 -35.02 55.27 -39.57 51.82 -43.65 48.05 -47.73 44.12 -51.5 39.72 -54.95 35.49 -58.25 30.61 -61.23 25.6 -63.91 20.41 -66.42 14.76 -68.61 9.1 -70.66 3.14 -72.38 -2.82 -68.46 -39.72 -689.44 -442.47 0 -284.19 0c46.79,-19.32 90.44,-45.54 129.22,-78.04 24.49,-20.88 46.63,-44.12 66.1,-69.56 59.83,-74.89 111.64,-155.76 154.66,-241.48 19.78,-39.41 37.37,-79.92 52.6,-121.21z"/>
    <polygon fill="#333333" points="55900.77,24751.73 62298.73,18353.77 68696.69,24751.73 62298.73,31149.69 "/>
    <path fill="white" d="M36707.03 31149.69l6397.97 -6397.96 3152.03 3152.04c25.6,39.88 53.23,78.5 82.9,115.56 19.47,25.44 41.61,48.68 65.94,69.56 31.25,26.07 65.47,48.36 102.06,65.95l12.09 12.09 -268.96 0 -442.47 0 -39.88 689.44 -2.67 68.46 2.98 72.38 9.11 70.66 14.91 68.61 20.41 66.42 25.6 63.91 30.61 61.23 35.33 58.25 39.88 54.95 44.12 51.5 48.05 47.73 51.82 43.65 55.27 39.57 58.56 35.02 61.39 30.15 64.22 25.12 66.58 19.94 -1357.22 0c-62.02,0 -121.84,24.65 -165.65,68.61 -43.97,43.97 -68.61,103.47 -68.46,165.49l0 204.59c0,62.02 24.65,121.84 68.61,165.8 43.81,43.81 103.48,68.46 165.49,68.46l316.69 0 17.74 2.82 15.54 7.85 12.41 12.41 8.01 16.02 20.57 71.75 18.05 72.86 15.39 73.79 12.71 74.89 9.9 75.53 7.22 76.47 4.4 77.25 1.41 78.03 -1.1 70.5 -3.61 69.87 -5.81 69.24 -8.16 68.61 -10.52 67.83 -12.56 67.2 -14.76 66.25 -16.96 65.47 -19 64.69 -21.04 63.75 -23.08 62.64 -25.12 61.86 -26.85 60.77 -28.88 59.66 -30.78 58.56 -32.66 57.47 -34.38 56.37 -36.11 55.11 -37.69 53.69 -39.57 52.61 -41.13 51.18 -42.71 49.94 -44.27 48.36 -45.69 46.95 -47.26 45.53 -48.67 43.97 -50.09 42.55 -51.5 40.83 -52.75 39.1 -54.17 37.52 -55.27 35.8 -56.53 34.08 -41.45 21.66 -43.18 18.85 -87.92 34.23 -43.18 17.9 -41.45 20.1 -38.94 23.55 -18.37 13.35 -17.43 14.76 -40.98 41.61 -36.58 45.54 -31.88 49.14 -26.85 52.44 -21.52 55.42 -15.85 57.94 -9.74 60.3 -2.51 30.93 -0.78 31.24 1.25 36.74 3.3 36.58 5.81 35.49 7.69 35.17 8.79 30.46 10.52 29.83 11.93 29.36 13.66 28.57 15.86 28.89 17.43 27.8 18.99 26.85 20.57 25.75 21.98 24.49 23.24 23.24 24.49 21.82 25.75 20.57 27.32 19.16 28.42 17.59 29.36 15.85 30.15 14.29 30.93 12.41 31.71 10.52 32.19 8.79 32.66 6.75 31.56 4.71 -461.46 0c-260.01,0.16 -510.61,103.63 -694.32,287.65 -183.7,184.02 -286.86,433.35 -286.7,693.37l0 790.4 1882.58 0 -1801.09 1801.1 -6397.97 -6397.96z"/>
    <path fill="#333333" d="M43105 24751.73l4004.46 -4004.46c46.16,44.44 92.79,88.09 140.05,131.26 85.89,78.03 172.56,155.29 259.86,231.76 39.88,34.85 79.92,69.87 119.8,104.88 47.41,41.61 94.67,83.22 142.1,125.14 85.1,75.06 169.26,151.21 252.31,228.62 99.08,92 195.01,187 287.81,284.98 69.08,73.17 135.18,149 198.3,227.2 52.6,65.16 101.9,132.83 148.07,202.7 44.43,66.89 84.47,136.44 119.95,208.36 34.08,68.3 62.65,139.43 85.42,212.44 38.16,120.74 56.21,246.98 53.39,373.53 -2.67,96.56 -16.65,192.5 -41.45,285.77 -17.74,66.57 -39.57,131.89 -65.64,195.64 -29.52,72.54 -62.8,143.51 -99.86,212.44 -41.45,76.94 -86.36,152.15 -134.56,225.16 -55.58,84.16 -114.46,166.27 -176.33,246.19 -59.83,77.25 -121.84,152.93 -185.75,226.89 -75.06,86.98 -152.3,172.4 -231.28,256.09 -91.53,96.88 -184.64,192.34 -279.01,286.39 -24.49,24.34 -48.99,48.68 -73.48,72.86 -72.86,72.07 -146.02,143.66 -219.5,214.95 -27.95,27.47 -56.53,54.64 -85.57,81.17 -41.46,37.68 -83.22,74.89 -125.15,111.95 -60.14,52.6 -119.8,105.83 -178.99,159.53 -63.12,56.83 -125.15,114.93 -186.06,174.28 -65.17,63.12 -128.6,128.12 -189.99,194.85 -61.71,67.05 -120.74,136.45 -176.95,208.2 -52.29,66.58 -101.43,135.82 -146.81,207.42 -40.98,64.37 -78.35,131.26 -111.79,200.03 -32.5,66.89 -60.45,135.97 -83.53,206.78 -25.12,77.1 -43.33,156.39 -54.48,236.78 -15.39,111.48 -15.07,224.69 1.1,336.17 18.53,125.29 57,246.98 113.84,360.19 21.67,43.33 45.69,85.25 71.75,125.93l-3152.03 -3152.04zm8851.13 -3944.63l3944.64 3944.63 -2904.9 2904.9c28.57,-77.25 49.14,-157.33 61.23,-238.98 16.18,-111.48 16.49,-224.68 1.1,-336.17 -11.15,-80.39 -29.36,-159.68 -54.48,-236.78 -23.08,-70.81 -51.03,-139.9 -83.69,-206.78 -33.29,-68.77 -70.66,-135.66 -111.64,-200.03 -45.53,-71.6 -94.52,-140.84 -146.81,-207.42 -56.21,-71.75 -115.25,-141.15 -176.95,-208.2 -61.55,-66.72 -124.83,-131.73 -189.99,-194.85 -60.92,-59.35 -122.94,-117.45 -186.06,-174.28 -59.19,-53.7 -118.86,-106.93 -178.99,-159.53 -41.92,-37.05 -83.69,-74.27 -125.14,-111.95 -29.05,-26.54 -57.62,-53.7 -85.57,-81.17 -73.48,-71.29 -146.65,-142.88 -219.5,-214.95 -24.49,-24.18 -48.99,-48.52 -73.48,-72.86 -94.52,-94.05 -187.47,-189.51 -279.01,-286.39 -79.14,-83.69 -156.23,-169.1 -231.44,-256.09 -63.91,-73.95 -125.77,-149.63 -185.75,-226.89 -61.71,-79.92 -120.59,-162.03 -176.33,-246.19 -48.05,-73.01 -92.95,-148.22 -134.4,-225.16 -37.05,-68.93 -70.5,-139.9 -99.86,-212.44 -26.07,-63.75 -47.89,-129.07 -65.64,-195.64 -24.96,-93.27 -38.78,-189.2 -41.45,-285.77 -2.82,-126.55 15.23,-252.79 53.39,-373.53 22.77,-73.01 51.34,-144.14 85.42,-212.44 35.48,-71.92 75.52,-141.47 119.8,-208.36 46.16,-69.87 95.62,-137.54 148.22,-202.7 63.11,-78.2 129.22,-154.03 198.3,-227.2 92.79,-97.98 188.73,-192.97 287.8,-284.98 83.06,-77.41 167.07,-153.56 252.32,-228.62 47.26,-41.92 94.68,-83.53 142.1,-125.14 39.88,-35.01 79.76,-70.03 119.8,-104.88 87.3,-76.47 173.97,-153.72 259.86,-231.76l77.09 -71.44zm-5436.1 7359.82l-12.09 -12.09 27.16 12.09 -15.07 0z"/>
    <path fill="#333333" d="M43105 11955.18l6397.8 -6397.96 6397.97 6397.96 -4437.03 4437.02c1.57,-10.99 2.35,-22.3 2.35,-33.76l0 -73.01c0,-65.16 -25.91,-127.96 -72.06,-173.96 -46.01,-46.01 -108.5,-71.92 -173.66,-71.75l-337.11 0 1000.17 -2184.99 67.36 -118.39 68.93 -118.86 67.36 -119.8 31.88 -60.29 30.46 -60.61 28.26 -61.08 25.75 -61.39 22.93 -61.86 19.46 -62.33 15.86 -62.97 11.62 -63.59 7.07 -64.06 2.04 -64.69 -3.77 -72.85 -10.21 -71.76 -16.32 -70.81 -22.3 -69.71 -28.26 -68.46 -34.07 -67.36 -39.57 -66.11 -44.91 -64.53 -50.25 -63.11 -55.43 -61.55 -60.44 -59.98 -65.17 -58.1 -70.03 -56.53 -74.42 -54.48 -78.82 -52.44 -83.22 -50.55 -87.14 -48.36 -91.22 -46.16 -95 -43.8 -98.6 -41.61 -102.22 -38.94 -105.51 -36.58 -108.65 -33.91 -111.79 -31.24 -114.78 -28.42 -117.44 -25.6 -120.12 -22.6 -122.62 -19.63 -124.83 -16.65 -127.02 -13.35 -129.07 -10.04 -131.1 -6.75 -3.14 -0.48 -3.14 -3.14 0 -225.94 0 -7.54 583.14 0 -616.75 -1068.16 1068.16 616.75 0 -1541.39 -1068.16 616.75 616.75 -1068.16 -1541.39 0 616.58 1068.16 -1068 -616.75 0 1541.39 1068 -616.75 -616.58 1068.16 583.14 0 0 7.54 0 225.94 -3.29 3.14 -3.14 0.48 -130.95 6.75 -129.07 10.04 -127.02 13.35 -124.98 16.65 -122.47 19.63 -120.12 22.6 -117.45 25.6 -114.77 28.42 -111.79 31.24 -108.65 33.91 -105.51 36.58 -102.22 38.94 -98.6 41.61 -95 43.8 -91.23 46.16 -87.14 48.36 -83.22 50.55 -78.82 52.44 -74.59 54.48 -69.87 56.53 -65.16 58.1 -60.45 59.98 -55.42 61.55 -50.25 63.11 -45.06 64.53 -39.57 66.11 -33.91 67.36 -28.27 68.46 -22.3 69.71 -16.32 70.81 -10.21 71.76 -3.77 72.85 2.04 64.69 7.07 64.06 11.62 63.59 15.85 62.97 19.47 62.33 22.93 61.86 25.74 61.39 28.27 61.08 30.3 60.61 32.03 60.29 67.36 119.8 68.93 118.86 67.36 118.39 1000.17 2184.99 -337.11 0c-65.16,0 -127.96,25.91 -173.96,71.91 -46.01,46.16 -71.76,108.65 -71.76,173.81l0 73.01c0,130.17 101.43,238.03 231.44,245.57l-140.05 0.15 -4648.84 -4648.99zm8149.12 4646.64l-2.35 2.35 -16.96 0 0 -0.47 19.31 -1.88z"/>
    <path fill="white" d="M51252.39 16604.17l2.51 -2.51c108.65,-15.39 193.44,-101.28 208.67,-208.67l4437.19 -4437.19 6397.96 6397.96 -6397.96 6397.96 -3944.64 -3944.63c49.61,-46.63 98.6,-94.05 146.96,-142.1 64.22,-64.22 126.4,-130.64 186.22,-199.09l0.79 -0.95c50.87,-58.25 99.07,-118.86 144.61,-181.5 40.04,-54.96 76.93,-112.11 110.85,-171.3 31.87,-55.89 60.29,-113.68 84.94,-173.19 28.27,-69.08 50.41,-140.52 65.79,-213.53 13.97,-66.26 21.51,-133.62 22.61,-201.45l-0.15 -43.02 -2.2 -43.02 -3.93 -42.71 -5.65 -42.71 -16.02 -84.63 -21.82 -83.53 -15.07 -47.27 -16.79 -46.47 -18.68 -45.53 -20.41 -44.59 -22.14 -43.5 -23.71 -42.71 -25.28 -41.45 -26.85 -40.36 -28.42 -39.41 -29.83 -37.99 -31.41 -36.9 -32.66 -35.49 -33.91 -34.23 -35.49 -32.82 -36.58 -31.55 -37.69 -29.99 -39.09 -28.57 -40.04 -27.01 -41.3 -25.27 -42.24 -23.87 -43.18 -22.14 -44.12 -20.41 -45.22 -18.68 -45.85 -16.96 -46.79 -15.07 -47.57 -13.19 -48.36 -11.3 -48.99 -9.27 -49.61 -7.38 -50.25 -5.34 -50.88 -3.14 -51.34 -1.1 -0.47 0 -190.14 0c139.9,-27.63 241.01,-150.57 241.01,-293.3l0 -133.15c-0.15,-140.53 -97.98,-262.21 -235.36,-292.05l102.84 0c168.32,0 315.12,-115.25 354.85,-278.85l451.57 0c55.58,0 108.96,-21.98 148.06,-61.24 39.25,-39.25 61.24,-92.48 61.24,-147.9l0 -6.75c-0.16,-55.42 -22.14,-108.81 -61.39,-147.9 -39.25,-39.25 -92.32,-61.24 -147.9,-61.24l-451.57 0c-39.88,-163.6 -186.53,-278.85 -354.85,-278.85l-164.87 0z"/>
    <path fill="white" d="M36707.03 18353.77l6397.97 -6397.96 4648.2 4648.37 -41.92 0c-168.47,0.16 -315.13,115.25 -354.85,278.85l-451.72 0c-55.43,0 -108.81,22.14 -147.9,61.39 -39.26,39.1 -61.24,92.33 -61.24,147.75l0 6.75c0,55.43 22.14,108.81 61.39,148.07 39.25,39.1 92.32,61.08 147.75,61.08l451.72 0c39.88,163.6 186.38,279.02 354.85,278.85l102.69 0c-137.24,29.99 -235.21,151.52 -235.21,292.05l0 133.15c0,142.73 101.12,265.67 241.02,293.3l-190.14 0 -0.47 0 -51.35 1.1 -50.87 3.14 -50.25 5.34 -49.61 7.38 -48.99 9.27 -48.36 11.3 -47.58 13.19 -46.79 15.07 -46 16.96 -45.06 18.68 -44.12 20.41 -43.34 22.14 -42.23 23.87 -41.14 25.27 -40.19 27.01 -38.94 28.57 -37.84 29.99 -36.58 31.55 -35.33 32.82 -34.08 34.23 -32.66 35.49 -31.24 36.9 -29.83 37.99 -28.42 39.41 -26.85 40.36 -25.44 41.45 -23.71 42.71 -21.98 43.5 -20.41 44.59 -18.68 45.53 -16.79 46.47 -15.07 47.27 -21.82 83.53 -16.02 84.63 -5.65 42.71 -3.93 42.71 -2.2 43.02 -0.31 43.02c1.25,67.83 8.79,135.19 22.6,201.45 15.54,73.01 37.69,144.45 65.94,213.53 24.66,59.51 52.91,117.29 84.95,173.19 33.91,59.19 70.81,116.34 110.85,171.3 45.53,62.64 93.74,123.26 144.61,181.5l0.79 0.95c59.82,68.45 122,134.87 186.22,199.09l84 82.27 -4004.46 4004.46 -6397.97 -6397.96z"/>
    <polygon fill="#333333" points="30309.07,24751.72 36707,18353.8 43104.93,24751.72 36707,31149.65 "/>
    <path fill="black" stroke="white" stroke-width="1.96" stroke-linejoin="bevel" stroke-miterlimit="22.9256" d="M46531.07 28165.91c-46.8,-19.22 -90.38,-45.53 -129.22,-77.98 -24.39,-20.81 -46.53,-44.1 -66.07,-69.56 -59.8,-74.86 -111.64,-155.77 -154.63,-241.39 -56.86,-113.27 -95.28,-234.94 -113.84,-360.28 -16.14,-111.43 -16.49,-224.6 -1.06,-336.13 11.09,-80.39 29.35,-159.64 54.53,-236.79 23.08,-70.78 51,-139.9 83.56,-206.85 33.36,-68.75 70.67,-135.52 111.75,-199.96 45.41,-71.57 94.43,-140.82 146.81,-207.47 56.19,-71.68 115.21,-141.14 176.94,-208.12 61.45,-66.77 124.78,-131.78 189.94,-194.96 60.91,-59.26 122.96,-117.37 186.07,-174.29 59.23,-53.62 118.87,-106.78 178.94,-159.48 42.01,-37.01 83.76,-74.32 125.25,-111.9 29.01,-26.55 57.52,-53.66 85.55,-81.27 73.48,-71.26 146.63,-142.86 219.43,-214.8 24.54,-24.25 49.03,-48.54 73.51,-72.86 94.47,-94.06 187.5,-189.56 279.07,-286.44 79.01,-83.65 156.14,-169.07 231.33,-256.16 63.91,-73.97 125.85,-149.64 185.74,-226.89 61.83,-79.83 120.63,-161.95 176.31,-246.17 48.2,-73 93.06,-148.11 134.49,-225.13 37.1,-68.98 70.43,-139.89 99.9,-212.45 26.01,-63.72 47.9,-129.03 65.55,-195.57 24.94,-93.3 38.87,-189.19 41.51,-285.73 2.76,-126.64 -15.26,-252.85 -53.39,-373.64 -22.75,-73 -51.32,-144.03 -85.4,-212.46 -35.56,-71.88 -75.6,-141.42 -119.93,-208.26 -46.13,-69.87 -95.56,-137.53 -148.12,-202.73 -63.08,-78.29 -129.22,-154.06 -198.24,-227.14 -92.85,-98.08 -188.84,-193.12 -287.82,-284.99 -83.05,-77.42 -167.19,-153.68 -252.39,-228.72 -47.3,-41.81 -94.67,-83.53 -142.12,-125.16 -39.87,-34.99 -79.8,-69.93 -119.79,-104.83 -87.31,-76.41 -173.93,-153.68 -259.78,-231.74 -76.22,-69.54 -150.92,-140.73 -224.04,-213.52 -64.33,-64.21 -126.47,-130.61 -186.27,-199.06l-0.79 -0.91c-50.85,-58.35 -99.09,-118.92 -144.58,-181.53 -40.02,-55.04 -77.02,-112.22 -110.81,-171.3 -32.01,-55.88 -60.4,-113.77 -84.96,-173.3 -28.37,-69 -50.43,-140.44 -65.9,-213.43 -13.93,-66.26 -21.5,-133.71 -22.62,-201.42l0.28 -43.08 2.14 -42.98 3.94 -42.82 5.63 -42.65 16.05 -84.63 21.86 -83.52 15.04 -47.27 16.85 -46.43 18.65 -45.52 20.37 -44.58 22.06 -43.62 23.71 -42.58 25.32 -41.52 26.88 -40.41 28.38 -39.27 29.89 -38.07 31.3 -36.83 32.69 -35.55 34.03 -34.23 35.36 -32.89 36.58 -31.46 37.81 -30.01 38.98 -28.52 40.12 -27 41.19 -25.42 42.24 -23.81 43.23 -22.13 44.18 -20.44 45.1 -18.68 45.96 -16.92 46.79 -15.07 47.56 -13.2 48.31 -11.29 48.99 -9.33 49.67 -7.32 50.25 -5.29 50.83 -3.19 51.33 -1.1 0.48 -0.06 190.23 0c-140.01,-27.53 -241,-150.52 -241.05,-293.22l0 -133.19c-0.05,-140.48 98.01,-262.05 235.28,-292.01l-102.81 0c-168.36,0.07 -314.97,-115.27 -354.87,-278.84l-451.6 0c-55.45,0.03 -108.61,-21.95 -147.84,-61.14 -39.23,-39.16 -61.29,-92.59 -61.34,-148.04l0 -6.72c-0.03,-55.43 21.96,-108.62 61.15,-147.85 39.17,-39.21 92.58,-61.29 148.02,-61.33l451.6 0c39.77,-163.59 186.51,-278.75 354.87,-278.81l182.62 -0.22c-129.91,-7.57 -231.38,-115.4 -231.41,-245.53l0 -73.1c-0.03,-65.12 25.79,-127.62 71.82,-173.7 46.02,-46.07 108.79,-71.99 173.9,-72.02l337.11 0 -1000.22 -2184.89 -67.29 -118.4 -68.97 -118.91 -67.32 -119.77 -31.99 -60.3 -30.35 -60.64 -28.25 -61.02 -25.78 -61.42 -22.86 -61.88 -19.54 -62.37 -15.81 -62.94 -11.63 -63.5 -7.08 -64.12 -2.07 -64.78 3.83 -72.7 10.14 -71.78 16.33 -70.8 22.36 -69.72 28.24 -68.56 33.96 -67.33 39.55 -66.01 45 -64.59 50.26 -63.12 55.4 -61.58 60.42 -59.9 65.24 -58.2 69.93 -56.39 74.48 -54.51 78.88 -52.55 83.13 -50.48 87.22 -48.37 91.19 -46.16 94.98 -43.86 98.64 -41.51 102.16 -39.07 105.52 -36.51 108.71 -33.91 111.79 -31.21 114.71 -28.45 117.47 -25.57 120.09 -22.65 122.57 -19.65 124.89 -16.53 127.06 -13.37 129.07 -10.09 130.99 -6.76 3.14 -0.52 3.17 -3.05 0 -226.03 0 -7.47 -583.11 0 616.68 -1068.11 -1068.11 616.68 0 -1541.41 1068.11 616.69 -616.68 -1068.12 1541.41 0 -616.69 1068.12 1068.12 -616.69 0 1541.41 -1068.12 -616.68 616.69 1068.11 -583.12 0 0 7.47 0 226.03 3.16 3.05 3.16 0.52 130.98 6.76 129.08 10.09 127.06 13.37 124.89 16.53 122.57 19.65 120.1 22.65 117.47 25.57 114.7 28.45 111.79 31.21 108.71 33.91 105.54 36.51 102.16 39.07 98.64 41.51 94.97 43.86 91.19 46.16 87.23 48.37 83.13 50.48 78.88 52.55 74.48 54.51 69.93 56.39 65.24 58.2 60.41 59.9 55.41 61.58 50.28 63.12 44.98 64.59 39.56 66.01 33.96 67.33 28.24 68.56 22.36 69.72 16.32 70.8 10.14 71.78 3.85 72.7 -2.08 64.78 -7.07 64.12 -11.65 63.5 -15.8 62.94 -19.53 62.37 -22.87 61.88 -25.77 61.42 -28.27 61.02 -30.35 60.64 -31.98 60.3 -67.32 119.77 -68.97 118.91 -67.29 118.4 -1000.21 2184.89 337.11 0c65.13,-0.04 127.62,25.78 173.69,71.82 46.08,46.02 71.99,108.79 72.04,173.91l0 73.1c0.07,130.02 -101.47,237.6 -231.28,245.3l0 0.44 182.5 0c168.35,-0.08 314.97,115.26 354.87,278.81l451.59 0c55.45,-0.02 108.63,21.97 147.86,61.16 39.22,39.16 61.28,92.59 61.32,148.02l0 6.72c0.05,55.45 -21.95,108.64 -61.14,147.87 -39.17,39.23 -92.59,61.29 -148.04,61.31l-451.59 0c-39.75,163.59 -186.52,278.78 -354.87,278.84l-102.81 0c137.28,29.83 235.21,151.54 235.27,292.01l0 133.19c0.07,142.7 -101.06,265.55 -241.05,293.22l190.23 0 0.48 0.06 51.36 1.1 50.82 3.19 50.25 5.29 49.66 7.32 49 9.33 48.3 11.29 47.56 13.2 46.81 15.07 45.94 16.92 45.11 18.68 44.17 20.44 43.24 22.13 42.23 23.81 41.21 25.42 40.1 27 38.99 28.52 37.81 30.01 36.59 31.46 35.33 32.89 34.03 34.23 32.69 35.55 31.32 36.83 29.87 38.07 28.38 39.27 26.88 40.41 25.34 41.52 23.7 42.58 22.07 43.62 20.36 44.58 18.65 45.52 16.85 46.43 15.04 47.27 21.85 83.52 16.05 84.63 5.65 42.65 3.93 42.82 2.14 42.98 0.27 43.08c-1.11,67.71 -8.68,135.16 -22.6,201.42 -15.48,73 -37.55,144.43 -65.92,213.43 -24.56,59.53 -52.95,117.42 -84.95,173.3 -33.8,59.07 -70.79,116.25 -110.83,171.3 -45.46,62.61 -93.72,123.18 -144.56,181.53l-0.79 0.91c-59.81,68.45 -121.94,134.85 -186.27,199.06 -73.13,72.79 -147.84,143.98 -224.05,213.52 -85.86,78.06 -172.47,155.33 -259.79,231.74 -39.99,34.89 -79.92,69.83 -119.79,104.83 -47.44,41.63 -94.81,83.35 -142.11,125.16 -85.2,75.04 -169.34,151.31 -252.39,228.72 -98.98,91.87 -194.97,186.91 -287.82,284.99 -69.04,73.08 -135.17,148.85 -198.26,227.14 -52.54,65.2 -101.97,132.85 -148.11,202.73 -44.31,66.84 -84.35,136.38 -119.92,208.26 -34.09,68.43 -62.67,139.46 -85.4,212.46 -38.12,120.8 -56.15,247 -53.39,373.64 2.65,96.55 16.56,192.43 41.51,285.73 17.66,66.54 39.55,131.85 65.55,195.57 29.47,72.56 62.81,143.46 99.91,212.45 41.41,77.02 86.29,152.13 134.47,225.13 55.69,84.22 114.49,166.34 176.31,246.17 59.9,77.25 121.83,152.92 185.73,226.89 75.2,87.1 152.33,172.51 231.35,256.16 91.56,96.89 184.6,192.39 279.08,286.44 24.46,24.32 48.96,48.6 73.49,72.86 72.8,71.94 145.95,143.54 219.44,214.8 28.02,27.6 56.55,54.71 85.56,81.27 41.47,37.59 83.22,74.89 125.23,111.9 60.07,52.71 119.72,105.86 178.95,159.48 63.11,56.92 125.15,115.03 186.08,174.29 65.14,63.18 128.48,128.19 189.94,194.96 61.72,66.98 120.73,136.43 176.91,208.12 52.39,66.65 101.4,135.9 146.82,207.47 41.07,64.43 78.4,131.21 111.75,199.96 32.57,66.95 60.49,136.07 83.56,206.85 25.19,77.15 43.45,156.41 54.53,236.79 15.44,111.53 15.09,224.7 -1.06,336.13 -18.55,125.34 -57,246.99 -113.84,360.28 -43,85.62 -94.84,166.54 -154.64,241.39 -19.52,25.46 -41.66,48.75 -66.06,69.56 -38.83,32.45 -82.42,58.74 -129.22,77.98l284.14 0 442.43 0 39.81 689.56 2.76 68.44 -3.09 72.34 -9.11 70.64 -14.86 68.64 -20.37 66.43 -25.63 63.95 -30.62 61.2 -35.37 58.23 -39.85 54.97 -44.1 51.49 -48.06 47.74 -51.81 43.72 -55.28 39.48 -58.48 34.95 -61.47 30.18 -64.18 25.18 -66.63 19.9 1357.27 0c62.07,-0.05 121.61,24.56 165.51,68.43 43.92,43.86 68.61,103.65 68.64,165.72l0 204.62c0.05,62.05 -24.58,121.61 -68.44,165.51 -43.85,43.91 -103.65,68.59 -165.72,68.65l-316.62 0 -17.77 2.82 -15.63 7.98 -12.35 12.37 -7.98 16.02 -20.61 71.79 -18.03 72.83 -15.41 73.83 -12.71 74.75 -9.98 75.64 -7.18 76.46 -4.36 77.27 -1.45 77.99 1.19 70.49 3.55 69.89 5.88 69.25 8.15 68.58 10.42 67.85 12.61 67.12 14.8 66.31 16.9 65.5 19.02 64.62 21.05 63.73 23.07 62.77 25.06 61.77 26.97 60.78 28.9 59.7 30.75 58.6 32.57 57.46 34.36 56.31 36.1 55.09 37.82 53.81 39.48 52.55 41.12 51.19 42.72 49.84 44.25 48.43 45.78 46.99 47.26 45.51 48.71 43.99 50.08 42.43 51.46 40.83 52.78 39.2 54.09 37.51 55.31 35.8 56.53 34.05 41.5 21.63 43.14 18.82 87.92 34.25 43.13 17.92 41.5 20.08 38.99 23.52 18.31 13.45 17.39 14.77 40.96 41.57 36.61 45.53 31.92 49.17 26.88 52.44 21.5 55.4 15.79 58 9.72 60.27 2.47 30.85 0.86 31.31 -1.22 36.74 -3.37 36.61 -5.71 35.49 -7.82 35.09 -8.76 30.46 -10.43 29.92 -12.05 29.28 -13.65 28.61 -15.83 28.85 -17.45 27.87 -19.02 26.84 -20.52 25.71 -21.9 24.49 -23.3 23.25 -24.55 21.86 -25.77 20.47 -27.29 19.19 -28.37 17.58 -29.31 15.91 -30.2 14.19 -30.97 12.42 -31.64 10.59 -32.21 8.73 -32.69 6.8 -31.5 4.68 461.37 0c260.04,-0.16 509.48,102.99 693.46,286.75 183.99,183.74 287.45,434.32 287.62,694.34l0 790.33 -6540.78 0 -6540.8 0 0 -790.33c-0.18,-260.02 102.97,-509.47 286.74,-693.46 183.75,-184 434.32,-287.45 694.36,-287.62l461.37 0 -31.52 -4.68 -32.69 -6.8 -32.21 -8.73 -31.62 -10.59 -30.97 -12.42 -30.19 -14.19 -29.33 -15.91 -28.37 -17.58 -27.29 -19.19 -25.77 -20.47 -24.57 -21.86 -23.28 -23.25 -21.92 -24.49 -20.5 -25.71 -19.04 -26.84 -17.44 -27.87 -15.83 -28.85 -13.65 -28.61 -12.06 -29.28 -10.42 -29.92 -8.76 -30.46 -7.82 -35.09 -5.69 -35.49 -3.38 -36.61 -1.22 -36.74 0.83 -31.31 2.48 -30.85 9.71 -60.27 15.81 -58 21.49 -55.4 26.88 -52.44 31.91 -49.17 36.63 -45.53 40.96 -41.57 17.38 -14.77 18.31 -13.45 39 -23.52 41.49 -20.08 43.14 -17.92 87.93 -34.25 43.13 -18.82 41.5 -21.63 56.52 -34.05 55.32 -35.8 54.07 -37.51 52.78 -39.2 51.46 -40.83 50.09 -42.43 48.7 -43.99 47.27 -45.51 45.77 -46.99 44.26 -48.43 42.72 -49.84 41.12 -51.19 39.49 -52.55 37.81 -53.81 36.1 -55.09 34.35 -56.31 32.59 -57.46 30.74 -58.6 28.9 -59.7 26.99 -60.78 25.05 -61.77 23.07 -62.77 21.06 -63.73 19.01 -64.62 16.9 -65.5 14.79 -66.31 12.61 -67.12 10.41 -67.85 8.16 -68.58 5.87 -69.25 3.55 -69.89 1.2 -70.49 -1.46 -77.99 -4.36 -77.27 -7.18 -76.46 -9.97 -75.64 -12.72 -74.75 -15.39 -73.83 -18.03 -72.83 -20.64 -71.79 -7.96 -16.02 -12.36 -12.37 -15.62 -7.98 -17.77 -2.82 -316.63 0c-62.05,0.02 -121.61,-24.59 -165.51,-68.44 -43.9,-43.87 -68.59,-103.67 -68.64,-165.72l0 -204.62c-0.05,-62.06 24.59,-121.59 68.43,-165.51 43.87,-43.92 103.67,-68.6 165.72,-68.64l1357.27 0 -66.63 -19.9 -64.17 -25.18 -61.45 -30.18 -58.51 -34.95 -55.28 -39.48 -51.81 -43.72 -48.06 -47.74 -44.1 -51.49 -39.85 -54.97 -35.37 -58.23 -30.6 -61.2 -25.64 -63.95 -20.37 -66.43 -14.87 -68.64 -9.1 -70.64 -3.09 -72.34 2.77 -68.44 39.8 -689.56 442.43 0 284.14 0z"/>
    <polygon fill="white" fill-opacity="0.211765" points="48449.31,10473.86 48415.74,9327.79 49034.95,9734.36 48500.74,9475 "/>
    <polygon fill="white" fill-opacity="0.211765" points="50006.84,8804.28 49018.81,8888.85 48958.63,8784.62 "/>
    <polygon fill="white" fill-opacity="0.211765" points="49477.15,10163.9 49086.39,11064.73 48966.27,11072.09 "/>
    <path fill="white" mask="url(#id2)" d="M47423.19 13056.71l873.31 2534.12 -1091 -2392.38 -17.59 -38.13 -16.57 -38.54 -21.93 -63.88 -15.85 -64.93 -9.62 -65.9 -3.24 -66.81 2.84 -62.53 8.41 -61.72 13.85 -60.81 19.16 -59.85 24.32 -58.79 29.35 -57.67 34.24 -56.46 39.01 -55.18 43.61 -53.83 48.1 -52.4 52.44 -50.88 56.66 -49.31 60.73 -47.65 64.66 -45.9 68.46 -44.1 72.12 -42.21 75.64 -40.22 79.03 -38.2 82.28 -36.08 85.4 -33.87 88.37 -31.61 91.2 -29.25 93.92 -26.85 96.48 -24.33 98.91 -21.76 101.2 -19.11 103.36 -16.37 105.37 -13.58 107.26 -10.68 109.01 -7.73 110.61 -4.69 112.07 -1.59 3.99 1.12 -0.14 1.21c-112.71,14.33 -224.69,33.9 -335.58,58.68 -120.36,26.8 -239.14,60.22 -355.81,100.07 -101.78,34.82 -201.55,75.19 -298.92,120.92 -83.11,39.15 -163.96,82.96 -242.15,131.2 -51.22,31.7 -100.93,65.75 -148.98,102.07l-37.72 30.39 -36.14 32.31 -69.49 67.84 -14.11 15.54 -12.58 16.86 -10.95 18.04 -9.21 19.12 -7.34 20.11 -5.38 20.98 -3.31 21.72 -1.13 22.37 0.89 19.46 2.51 19.33 4.18 18.48 5.72 18.07 10.57 24.21 13.42 22.75 16.05 20.98 18.45 18.92 17.57 14.38 18.95 12.48 20.14 10.46 21.13 8.32 24.86 6.21 25.59 3.16 52 2.19 3454.75 127.73 -3943.42 144.14 -17.29 3.36 -14.68 8.2 -11.9 12.3 -8.88 15.61 -5.66 18.16 -2.23 19.96 1.41 20.98 5.28 21.22z"/>
    <polygon fill="white" mask="url(#id4)" points="44676.29,33089.61 44742.65,33054.29 44807.49,33016.7 44870.76,32976.9 44932.42,32934.94 44992.41,32890.89 45050.69,32844.8 45107.22,32796.73 45161.92,32746.73 45214.78,32694.87 45265.73,32641.2 45314.71,32585.77 45361.7,32528.65 45406.64,32469.9 45449.46,32409.57 45490.15,32347.72 45528.64,32284.39 45564.87,32219.67 45598.81,32153.58 45630.41,32086.21 45659.61,32017.61 45686.38,31947.84 45710.65,31876.93 45732.39,31804.98 45751.53,31732 45768.05,31658.09 45781.87,31583.29 45792.97,31507.65 45801.28,31431.23 45806.77,31354.11 45809.37,31276.32 45809.05,31197.93 45805.76,31118.99 45841.71,31206.17 45873.47,31294.95 45906.27,31404.1 45932.88,31514.92 45945.09,31578.04 45955.39,31641.5 45963.64,31706.11 45969.97,31770.92 45974.64,31844.9 45976.63,31918.43 45975.99,31991.45 45972.76,32063.91 45966.97,32135.78 45958.68,32206.99 45947.93,32277.5 45934.74,32347.27 45919.17,32416.23 45901.28,32484.35 45881.06,32551.57 45858.6,32617.84 45833.92,32683.12 45807.07,32747.35 45778.09,32810.49 45747.01,32872.48 45713.88,32933.29 45678.75,32992.86 45641.65,33051.13 45602.63,33108.07 45561.72,33163.62 45518.98,33217.74 45474.44,33270.37 45428.14,33321.46 45380.13,33370.97 45330.43,33418.85 45279.11,33465.05 45226.21,33509.52 45171.75,33552.2 45115.79,33593.06 45058.35,33632.04 44999.5,33669.09 44962.67,33690.79 44924.46,33709.73 44900.13,33718.88 44874.89,33726.17 44848.81,33731.48 44821.98,33734.74 44787.88,33735.77 44754.51,33733.42 44722.02,33727.82 44690.6,33719.12 44660.45,33707.5 44631.72,33693.09 44604.61,33676.04 44579.29,33656.53 44555.95,33634.68 44534.76,33610.68 44515.9,33584.64 44499.57,33556.75 44485.93,33527.15 44475.17,33496 44467.46,33463.43 44462.99,33429.62 44461.91,33406.1 44462.46,33382.9 44468.24,33337.64 44479.94,33294.34 44497.17,33253.44 44519.54,33215.43 44546.63,33180.79 44578.05,33149.96 44613.43,33123.42 44644.37,33105.7 "/>
    <polygon fill="white" mask="url(#id6)" points="49279.13,34661.57 45118.37,34661.57 45118.35,34661.57 44808,34661.57 44807.9,34661.57 44385.38,34661.57 44338.68,34669.99 44292.58,34680.03 44247.1,34691.66 44202.25,34704.85 44158.08,34719.58 44114.64,34735.81 44030,34772.65 43948.58,34815.11 43870.61,34862.96 43796.36,34915.95 43726.07,34973.83 43659.97,35036.36 43598.33,35103.27 43541.38,35174.33 43489.38,35249.3 43442.55,35327.92 43401.17,35409.95 43382.6,35452.17 43365.48,35495.15 43349.83,35538.84 43335.7,35583.24 43320.25,35540.48 43306.7,35496.84 43295.11,35452.37 43285.51,35407.14 43277.95,35361.17 43272.51,35314.55 43269.2,35267.29 43268.09,35219.46 43270.99,35141.81 43279.65,35066.24 43293.91,34991.54 43311.43,34925.96 43333.34,34861.73 43359.52,34799.12 43389.88,34738.4 43417.29,34691.16 43447.1,34645.4 43475.79,34606.23 43506.21,34568.4 43534.36,34536.58 43563.67,34505.84 43612.74,34459.88 43664.76,34417.31 43719.49,34378.3 43776.69,34342.99 43836.1,34311.55 43897.47,34284.15 43960.54,34260.91 44025.08,34242.03 44072,34231.18 44122.42,34222.73 44173.35,34217.6 44224.67,34215.12 44276.28,34214.62 44379.93,34216.83 44483.44,34218.77 49279.13,34218.77 54644.47,34218.77 54910.03,34218.77 54910.03,34661.57 54644.47,34661.57 "/>
    <path fill="white" mask="url(#id8)" d="M51808.51 28284.95l1279.59 0 -292.58 1255.56c-6832.63,-74.48 -6873.54,554.28 -6805.22,-1216.75l3288.83 -38.81 2529.38 0z"/>
    <path fill="white" mask="url(#id10)" d="M52434.46 29898.82l1429.79 0c36.12,-0.02 70.76,14.3 96.32,39.83 25.55,25.52 39.92,60.32 39.95,96.43l0 59.63c0.02,36.12 -14.3,70.77 -39.83,96.32 -25.52,25.55 -60.31,39.93 -96.43,39.95l-1429.79 0 -3155.33 0 -4114.34 0c-36.11,0.03 -70.76,-14.3 -96.32,-39.82 -25.55,-25.53 -39.92,-60.33 -39.95,-96.45l0 -59.63c-0.02,-36.11 14.3,-70.77 39.83,-96.32 25.52,-25.55 60.32,-39.92 96.43,-39.95l4114.34 0 3155.33 0z"/>
    <path fill="white" mask="url(#id12)" d="M47895.38 16170.73l3335.17 0c64.47,0 117.21,52.74 117.21,117.19l0 39.55c0,64.46 -52.74,117.19 -117.21,117.19l-3335.17 0c-64.47,0 -117.21,-52.74 -117.21,-117.19l0 -39.55c0,-64.46 52.74,-117.19 117.21,-117.19z"/>
    <path fill="white" mask="url(#id14)" d="M47859.93 17817.55l3447.99 0c63.99,0 116.33,52.34 116.33,116.32l0 39.25c0,63.98 -52.34,116.33 -116.33,116.33l-3447.99 0c-63.99,0 -116.34,-52.35 -116.34,-116.33l0 -39.25c0,-63.98 52.35,-116.32 116.34,-116.32z"/>
    <path fill="white" mask="url(#id16)" d="M47719.32 16885.52l3748 0c102.08,0 185.57,83.51 185.57,185.56l0 62.62c0,102.05 -83.49,185.56 -185.57,185.56l-3748 0c-94.43,0 -172.95,-71.47 -184.18,-162.96l-624.47 0c-39.84,0 -72.41,-32.57 -72.41,-72.41 0,-39.84 32.57,-72.42 72.41,-72.42l632.96 0c24.97,-73.05 94.44,-125.95 175.69,-125.95z"/>
    <path fill="white" d="M49568.6 24432.12c96.83,0 175.34,78.5 175.34,175.34 0,96.83 -78.5,175.34 -175.34,175.34 -96.83,0 -175.34,-78.5 -175.34,-175.34 0,-96.83 78.5,-175.34 175.34,-175.34z"/>
    <path fill="white" d="M49568.6 23467.46l0 0c96.44,0 175.32,78.89 175.32,175.32l0 376.54c0,96.43 -78.88,175.32 -175.32,175.32l0 0c-96.43,0 -175.32,-78.9 -175.32,-175.32l0 -376.54c0,-96.43 78.89,-175.32 175.32,-175.32z"/>
    <path fill="white" d="M49378.03 23045.65l373.03 0c3.33,-139.45 26.53,-295.16 68.25,-428.49 28.07,-90.48 63.45,-178.56 105.74,-263.34 41.16,-82.99 87.53,-163.33 138.79,-240.48 50.77,-76.68 105.14,-150.88 162.93,-222.41 68.31,-84.52 140.02,-166.27 214.89,-245.05 94.62,-99.32 192.38,-195.62 293.12,-288.73 73.34,-68.13 147.57,-135.31 222.62,-201.52 84.58,-74.82 169.42,-149.35 254.54,-223.57 79.86,-69.91 159.08,-140.58 237.63,-211.96 67.76,-61.81 134.14,-125.09 199.12,-189.82 51.62,-51.63 101.55,-104.88 149.73,-159.75 39.65,-45.25 77.34,-92.19 112.95,-140.7 28.54,-38.88 55.07,-79.22 79.41,-120.86 22.07,-37.78 41.73,-76.92 58.84,-117.19 18.26,-43.27 32.46,-88.16 42.38,-134.06 12.74,-59.66 16.12,-120.93 10.01,-181.64 -31.92,-298.9 -347.57,-245.2 -627.33,-249.25 -157.72,-1.89 -315.3,8.76 -471.33,31.88 -107.73,15.85 -214.67,36.61 -320.48,62.28 -94.47,22.74 -188.2,48.36 -281.09,76.82 -86.93,26.42 -173.36,54.44 -259.26,84.04 -91.47,31.27 -182.71,63.21 -273.7,95.84 -91.15,32.48 -182.51,64.39 -274.05,95.75 -93.58,31.98 -187.78,62.18 -282.53,90.55 -95.65,28.51 -192.16,54.06 -289.35,76.66 -118.44,27.34 -238.19,48.58 -358.79,63.67 -309.53,38.26 -623.22,27.81 -929.53,-30.93 -145.02,-27.67 -288.13,-64.56 -428.46,-110.46 -70.57,-22.86 -140.47,-47.68 -209.65,-74.45 36.27,91 78.88,179.32 127.54,264.34 38.18,66.11 80.59,129.67 126.99,190.3 50.55,65.45 104.84,127.91 162.64,187.06 42.75,44.06 86.44,87.15 131.1,129.27 45.86,43.47 91.86,86.82 137.98,130.03l787.47 760.89c102.05,90.05 198.68,186.05 289.4,287.5 69.72,78.24 134.74,160.58 194.71,246.54 55.68,80.14 105.72,164.09 149.73,251.2 43.37,86.3 79.45,176.1 107.88,268.42 33.99,111.28 55.1,226.14 62.89,342.25 2.11,32.59 3.2,66.75 3.24,99.36zm186.52 0l-186.52 0c0,103 83.53,186.52 186.52,186.52 103.01,0 186.53,-83.52 186.53,-186.52l-186.53 0z"/>
    <path fill="#CCCCCC" fill-opacity="0.470588" d="M49514.37 25787.94l-189.07 -66.15c-67.54,-24.3 -135.55,-48.14 -203.57,-71.51 -64.04,-21.97 -128.31,-42.77 -193.04,-62.4 -69.18,-21.27 -139.06,-40.2 -209.17,-57.27 -78.76,-19.16 -158.45,-34.58 -238.61,-46.5 -116.16,-17.06 -233.48,-25.01 -351.04,-23.61 -208,3.04 -440.31,84.84 -570.02,214.31 -3.97,39.73 -8.65,33.66 6.08,59.36 0.23,0.46 0.7,0.46 0.93,0.7 2.8,1.4 5.38,2.8 8.18,4.2 30.62,16.36 96.99,51.42 98.39,51.88 49.55,19.17 103.54,41.37 154.25,57.73 104.47,34.35 211.04,61.7 319.02,82.27 227.87,43.93 461.58,51.42 692.03,23.14 89.74,-11.45 178.79,-27.11 267.13,-47.44 72.45,-16.83 144.2,-35.76 215.49,-57.26 64.73,-19.39 129,-39.73 193.04,-61.46z"/>
    <path fill="white" d="M51343.86 25510.52l8.42 6.54c44.17,40.2 109.61,107.51 154.49,147.01 53.28,46.74 106.34,93.95 158.92,141.63 57.73,51.88 114.28,104.93 169.68,159.16 55.15,53.52 108.68,108.68 160.56,165.23 50.01,54.22 97.69,110.54 143.03,168.73 42.07,53.29 80.86,108.68 117.09,166.17 30.61,48.38 58.42,98.62 82.73,150.5 21.73,45.35 40.2,92.32 55.62,140.46 15.19,48.85 26.41,98.63 32.96,149.58 9.11,69.18 7.71,139.53 -3.74,208.47 -12.15,70.58 -34.82,138.82 -67.31,202.86 -75.49,147.94 -89.74,173.18 -251.47,193.75 -69.18,9.12 -138.59,16.36 -208,21.97 -97.92,8.18 -195.85,14.96 -293.77,20.34 -159.86,9.11 -319.72,16.59 -479.57,22.43 -360.15,13.08 -720.07,21.97 -1080.22,26.41 -505.75,7.24 -1011.74,7.01 -1517.48,-0.7 -216.88,-3.5 -433.76,-9.34 -650.65,-17.53 -131.58,-4.91 -262.92,-11.68 -394.5,-19.87 -90.45,-5.61 -180.89,-12.85 -271.1,-21.73 -50.72,-4.91 -101.43,-10.75 -151.69,-17.77 -34.58,-4.67 -68.71,-10.52 -102.6,-17.29 -21.5,-3.97 -43,-9.12 -64.04,-15.43 -118.26,-32.49 -191.41,-190.94 -210.1,-302.19 -6.78,-40.66 -9.12,-82.03 -7.24,-123.4 2.1,-44.88 8.41,-89.51 18.46,-133.22 11.69,-51.42 27.11,-101.89 45.8,-151.21 30.15,-76.89 65.91,-151.92 107.04,-223.66 43.47,-76.43 90.69,-150.74 141.63,-222.5 53.28,-75.02 109.14,-148.17 167.57,-219.22 72.69,-88.58 148.41,-174.58 226.93,-258.25 58.89,-62.4 118.96,-124.11 179.96,-184.4 -3.97,39.73 -8.65,33.66 6.07,59.36 0.24,0.47 0.7,0.47 0.94,0.7 2.8,1.4 5.37,2.81 8.18,4.2 30.61,16.36 96.99,51.42 98.39,51.89 49.54,19.16 103.53,41.37 154.25,57.72 104.47,34.36 211.04,61.7 319.02,82.27 227.87,43.93 461.58,51.42 692.02,23.14 89.74,-11.45 178.79,-27.11 267.13,-47.44 72.45,-16.83 144.2,-35.76 215.48,-57.26 70.35,-21.03 140.7,-43.46 210.11,-67.3 68.24,-23.38 136.26,-46.98 204.27,-71.28 67.54,-24.31 135.55,-47.92 203.56,-71.28 64.04,-22.2 128.31,-43 193.04,-62.64 69.18,-21.27 139.06,-40.2 209.17,-57.03 78.76,-19.16 158.46,-34.59 238.62,-46.51 116.15,-17.29 233.48,-25.23 351.03,-23.84 98.16,1.4 234.88,-9.81 327.43,16.59 38.33,10.99 64.27,24.78 83.9,45.81z"/>
   </g>
  </g>
 </g>
</svg>
