<?xml version="1.0" encoding="UTF-8"?>
<!DOCTYPE svg PUBLIC "-//W3C//DTD SVG 1.1//EN" "http://www.w3.org/Graphics/SVG/1.1/DTD/svg11.dtd">
<!-- Creator: CorelDRAW 2021 (64-Bit) -->
<svg xmlns="http://www.w3.org/2000/svg" xml:space="preserve" width="70mm" height="70mm" version="1.1" shape-rendering="geometricPrecision" text-rendering="geometricPrecision" image-rendering="optimizeQuality" fill-rule="evenodd" clip-rule="evenodd"
viewBox="0 0 271.33 271.33"
 xmlns:xlink="http://www.w3.org/1999/xlink"
 xmlns:xodm="http://www.corel.com/coreldraw/odm/2003">
 <g id="Слой_x0020_1">
  <metadata id="CorelCorpID_0Corel-Layer"/>
  <circle fill="none" cx="135.67" cy="135.67" r="135.67"/>
  <g id="_2245636047312">
   <path fill="white" d="M106.64 68.98c-3.99,1.24 -4.35,4.71 -6.77,9.58 -4.32,8.7 -8.58,18.69 -12.8,27.55 -1.49,3.13 -1.45,4.25 -3.2,5.01l-22.11 10.27c-3.71,1.74 -7.4,3.36 -11.04,5.14 -3.63,1.78 -8.69,3.02 -7.44,8.62 0.54,2.44 1.92,2.86 4.05,3.91 8.6,4.24 18.89,8.55 27.73,12.88l8.12 3.82c1.5,0.69 1.65,0.36 2.33,1.9 4.76,10.8 10.66,22.4 15.39,33.18 1.56,3.56 3.31,8.83 8.53,7.4 3.24,-0.88 4.89,-5.77 6.59,-9.61 1.67,-3.76 3.51,-7.35 5.14,-11.06l8.92 -19.24c0.7,-1.48 0.49,-1.66 1.94,-2.28 7.49,-3.21 14.61,-6.96 22.1,-10.28 3.74,-1.65 7.34,-3.42 11.07,-5.13 3.64,-1.67 8.74,-3.17 7.4,-8.58 -0.8,-3.25 -6.02,-4.89 -9.65,-6.53l-30.21 -14.09c-1.71,-0.78 -1.55,-0.29 -2.33,-1.92 -3.49,-7.28 -6.96,-14.74 -10.27,-22.09 -1.66,-3.69 -3.48,-7.3 -5.13,-11.07 -1.56,-3.57 -3.07,-9.02 -8.36,-7.38z"/>
   <path fill="white" d="M183.58 156.16c-2.43,0.76 -2.51,2.19 -3.45,4.67l-4.48 11.96c-1.16,3.19 -1.23,4.71 -2.91,5.31l-17.75 6.66c-1.9,0.78 -3.61,2.24 -2.76,5.03 0.63,2.05 2.44,2.51 4.66,3.34 2.01,0.75 3.93,1.48 5.97,2.24l8.87 3.33c1.46,0.54 1.94,0.34 2.46,1.77 1.45,3.95 2.89,7.83 4.35,11.84 1.71,4.72 2.55,10.18 7.53,8.77 2.15,-0.61 2.52,-2.51 3.3,-4.68 0.72,-1.99 1.46,-4.04 2.21,-6l3.81 -10.38c0.39,-0.74 0.28,-0.59 1.29,-0.96l17.84 -6.56c1.99,-0.74 3.51,-2.47 2.62,-5.35 -0.64,-2.08 -2.6,-2.48 -4.71,-3.25l-14.91 -5.51c-1.68,-0.62 -1.76,-0.22 -2.36,-1.87 -1.45,-3.96 -2.93,-7.85 -4.4,-11.78 -1.75,-4.7 -2.63,-9.99 -7.17,-8.56z"/>
   <path fill="white" d="M183.35 47.18c-2.07,0.68 -2.43,2.56 -3.25,4.78l-4.49 11.95c-0.39,1.06 -0.71,1.86 -1.09,2.89 -0.58,1.54 -0.26,1.78 -1.87,2.36l-17.76 6.65c-1.84,0.78 -3.61,2.31 -2.64,5.12 0.68,1.97 2.65,2.46 4.71,3.24l14.84 5.58c1.62,0.59 1.85,0.26 2.41,1.82l6.56 17.85c0.85,2.1 2.33,3.44 5.21,2.7 2.08,-0.54 2.58,-2.5 3.34,-4.6 0.74,-2.04 1.46,-3.92 2.21,-6.01l3.28 -8.92c0.52,-1.43 0.3,-1.94 1.76,-2.48l17.85 -6.56c2.03,-0.8 3.52,-2.45 2.77,-5.32 -0.54,-2.03 -2.58,-2.52 -4.67,-3.3l-16.39 -6.02c-0.75,-0.39 -0.58,-0.27 -0.97,-1.28 -1.5,-3.97 -2.89,-7.82 -4.4,-11.79 -0.78,-2.04 -1.45,-3.95 -2.24,-5.98 -0.79,-2.04 -2.53,-3.57 -5.19,-2.69z"/>
  </g>
 </g>
</svg>
