<?xml version="1.0" encoding="UTF-8"?>
<!DOCTYPE svg PUBLIC "-//W3C//DTD SVG 1.1//EN" "http://www.w3.org/Graphics/SVG/1.1/DTD/svg11.dtd">
<!-- Creator: CorelDRAW 2021 (64-Bit) -->
<svg xmlns="http://www.w3.org/2000/svg" xml:space="preserve" width="39.9537mm" height="40mm" version="1.1" shape-rendering="geometricPrecision" text-rendering="geometricPrecision" image-rendering="optimizeQuality" fill-rule="evenodd" clip-rule="evenodd"
viewBox="0 0 481.86 482.42"
 xmlns:xlink="http://www.w3.org/1999/xlink"
 xmlns:xodm="http://www.corel.com/coreldraw/odm/2003">
 <g id="Слой_x0020_1">
  <metadata id="CorelCorpID_0Corel-Layer"/>
  <g id="_2991759975184">
   <path fill="#999999" d="M43.93 234.84l0 -31.63c0,-6.76 0.11,-13.17 0.11,-19.89 0,-4.86 0.34,-9.82 0.34,-14.64l0.55 -15.65c0.02,-0.55 0.1,-0.56 0.12,-1.11 0.01,-0.4 -0.02,-0.83 -0.01,-1.24 0.02,-0.56 0.11,-0.62 0.12,-1.22 0.03,-2.65 0.22,-5.65 0.44,-8.28 0.1,-1.19 -0,-2.39 0.18,-3.62 0.16,-1.04 0.13,-3.45 0.3,-4.73l0.73 -6.87c0.36,-2.98 0.82,-5.8 1.37,-8.58 1.81,-9.05 4.64,-17.97 9.01,-26.09l1.79 -3.24c1.73,-3.18 3.87,-6.16 6.04,-9.05 1.25,-1.67 2.61,-3.2 3.97,-4.75l3.08 -3.3c0.46,-0.46 0.84,-0.72 1.29,-1.17 4.89,-4.95 12.28,-9.75 18.3,-12.88 3.68,-1.92 7.57,-3.37 11.45,-4.87 2.42,-0.94 5.16,-1.71 7.71,-2.35 7.01,-1.75 14.12,-2.8 21.34,-3.7 0.81,-0.1 1.45,-0.09 2.25,-0.21 0.82,-0.12 1.56,-0.08 2.38,-0.19l5.84 -0.42c0.39,-0 0.84,0.03 1.23,-0l14.43 -0.66c0.81,-0.07 1.74,0.04 2.57,-0.01 0.5,-0.03 0.54,-0.11 1.11,-0.12l2.47 0.01c0.56,-0.02 0.62,-0.11 1.22,-0.12 6.61,-0.08 12.97,-0.32 19.68,-0.33 0.79,-0 1.41,-0.12 2.34,-0.12 2.45,0 5.19,0.19 7.59,-0.01 3.09,-0.26 6.68,-0.11 9.95,-0.11l51.53 0c4.12,0 8.59,-0.22 12.52,0.11 1.93,0.16 10.02,0.01 12.62,0.01l10.96 -0c0.65,0.01 0.84,0.12 1.56,0.12 2.05,-0.01 4.23,-0.07 6.27,-0.01l3.01 0.11c1.01,0 2.11,-0.1 3.08,0.05 0.7,0.11 10.34,0.24 12.24,0.39 1.88,0.16 4.32,-0.1 6.11,0.15 1.75,0.24 4.22,0.09 6.18,0.19 0.54,0.03 0.77,0.12 1.45,0.11 0.47,-0 1.1,-0.04 1.55,0.01 0.85,0.1 2.09,0.1 2.94,0.19l8.96 0.54c0.48,0.06 1.07,0.06 1.45,0.11 0.45,0.06 1.07,0.11 1.43,0.14 4.59,0.36 11.93,1.26 16.53,2.36l5.1 1.16c6.42,1.6 12.79,3.64 18.67,6.59 5.49,2.75 10.72,5.78 15.5,9.65 0.87,0.7 1.78,1.35 2.56,2.13l2.52 2.29c0.55,0.55 1.02,1.02 1.57,1.57 0.5,0.5 1.12,1.04 1.56,1.57 0.3,0.36 0.38,0.49 0.73,0.83 0.83,0.81 1.48,1.71 2.23,2.57 0.51,0.58 0.9,1.13 1.39,1.74 1.41,1.73 2.72,3.56 3.97,5.42l1.21 1.92c0.77,1.29 1.67,2.67 2.34,4.03l1.6 3.09c0.2,0.4 0.29,0.68 0.48,1.08 5.03,10.46 7.9,23.04 9.34,34.81 0.22,1.76 0.5,3.81 0.64,5.62 0.13,1.69 0.46,4.36 0.46,5.92 -0,0.75 0.1,2.28 0.19,2.94l0.25 6.01c-0,0.51 -0.02,1.06 -0,1.57 0.02,0.59 0.12,0.84 0.12,1.56 -0.01,1.04 0,2.09 -0,3.13 -0,1.09 0.11,1.85 0.11,3.02 0,2.09 0,4.17 0,6.26l0.22 25.04c0,0.67 0.11,0.81 0.12,1.44l-0 11.07c0,1.15 0.12,1.97 0.11,3.02 -0.08,15.73 0.22,31.38 0.22,47.17 0,4.25 0.11,8.15 0.11,12.41l0.11 18.78c-0.01,2.22 -0.11,4.11 -0.11,6.26 0,2.09 0,4.17 0,6.26 0,4.21 -0.22,8.27 -0.22,12.41l-0.31 9.08c-0.11,0.83 -0.03,2.21 -0.03,3.1 -0,0.67 -0.11,0.81 -0.12,1.44 -0.02,1.77 -0.15,9.31 -0.31,10.75 -0.05,0.45 -0.02,1.08 -0.01,1.55 0,1.06 -0.22,3.07 -0.22,4.58l-0.92 11.71c-0.87,7.71 -1.96,14.07 -3.76,21.39 -0.83,3.36 -1.94,6.51 -3.05,9.58 -1.53,4.23 -3.74,9.01 -6.04,12.85 -0.41,0.68 -0.72,1.3 -1.16,1.97 -1.24,1.89 -2.42,3.8 -3.78,5.61 -1.25,1.66 -2.51,3.28 -3.89,4.83l-1.09 1.26c-0.87,1.14 -4.43,4.66 -5.54,5.52l-3.36 2.89c-2.97,2.39 -5.9,4.54 -9.24,6.52l-2.98 1.71c-1.04,0.51 -2.01,1.13 -3.12,1.58 -0.37,0.15 -0.67,0.31 -1.06,0.51 -0.42,0.21 -0.73,0.32 -1.16,0.52 -2.16,1.04 -4.46,1.9 -6.73,2.66 -4.05,1.35 -8.03,2.55 -12.37,3.5 -1.75,0.38 -3.37,0.75 -5.16,1.1 -3.5,0.68 -7.31,1.22 -10.88,1.64 -1.98,0.23 -6.93,0.78 -8.71,0.79 -0.84,0.01 -2.21,0.09 -2.94,0.19l-12.15 0.48c-5.23,-0.03 -10.32,0.25 -15.54,0.22 -1.05,-0.01 -1.86,0.11 -3.02,0.11 -10.47,0 -20.87,0.22 -31.3,0.22 -2.04,0 -4.38,-0.11 -6.37,0 -4.13,0.22 -8.38,0.11 -12.52,0.11l-15.54 0.22c-3.12,0 -6.4,-0.17 -9.5,0 -0.54,0.03 -0.77,0.12 -1.45,0.11l-46.83 -0.11c-1.05,0 -1.74,-0.12 -2.68,-0.11l-4.25 0.01c-0.57,-0.02 -0.69,-0.12 -1.33,-0.12 -0.93,-0 -1.87,0 -2.8,0 -1.05,0 -1.64,-0.11 -2.68,-0.11 -2,0 -3.6,-0.12 -5.59,-0.11l-8.06 -0.32c-0.92,-0.1 -1.91,0.06 -2.82,-0.08 -1.61,-0.24 -3.74,0.02 -5.37,-0.22 -0.78,-0.12 -1.91,-0.06 -2.65,-0.14 -0.41,-0.04 -0.91,-0.01 -1.33,-0.01 -0.65,0 -0.76,-0.1 -1.33,-0.12 -1.87,-0.06 -3.52,-0.16 -5.37,-0.22 -0.56,-0.02 -0.62,-0.11 -1.22,-0.12 -0.55,-0.01 -0.88,0.02 -1.39,-0.06 -0.78,-0.12 -3.99,-0.17 -5.35,-0.35l-5.11 -0.48c-0.86,-0.1 -1.76,-0.24 -2.58,-0.33 -8.97,-1 -18.73,-3.8 -26.69,-7.06 -3.26,-1.34 -6.37,-2.96 -9.44,-4.64 -0.64,-0.35 -1.16,-0.66 -1.77,-1.02 -2.32,-1.4 -4.59,-2.9 -6.77,-4.52l-3.19 -2.51c-1.22,-1.09 -2.54,-2.08 -3.69,-3.24 -0.32,-0.32 -0.47,-0.39 -0.78,-0.67 -0.5,-0.44 -0.97,-0.97 -1.45,-1.45 -1.88,-1.88 -3.62,-3.91 -5.3,-5.99l-2.4 -3.18c-6,-8.81 -9.55,-15.97 -12.68,-26.78 -2.33,-8.06 -3.63,-16.44 -4.53,-24.87l-0.65 -7.85c-0.15,-1.79 -0.14,-5.17 -0.32,-6.83l-0.35 -13.73c0,-1.05 -0.12,-1.74 -0.11,-2.68 0.01,-1.97 -0.11,-3.53 -0.11,-5.48 0,-1.05 -0.12,-1.74 -0.11,-2.68 0,-0.93 0,-1.86 0,-2.8 0,-1.05 -0.12,-1.74 -0.11,-2.68l0 -14.2c0,-3.77 -0.11,-7.33 -0.11,-11.18 0,-15.1 -0.11,-29.9 -0.11,-45.05zm437.93 96.09l0 1.67 -0.67 10.89c0,0.99 -0.22,2.13 -0.22,3.13l-0.46 6.13c-0.09,0.89 -0.13,2.02 -0.27,2.97l-0.6 6c-0.84,8.8 -3.23,20.27 -6,28.76l-2.09 6.18c-0.86,2.4 -1.85,4.69 -2.82,7.02 -1.85,4.44 -4.17,9.02 -6.65,13.13l-3.86 6.2c-2.62,3.93 -5.41,7.73 -8.46,11.32 -1.5,1.76 -3,3.57 -4.63,5.2 -1.38,1.38 -3.5,3.88 -4.93,5.02l-2.56 2.36c-0.82,0.83 -1.76,1.52 -2.63,2.29l-3.63 2.97c-2.54,1.88 -5.02,3.78 -7.65,5.53 -5,3.34 -9.36,5.71 -14.73,8.4 -2.23,1.12 -4.5,2.17 -6.85,3.1 -14.98,5.92 -26.15,8.57 -42.18,10.68 -3.87,0.51 -8.04,0.87 -12,1.19 -1.04,0.08 -2.17,0.03 -3.17,0.18l-9.45 0.38c-0.56,0.03 -0.85,0.12 -1.56,0.11l-4.81 0.11c-13.1,-0.03 -26.25,0.34 -39.34,0.34 -8.88,0 -17.46,0.11 -26.27,0.11l-70.19 0.11c-4.29,0 -8.33,-0.11 -12.52,-0.11 -2.18,0 -4.06,-0.11 -6.15,-0.11l-4.7 0c-0.63,-0.01 -0.77,-0.12 -1.44,-0.12l-4.81 0.01c-0.67,-0 -0.81,-0.11 -1.44,-0.12 -1.04,-0.01 -2.1,0 -3.14,0.01l-15.06 -0.59c-0.71,-0.1 -2.23,-0.19 -3.05,-0.19 -1.28,0.01 -10.13,-0.74 -11.57,-0.94 -0.97,-0.13 -1.87,-0.21 -2.83,-0.3 -6.3,-0.6 -15.4,-2.12 -21.49,-3.54l-7.6 -1.9c-5.57,-1.42 -11.02,-3.47 -16.33,-5.58 -1.83,-0.73 -3.7,-1.5 -5.45,-2.38l-3.17 -1.53c-2.81,-1.41 -5.44,-2.85 -8.09,-4.43 -1.36,-0.81 -2.63,-1.58 -3.93,-2.45 -0.66,-0.44 -1.21,-0.81 -1.88,-1.25 -4.63,-3.09 -9.08,-6.55 -13.15,-10.32l-2.46 -2.23c-1.07,-1.07 -2.06,-2.06 -3.13,-3.13 -0.55,-0.55 -1.02,-1.02 -1.57,-1.56 -0.27,-0.27 -0.54,-0.5 -0.77,-0.79 -0.94,-1.18 -2.08,-2.16 -3,-3.37 -0.25,-0.33 -0.44,-0.49 -0.72,-0.85 -0.23,-0.29 -0.47,-0.58 -0.71,-0.86 -3.21,-3.68 -5.97,-7.73 -8.68,-11.78l-2.41 -3.85c-1.17,-1.95 -2.34,-3.99 -3.36,-6.03 -1.4,-2.81 -2.86,-5.65 -4.07,-8.56 -2.86,-6.86 -5.33,-13.81 -7.13,-21.04 -0.19,-0.78 -0.46,-1.73 -0.62,-2.51 -0.37,-1.74 -0.79,-3.39 -1.14,-5.12 -1.84,-9.22 -2.95,-18.3 -3.69,-27.72l-0.45 -8.94c-0.13,-2.43 -0.34,-5.04 -0.33,-7.49 0,-0.69 -0.1,-0.86 -0.12,-1.45l-0.28 -9.22c-0.15,-0.98 -0.03,-2.07 -0.04,-3.09 -0.01,-0.63 -0.12,-0.77 -0.12,-1.44l-0.11 -4.59c0.02,-4.14 -0.22,-8.19 -0.22,-12.3 0,-4.15 -0.11,-8.16 -0.11,-12.41 0,-2.06 -0.11,-3.98 -0.11,-6.15l0 -21.91c0,-4.66 0,-9.31 0,-13.97 0,-4.74 0.11,-9.22 0.11,-13.86l0.11 -47.17c0.02,-0.59 0.12,-0.84 0.12,-1.56l-0.01 -5.26c0.02,-0.59 0.12,-0.84 0.12,-1.56 -0.01,-2.45 0.12,-4.53 0.11,-6.93 -0,-1.16 0.11,-2.09 0.11,-3.35 -0,-4.15 0.46,-9.27 0.44,-13.42 -0,-0.74 0.12,-0.96 0.12,-1.67 0,-0.52 -0.04,-1.17 0,-1.67 0.08,-0.98 0.13,-2.39 0.21,-3.36 0.05,-0.56 -0.01,-1.21 0,-1.79 0.02,-0.59 0.12,-0.84 0.12,-1.56 -0.02,-3.84 0.48,-7.83 0.67,-11.63 0.02,-0.39 0.08,-1.06 0.14,-1.54 0.26,-2.02 0.4,-4.15 0.69,-6.24 0.58,-4.22 1.12,-8.07 1.92,-12.05 1.12,-5.62 2.41,-11.39 4.22,-16.79 0.75,-2.23 1.39,-4.36 2.23,-6.49 1.47,-3.74 2.96,-7.44 4.7,-11.06l3.5 -6.89c0.84,-1.52 1.65,-2.92 2.53,-4.4 1.73,-2.9 3.59,-5.69 5.51,-8.46l6.91 -8.85c1.39,-1.79 3.12,-3.32 4.57,-5.04l3.02 -3.02c0.41,-0.34 0.57,-0.47 0.94,-0.84l6.48 -5.7c3.25,-2.65 6.57,-5.02 10.08,-7.35l8.78 -5.19c0.79,-0.48 1.54,-0.77 2.33,-1.25 1.97,-1.18 7.15,-3.44 9.47,-4.39 3.32,-1.36 6.75,-2.66 10.17,-3.8l7.96 -2.43c8.34,-2.42 14.93,-3.4 23.37,-4.57 1.06,-0.15 2.14,-0.23 3.11,-0.35 0.52,-0.07 1.18,-0.12 1.65,-0.14 1.57,-0.07 3.15,-0.35 4.81,-0.33 0.74,0.01 0.96,-0.12 1.67,-0.12l3.36 -0.11c0.74,0 0.96,-0.12 1.67,-0.12l5.03 -0.22c0.54,-0.03 1.14,0.01 1.68,0 0.66,-0.01 0.92,-0.12 1.67,-0.12 0.54,0 1.12,0.04 1.65,-0.03 0.89,-0.12 2.44,-0.11 3.39,-0.19 0.53,-0.04 1.24,-0 1.78,-0 0.72,0 0.91,-0.11 1.56,-0.12 0.59,-0.01 1.21,0.03 1.8,0.01 0.59,-0.02 0.84,-0.12 1.56,-0.12 2.35,0.01 4.58,-0.23 6.82,-0.22l6.71 -0.22c1.11,-0.06 2.37,0.09 3.46,-0 1.05,-0.09 2.14,-0.11 3.36,-0.11 1.26,0 2.09,-0.11 3.35,-0.11 2.41,0 4.47,-0.11 6.82,-0.11 9.2,0 18.46,-0.22 27.72,-0.22 9.25,0 18.24,-0.11 27.4,-0.11l0.44 0 0.44 0c9.18,0 18.14,0.11 27.4,0.11 9.23,0 18.38,0.22 27.61,0.22 4.59,0 9.19,0.22 13.75,0.22 1.31,0 2.22,0.11 3.46,0.11l3.35 0.11c2.2,-0.01 4.49,0.23 6.71,0.22 1.85,-0.01 3.29,0.24 5.14,0.22l18.88 1.13c5.07,0.4 10.09,0.83 15.06,1.48 8.53,1.12 14.94,2.75 22.97,4.97 2.72,0.75 5.17,1.74 7.79,2.61l5.05 1.99c0.81,0.36 1.6,0.65 2.42,1.05 0.82,0.39 1.61,0.69 2.38,1.08 0.77,0.39 1.58,0.73 2.35,1.12 3.14,1.57 6.05,3.18 9.02,4.95 3.63,2.16 7.15,4.49 10.53,7.02l8.71 7.05c0.22,0.2 0.28,0.2 0.5,0.39 0.75,0.66 1.42,1.44 2.21,2.04 0.9,0.69 6,5.82 6.93,7.04 0.45,0.6 1.13,1.21 1.64,1.82 5.15,6.12 9.01,11.47 13.1,18.3 0.44,0.73 0.81,1.47 1.26,2.21 0.93,1.54 2.88,5.27 3.59,6.92 0.21,0.5 0.33,0.75 0.56,1.22 0.99,1.97 1.69,3.95 2.61,6 0.38,0.85 0.66,1.69 1.01,2.56 0.34,0.85 0.63,1.68 0.94,2.53 0.9,2.48 1.83,5.23 2.56,7.84 2.37,8.54 4.29,17.15 5.44,25.96 0.68,5.18 1.17,10.62 1.59,15.84 0.09,1.1 0.01,2.25 0.13,3.33l0.32 6.61c-0,0.75 0.11,1.01 0.12,1.67 0.01,0.54 -0.03,1.14 -0.01,1.68l0.11 181.18 0 0.08z"/>
   <path fill="#999999" d="M242.66 321.46c-8.51,0 -15.76,-0.93 -23.74,-3.19 -6.05,-1.71 -11.81,-4.31 -17.24,-7.35 -4.94,-2.76 -10.16,-6.49 -14.2,-10.39l-6.04 -6.14c-8.58,-9.66 -14.62,-21.36 -17.75,-33.89 -3.37,-13.47 -3.13,-28.7 0.97,-41.97 0.95,-3.07 1.97,-6.12 3.27,-9.03 2.61,-5.88 6.73,-13.26 10.95,-18.22 0.4,-0.47 0.71,-0.9 1.11,-1.35 0.41,-0.46 0.72,-0.86 1.12,-1.34 0.21,-0.25 0.39,-0.37 0.6,-0.62 1.46,-1.74 3.08,-3.43 4.75,-4.97l3.26 -2.89c0.48,-0.37 0.83,-0.7 1.28,-1.07l7.06 -5.12c2.05,-1.22 4.06,-2.55 6.22,-3.62 6.08,-3.03 11.03,-5.11 17.7,-6.78 5.53,-1.38 11.22,-2.35 17.21,-2.35 4.97,0 8.8,0.04 13.67,0.75 4.76,0.69 11.15,2.05 15.61,3.83l6.04 2.46c2.47,1.1 4.93,2.32 7.24,3.71 3.5,2.1 6.87,4.38 10.07,6.92 0.47,0.37 0.9,0.75 1.36,1.1 0.27,0.21 0.39,0.37 0.65,0.58l5.63 5.32 4 4.5c0.18,0.24 0.35,0.44 0.54,0.69l3.18 4.2c2.87,3.84 5.01,8.14 7.16,12.4 0.56,1.11 0.93,2.2 1.45,3.35 1.03,2.3 1.74,4.78 2.55,7.18 2,5.9 3.34,14.86 3.34,21.14 0,4.56 -0.12,8.36 -0.7,12.82 -1.05,8.01 -3.43,15.53 -6.68,22.83 -1.9,4.27 -4.5,8.71 -7.22,12.45l-2.09 2.83c-1.05,1.41 -2.25,2.68 -3.34,4.04 -1.65,2.06 -4.12,4.35 -6.1,6.19l-3.28 2.86c-0.24,0.19 -0.44,0.35 -0.68,0.55 -0.48,0.4 -0.87,0.7 -1.38,1.08l-8.86 5.9c-1.03,0.62 -2.09,1.18 -3.19,1.73 -0.58,0.29 -1.09,0.54 -1.64,0.82 -0.55,0.27 -1.13,0.51 -1.68,0.78 -1.09,0.54 -2.24,1.01 -3.43,1.49 -8.86,3.55 -19.02,5.78 -28.76,5.78zm-3.13 43.93l5.71 0c1.66,-0.02 3.73,-0.26 5.36,-0.34 6.26,-0.3 14.2,-1.68 20.01,-3.13 3.8,-0.95 8.23,-2.08 11.82,-3.5 0.48,-0.19 0.97,-0.35 1.39,-0.51l8.19 -3.32c0.56,-0.23 0.85,-0.42 1.37,-0.64 1.81,-0.77 3.36,-1.63 5.1,-2.5 0.48,-0.24 0.79,-0.39 1.24,-0.66l7.29 -4.22c4.78,-2.83 13.76,-9.52 17.5,-13.24l8.69 -8.63 3.6 -4.11c0.6,-0.69 1.12,-1.36 1.7,-2.1 0.6,-0.76 1.16,-1.43 1.72,-2.19 3.25,-4.34 6.59,-9.06 9.18,-13.84l1.36 -2.44c1.13,-1.86 3.08,-5.95 3.86,-7.77 0.39,-0.91 0.78,-1.71 1.17,-2.63 0.72,-1.76 1.56,-3.59 2.18,-5.42 1,-2.98 2.01,-5.68 2.88,-8.74 1.18,-4.17 2.15,-8.15 2.89,-12.42 0.77,-4.49 1.41,-9.04 1.65,-13.78 0.05,-1.06 0.23,-2.47 0.23,-3.58 -0.01,-1.29 -0.04,-2.7 0.1,-3.82l-0.32 -9.15c-0.02,-0.4 -0.09,-1.27 -0.16,-1.74 -0.28,-1.92 -0.44,-4.6 -0.78,-6.93 -1.53,-10.4 -4.24,-20.58 -8.27,-30.18 -0.39,-0.92 -0.77,-1.88 -1.18,-2.73 -0.42,-0.86 -0.75,-1.73 -1.19,-2.61 -1.28,-2.54 -2.46,-5.15 -3.93,-7.58l-2.86 -4.85c-0.51,-0.82 -0.99,-1.51 -1.5,-2.3 -1.73,-2.7 -3.64,-5.28 -5.56,-7.85 -1.48,-1.98 -3.07,-3.94 -4.72,-5.79 -0.21,-0.23 -0.28,-0.29 -0.47,-0.53l-7.02 -7.41c-0.24,-0.21 -0.32,-0.22 -0.56,-0.45 -0.34,-0.32 -0.62,-0.62 -0.95,-0.95l-6.13 -5.38c-3.24,-2.57 -6.49,-5.1 -9.93,-7.39 -3.21,-2.13 -6.31,-3.83 -9.55,-5.76 -2.31,-1.38 -6.48,-3.38 -9.07,-4.45 -0.46,-0.19 -0.85,-0.38 -1.31,-0.59 -6.03,-2.69 -12.35,-4.67 -18.76,-6.27 -8.8,-2.2 -17.87,-3.49 -27.25,-3.49l-7.38 -0c-1.66,0.02 -3.73,0.26 -5.36,0.34 -8.78,0.42 -20.23,2.81 -28.77,5.66 -3.79,1.27 -7.53,2.67 -11.14,4.29 -8.45,3.8 -14.45,7.34 -22.06,12.59 -2.23,1.54 -4.3,3.3 -6.44,4.96 -0.74,0.58 -1.4,1.18 -2.14,1.77 -0.2,0.16 -0.27,0.26 -0.46,0.44l-5.53 5.08c-1.08,1.08 -2.37,2.19 -3.35,3.36l-2.3 2.51c-0.22,0.23 -0.22,0.27 -0.4,0.49 -0.17,0.21 -0.3,0.31 -0.49,0.51 -2.59,2.66 -7.96,9.93 -10.01,13.02 -1.91,2.88 -3.74,5.86 -5.42,8.88l-1.01 1.9c-0.25,0.46 -0.42,0.73 -0.67,1.23 -0.24,0.49 -0.42,0.85 -0.67,1.34 -0.88,1.76 -1.65,3.41 -2.5,5.22l-1.14 2.66c-0.38,0.93 -0.74,1.73 -1.09,2.71l-1.54 4.16c-0.19,0.55 -0.35,0.93 -0.53,1.48 -0.64,1.92 -1.22,3.86 -1.81,5.9 -0.59,2.03 -1.1,4.03 -1.55,6.16 -0.94,4.41 -2.12,10.21 -2.43,14.79l-0.67 12.85c-0.01,2.69 0.15,6.4 0.43,9.07l0.5 5.32c0.27,2.2 0.63,4.43 0.99,6.61 1.03,6.28 2.7,12.36 4.69,18.33 1.24,3.72 2.67,7.51 4.38,11.04l2.46 5.14c0.45,0.89 0.86,1.64 1.3,2.5l5.79 9.63 3.15 4.56c1.56,2.22 3.37,4.34 5.04,6.47l1.75 2.06c1.24,1.3 2.4,2.75 3.69,4.02 1.22,1.21 2.4,2.67 3.8,3.91l1 0.89c1.11,1.11 2.21,2.19 3.45,3.15 1.22,0.94 2.41,2.13 3.69,3.13l6.61 5.01c3.69,2.76 7.71,5.15 11.73,7.38 0.87,0.48 1.7,0.86 2.54,1.37 0.78,0.47 1.72,0.88 2.52,1.28 8.08,4.04 16.63,7.06 25.39,9.26 4.13,1.03 8.34,1.8 12.88,2.43 1.18,0.17 2.23,0.28 3.41,0.39 3.57,0.34 7.37,0.66 10.96,0.66z"/>
   <path fill="#999999" d="M341.02 112.33c0,7.15 2.22,12.69 6.07,17.85 0.86,1.16 1.6,1.94 2.62,2.97 0.33,0.33 0.57,0.57 0.89,0.9 0.74,0.74 2.17,1.81 3.05,2.43 7.61,5.37 17.02,6.79 25.95,3.81 0.98,-0.33 1.74,-0.66 2.65,-1.04 1.61,-0.66 3.22,-1.7 4.62,-2.64 0.79,-0.53 2.28,-1.7 2.97,-2.4 0.38,-0.38 0.66,-0.54 1.01,-0.89 0.34,-0.34 0.47,-0.6 0.83,-0.96 0.78,-0.77 1.8,-2.15 2.45,-3.03 0.75,-1 2.12,-3.44 2.62,-4.65 1.23,-2.97 1.97,-5.22 2.36,-8.48 0.13,-1.06 0.18,-2.43 0.24,-3.45 0.02,-0.37 -0.1,-1.06 -0.1,-1.66 0.03,-2.94 -1.23,-7.89 -2.39,-10.36 -0.21,-0.45 -0.34,-0.77 -0.56,-1.23 -0.2,-0.43 -0.42,-0.74 -0.63,-1.15 -0.51,-0.98 -2.14,-3.44 -2.94,-4.33 -1.89,-2.11 -3.22,-3.58 -5.69,-5.26 -0.72,-0.48 -1.41,-0.97 -2.18,-1.4 -2.67,-1.48 -4.73,-2.29 -7.88,-3.07 -4.21,-1.05 -8.95,-1.02 -13.1,-0.07 -2.56,0.59 -5.68,1.68 -7.89,2.95 -1.53,0.88 -4.12,2.58 -5.29,3.77l-1.01 0.89c-1.08,1.04 -2.47,2.75 -3.34,3.93 -1.12,1.52 -1.83,2.94 -2.67,4.6 -1.65,3.26 -2.68,8.07 -2.68,11.96z"/>
  </g>
 </g>
</svg>
