<?xml version="1.0" encoding="UTF-8"?>
<!DOCTYPE svg PUBLIC "-//W3C//DTD SVG 1.1//EN" "http://www.w3.org/Graphics/SVG/1.1/DTD/svg11.dtd">
<!-- Creator: CorelDRAW 2021 (64-Bit) -->
<svg xmlns="http://www.w3.org/2000/svg" xml:space="preserve" width="12.4954mm" height="12.4954mm" version="1.1" shape-rendering="geometricPrecision" text-rendering="geometricPrecision" image-rendering="optimizeQuality" fill-rule="evenodd" clip-rule="evenodd"
viewBox="0 0 77.72 77.72"
 xmlns:xlink="http://www.w3.org/1999/xlink"
 xmlns:xodm="http://www.corel.com/coreldraw/odm/2003">
 <g id="Слой_x0020_1">
  <metadata id="CorelCorpID_0Corel-Layer"/>
  <path id="facebook-svgrepo-com.svg" fill="black" fill-rule="nonzero" d="M67.25 0l-56.77 0c-5.78,0 -10.47,4.69 -10.47,10.47l0 56.77c0,5.78 4.69,10.47 10.47,10.47 69.1,0 3.56,0 56.77,0 5.78,0 10.47,-4.69 10.47,-10.47l0 -56.77c0,-5.78 -4.69,-10.47 -10.47,-10.47z"/>
  <g id="_1874162132720">
   <path fill="white" fill-rule="nonzero" d="M38.29 21c-0.17,-0.09 -0.39,-0.22 -0.49,-0.3 -0.1,-0.08 -0.33,-0.21 -0.49,-0.29 -0.16,-0.08 -0.4,-0.22 -0.52,-0.32 -0.12,-0.09 -0.28,-0.19 -0.36,-0.22 -0.08,-0.02 -0.3,-0.15 -0.49,-0.29 -0.19,-0.13 -0.41,-0.26 -0.49,-0.29 -0.08,-0.02 -0.24,-0.11 -0.35,-0.2 -0.11,-0.09 -0.34,-0.23 -0.51,-0.32 -0.17,-0.09 -0.41,-0.23 -0.54,-0.32 -0.13,-0.09 -0.27,-0.17 -0.31,-0.17 -0.04,0 -0.15,-0.06 -0.24,-0.14 -0.09,-0.08 -0.2,-0.14 -0.23,-0.14 -0.04,0 -0.07,-0.02 -0.07,-0.05 0,-0.03 -0.15,-0.12 -0.33,-0.21 -0.18,-0.09 -0.41,-0.22 -0.51,-0.29 -0.09,-0.07 -0.31,-0.2 -0.48,-0.28 -0.17,-0.08 -0.42,-0.24 -0.57,-0.35 -0.15,-0.11 -0.31,-0.2 -0.35,-0.2 -0.13,0 -0.76,-0.47 -0.77,-0.57 -0.01,-0.2 0.02,-0.33 0.15,-0.5 0.07,-0.1 0.17,-0.28 0.21,-0.42 0.04,-0.13 0.09,-0.24 0.12,-0.24 0.04,0 0.28,-0.47 0.28,-0.56 0,-0.03 0.07,-0.14 0.14,-0.26 0.08,-0.12 0.14,-0.25 0.14,-0.29 0,-0.04 0.09,-0.22 0.2,-0.39 0.11,-0.17 0.2,-0.35 0.2,-0.39 0,-0.04 0.08,-0.18 0.17,-0.31 0.09,-0.13 0.17,-0.28 0.17,-0.33 0,-0.05 0.09,-0.23 0.2,-0.41 0.11,-0.17 0.2,-0.35 0.2,-0.39 0,-0.04 0.07,-0.19 0.16,-0.32 0.09,-0.13 0.2,-0.33 0.24,-0.44 0.04,-0.11 0.14,-0.28 0.21,-0.38 0.07,-0.09 0.15,-0.25 0.19,-0.35 0.03,-0.1 0.14,-0.29 0.24,-0.43 0.1,-0.13 0.18,-0.3 0.18,-0.36 0,-0.06 0.09,-0.23 0.2,-0.37 0.11,-0.15 0.2,-0.31 0.2,-0.37 0,-0.06 0.08,-0.22 0.19,-0.35 0.1,-0.14 0.22,-0.33 0.26,-0.42 0.04,-0.09 0.18,-0.32 0.3,-0.5 0.12,-0.18 0.26,-0.41 0.3,-0.52 0.05,-0.11 0.18,-0.3 0.3,-0.42 0.12,-0.13 0.25,-0.29 0.3,-0.36 0.22,-0.31 1.09,-0.55 1.58,-0.42 0.14,0.04 0.32,0.08 0.4,0.1 0.17,0.04 0.44,0.15 0.88,0.37 0.18,0.09 0.36,0.17 0.39,0.17 0.04,0 0.16,0.08 0.27,0.18 0.11,0.1 0.35,0.24 0.51,0.32 0.17,0.07 0.44,0.24 0.6,0.37 0.16,0.13 0.34,0.23 0.4,0.23 0.06,0 0.27,0.13 0.48,0.28 0.21,0.16 0.44,0.3 0.51,0.32 0.07,0.02 0.23,0.12 0.34,0.21 0.11,0.09 0.34,0.23 0.51,0.32 0.17,0.08 0.35,0.19 0.4,0.25 0.06,0.05 0.19,0.16 0.3,0.24 0.46,0.35 0.66,0.6 0.83,1.12 0.15,0.44 0.16,0.55 0.13,0.94 -0.02,0.24 -0.08,0.5 -0.12,0.57 -0.05,0.07 -0.09,0.18 -0.09,0.24 0,0.06 -0.09,0.23 -0.2,0.39 -0.11,0.16 -0.2,0.33 -0.2,0.38 0,0.05 -0.09,0.21 -0.19,0.35 -0.1,0.14 -0.26,0.39 -0.35,0.57 -0.21,0.43 -0.56,1.03 -0.7,1.24 -0.07,0.09 -0.15,0.25 -0.18,0.36 -0.03,0.1 -0.14,0.28 -0.23,0.4 -0.09,0.12 -0.2,0.3 -0.23,0.4 -0.03,0.1 -0.12,0.27 -0.2,0.38 -0.08,0.1 -0.19,0.31 -0.25,0.45 -0.06,0.14 -0.2,0.38 -0.3,0.51 -0.1,0.14 -0.18,0.28 -0.18,0.32 0,0.04 -0.09,0.2 -0.2,0.36 -0.11,0.16 -0.22,0.36 -0.24,0.43 -0.02,0.08 -0.08,0.19 -0.13,0.25 -0.15,0.17 -0.3,0.41 -0.3,0.5 0,0.04 -0.08,0.19 -0.18,0.33 -0.1,0.13 -0.23,0.37 -0.29,0.51 -0.06,0.15 -0.16,0.32 -0.22,0.38 -0.06,0.06 -0.17,0.26 -0.26,0.43 -0.21,0.44 -0.28,0.48 -0.65,0.29z"/>
   <path fill="white" fill-rule="nonzero" d="M39.69 35.36c-0.02,-0.03 -0.09,-0.06 -0.15,-0.06 -0.06,0 -0.21,-0.06 -0.33,-0.14 -0.12,-0.08 -0.25,-0.14 -0.29,-0.14 -0.09,0 -0.49,-0.27 -0.7,-0.47 -0.25,-0.24 -0.77,-0.63 -0.98,-0.74 -0.31,-0.16 -0.67,-0.52 -0.83,-0.84 -0.18,-0.35 -0.2,-0.34 0.71,-0.4 0.91,-0.05 2.03,-0.28 2.57,-0.52 0.09,-0.04 0.28,-0.12 0.4,-0.18 0.13,-0.05 0.3,-0.14 0.37,-0.18 0.08,-0.04 0.24,-0.12 0.36,-0.18 0.12,-0.06 0.32,-0.2 0.45,-0.32 0.13,-0.12 0.28,-0.21 0.32,-0.21 0.18,0 1.1,-1.04 1.33,-1.51 0.09,-0.18 0.18,-0.33 0.2,-0.33 0.02,0 0.08,-0.08 0.13,-0.19 0.05,-0.1 0.15,-0.3 0.21,-0.44 0.07,-0.14 0.12,-0.29 0.12,-0.35 0,-0.05 0.04,-0.15 0.09,-0.22 0.12,-0.17 0.22,-1 0.17,-1.43 -0.04,-0.42 -0.22,-1 -0.39,-1.25 -0.07,-0.1 -0.16,-0.27 -0.21,-0.36 -0.05,-0.09 -0.18,-0.28 -0.3,-0.42 -0.12,-0.13 -0.22,-0.27 -0.22,-0.3 0,-0.14 -1.39,-1.39 -1.55,-1.39 -0.11,0 -0.41,-0.3 -0.41,-0.4 0,-0.06 0.04,-0.14 0.08,-0.19 0.05,-0.05 0.15,-0.24 0.24,-0.42 0.09,-0.19 0.19,-0.37 0.23,-0.41 0.04,-0.04 0.14,-0.22 0.23,-0.4 0.09,-0.18 0.22,-0.4 0.29,-0.49 0.07,-0.09 0.14,-0.21 0.14,-0.27 0,-0.06 0.08,-0.21 0.18,-0.35 0.1,-0.14 0.23,-0.36 0.29,-0.49 0.06,-0.13 0.16,-0.31 0.23,-0.39 0.06,-0.08 0.17,-0.27 0.24,-0.42 0.06,-0.15 0.17,-0.32 0.23,-0.38 0.13,-0.13 0.29,-0.42 0.29,-0.53 0,-0.04 0.09,-0.21 0.2,-0.36 0.11,-0.16 0.2,-0.33 0.2,-0.39 0,-0.06 0.07,-0.2 0.16,-0.32 0.09,-0.12 0.24,-0.35 0.33,-0.53 0.09,-0.17 0.22,-0.39 0.29,-0.49 0.07,-0.09 0.18,-0.28 0.23,-0.42 0.05,-0.13 0.12,-0.25 0.14,-0.25 0.02,0 0.13,-0.12 0.23,-0.26 0.32,-0.44 1.11,-1.24 1.36,-1.36 0.13,-0.07 0.27,-0.15 0.31,-0.18 0.13,-0.11 0.59,-0.21 0.98,-0.21 0.48,-0 0.91,0.14 1.13,0.38 0.1,0.1 0.2,0.19 0.22,0.19 0.05,0 0.3,0.22 1.02,0.89 0.24,0.22 0.51,0.48 0.61,0.58 0.1,0.1 0.29,0.26 0.42,0.38 0.13,0.11 0.34,0.35 0.47,0.52 0.12,0.18 0.41,0.5 0.63,0.73 0.22,0.23 0.41,0.46 0.41,0.52 0,0.06 0.1,0.19 0.21,0.3 0.12,0.11 0.25,0.27 0.28,0.37 0.39,1.01 0.38,0.97 0.38,1.59 0,0.65 -0.06,1.02 -0.24,1.42 -0.06,0.14 -0.11,0.27 -0.11,0.3 0,0.08 -0.22,0.36 -0.69,0.88 -0.71,0.78 -0.73,0.8 -1.53,1.73 -0.29,0.33 -0.75,0.9 -1.03,1.27 -0.28,0.37 -0.6,0.77 -0.72,0.89 -0.12,0.13 -0.31,0.36 -0.44,0.52 -0.13,0.16 -0.36,0.43 -0.52,0.6 -0.16,0.17 -0.33,0.35 -0.38,0.4 -0.05,0.05 -0.16,0.18 -0.25,0.29 -0.09,0.11 -0.27,0.31 -0.39,0.44 -0.28,0.3 -1.16,1.4 -1.39,1.74 -0.1,0.14 -0.26,0.35 -0.36,0.46 -0.34,0.39 -0.7,0.78 -0.84,0.93 -0.08,0.08 -0.17,0.19 -0.2,0.24 -0.03,0.05 -0.14,0.19 -0.25,0.31 -0.91,1 -1.62,1.83 -1.96,2.3 -0.14,0.19 -0.33,0.43 -0.43,0.54 -0.23,0.25 -0.82,0.66 -1.07,0.75 -0.25,0.08 -1.07,0.09 -1.12,0.01z"/>
   <path fill="white" fill-rule="nonzero" d="M46.23 41.59c-0.4,-0.14 -0.71,-0.39 -1.59,-1.26 -1.08,-1.06 -1.39,-1.55 -1.49,-2.31 -0.05,-0.42 0.06,-1.06 0.27,-1.51 0.07,-0.15 0.13,-0.22 0.76,-0.95 0.73,-0.84 0.98,-1.15 1.24,-1.5 0.14,-0.19 0.32,-0.43 0.4,-0.52 0.08,-0.1 0.25,-0.3 0.38,-0.46 0.3,-0.37 1.06,-1.24 1.47,-1.67 0.34,-0.37 0.55,-0.62 0.87,-1.01 0.11,-0.13 0.29,-0.35 0.4,-0.48 0.11,-0.13 0.34,-0.43 0.51,-0.67 0.27,-0.37 0.94,-1.17 1.05,-1.27 0.03,-0.03 0.39,-0.43 0.66,-0.75 0.06,-0.08 0.44,-0.5 0.82,-0.94 0.39,-0.44 0.9,-1.06 1.14,-1.38 0.77,-1.02 1.38,-1.71 1.51,-1.71 0.05,0 0.13,-0.04 0.19,-0.09 0.15,-0.14 0.79,-0.18 1.01,-0.06 0.42,0.22 0.71,0.57 1.11,1.37 0.43,0.84 0.52,1.02 0.59,1.15 0.03,0.05 0.08,0.15 0.12,0.23 0.27,0.57 0.48,1 0.65,1.3 0.11,0.19 0.2,0.38 0.2,0.42 0,0.04 0.05,0.14 0.12,0.22 0.06,0.08 0.12,0.19 0.12,0.25 0,0.06 0.02,0.11 0.05,0.11 0.06,0 0.24,0.37 0.24,0.49 0,0.04 0.03,0.12 0.08,0.16 0.17,0.17 0.28,0.91 0.22,1.46 -0.05,0.48 -0.12,0.72 -0.3,1.07 -0.06,0.12 -0.11,0.25 -0.11,0.3 0,0.12 -0.49,0.65 -0.86,0.92 -0.18,0.13 -0.55,0.46 -0.82,0.73 -0.28,0.27 -0.6,0.57 -0.73,0.65 -0.12,0.09 -0.45,0.39 -0.72,0.67 -0.27,0.28 -0.6,0.58 -0.73,0.66 -0.13,0.08 -0.43,0.35 -0.68,0.61 -0.25,0.26 -0.61,0.58 -0.8,0.72 -0.19,0.14 -0.53,0.44 -0.76,0.67 -0.23,0.23 -0.49,0.48 -0.57,0.54 -0.29,0.21 -0.63,0.51 -1,0.91 -0.2,0.21 -0.5,0.48 -0.66,0.59 -0.16,0.11 -0.49,0.4 -0.73,0.65 -0.24,0.25 -0.57,0.56 -0.75,0.69 -0.17,0.13 -0.44,0.35 -0.59,0.49 -0.27,0.25 -0.54,0.41 -0.97,0.55 -0.29,0.09 -1.01,0.07 -1.32,-0.04z"/>
   <path fill="white" fill-rule="nonzero" d="M52.35 47.17c-0.49,-0.06 -0.77,-0.14 -1.28,-0.4 -0.65,-0.33 -1.78,-1.29 -1.78,-1.51 0,-0.04 -0.04,-0.15 -0.09,-0.25 -0.11,-0.21 -0.11,-0.79 -0.01,-0.99 0.04,-0.08 0.12,-0.23 0.16,-0.32 0.11,-0.25 0.55,-0.71 0.89,-0.93 0.16,-0.11 0.48,-0.4 0.71,-0.66 0.24,-0.26 0.56,-0.55 0.72,-0.66 0.16,-0.11 0.49,-0.4 0.73,-0.64 0.24,-0.24 0.57,-0.55 0.75,-0.68 0.17,-0.13 0.52,-0.45 0.78,-0.7 0.26,-0.26 0.62,-0.59 0.81,-0.73 0.19,-0.15 0.49,-0.42 0.66,-0.61 0.17,-0.19 0.51,-0.5 0.74,-0.67 0.23,-0.18 0.57,-0.49 0.75,-0.68 0.18,-0.19 0.52,-0.5 0.76,-0.68 0.24,-0.18 0.61,-0.51 0.82,-0.74 0.21,-0.22 0.48,-0.47 0.6,-0.55 0.12,-0.08 0.35,-0.27 0.51,-0.43 0.5,-0.48 1.2,-0.61 1.8,-0.33 0.33,0.16 0.91,0.8 0.97,1.08 0.02,0.09 0.06,0.18 0.08,0.19 0.02,0.02 0.16,0.26 0.3,0.55 0.14,0.29 0.27,0.52 0.29,0.52 0.02,0 0.05,0.04 0.05,0.09 0,0.05 0.06,0.21 0.13,0.36 0.29,0.59 0.33,0.71 0.48,1.4 0.08,0.38 -0.03,1.88 -0.16,2.16 -0.03,0.06 -0.09,0.27 -0.14,0.45 -0.05,0.19 -0.11,0.37 -0.14,0.4 -0.03,0.04 -0.11,0.21 -0.18,0.4 -0.07,0.18 -0.17,0.36 -0.21,0.39 -0.04,0.04 -0.08,0.12 -0.08,0.19 0,0.23 -1.5,1.94 -1.81,2.08 -0.1,0.04 -0.3,0.18 -0.46,0.31 -0.16,0.13 -0.32,0.24 -0.35,0.24 -0.03,0 -0.13,0.05 -0.2,0.1 -0.08,0.06 -0.38,0.2 -0.68,0.32 -0.3,0.12 -0.62,0.25 -0.71,0.3 -0.09,0.04 -0.19,0.08 -0.23,0.08 -0.06,0 -0.51,0.15 -1.08,0.37 -0.24,0.09 -0.26,0.1 -1.07,0.39 -0.99,0.35 -1.88,0.63 -2.15,0.69 -0.88,0.18 -0.95,0.19 -1.68,0.1z"/>
   <path fill="white" fill-rule="nonzero" d="M31.57 72.16c-0.06,-0.06 -0.05,-0.23 0.01,-0.35 0.03,-0.05 0.08,-0.22 0.12,-0.36 0.04,-0.14 0.09,-0.34 0.13,-0.43 0.18,-0.53 0.34,-1.1 0.34,-1.21 0,-0.07 0.04,-0.17 0.08,-0.24 0.04,-0.06 0.1,-0.25 0.12,-0.4 0.02,-0.16 0.07,-0.35 0.11,-0.43 0.1,-0.21 0.26,-0.72 0.26,-0.85 0,-0.06 0.02,-0.14 0.05,-0.17 0.03,-0.03 0.08,-0.17 0.12,-0.31 0.04,-0.14 0.12,-0.4 0.18,-0.58 0.11,-0.35 0.27,-0.88 0.43,-1.41 0.06,-0.19 0.13,-0.44 0.17,-0.55 0.04,-0.11 0.1,-0.32 0.14,-0.46 0.04,-0.14 0.09,-0.3 0.12,-0.36 0.03,-0.06 0.05,-0.15 0.05,-0.21 0,-0.06 0.04,-0.2 0.08,-0.3 0.12,-0.29 0.32,-0.99 0.32,-1.13 0,-0.07 0.02,-0.14 0.05,-0.15 0.05,-0.03 0.2,-0.49 0.36,-1.1 0.03,-0.13 0.08,-0.28 0.11,-0.33 0.03,-0.05 0.05,-0.15 0.05,-0.21 0,-0.06 0.04,-0.2 0.08,-0.3 0.05,-0.1 0.15,-0.42 0.24,-0.71 0.08,-0.29 0.2,-0.63 0.25,-0.78 0.06,-0.14 0.16,-0.49 0.24,-0.77 0.17,-0.61 0.24,-0.65 0.59,-0.37 0.13,0.11 0.36,0.26 0.51,0.35 0.29,0.17 0.53,0.38 0.76,0.68 0.28,0.37 0.33,0.03 0.1,-0.78 -0.42,-1.52 -0.49,-4.01 -0.15,-5.42 0.08,-0.32 0.17,-0.72 0.21,-0.9 0.07,-0.35 0.21,-0.8 0.32,-1.07 0.04,-0.1 0.12,-0.34 0.17,-0.55 0.05,-0.21 0.12,-0.4 0.15,-0.43 0.03,-0.03 0.05,-0.13 0.05,-0.22 0,-0.09 0.02,-0.21 0.05,-0.26 0.08,-0.15 0.19,-0.56 0.17,-0.62 -0.01,-0.03 0.01,-0.13 0.05,-0.23 0.09,-0.23 0.24,-1.08 0.31,-1.79 0.08,-0.88 0.17,-1.37 0.28,-1.56 0.12,-0.21 0.2,-0.52 0.18,-0.67 -0.01,-0.06 0.01,-0.13 0.04,-0.17 0.07,-0.08 -0.02,-1.3 -0.1,-1.46 -0.03,-0.06 -0.08,-0.23 -0.12,-0.39 -0.04,-0.16 -0.11,-0.34 -0.17,-0.4 -0.06,-0.06 -0.12,-0.18 -0.14,-0.26 -0.02,-0.08 -0.07,-0.33 -0.12,-0.55 -0.05,-0.22 -0.12,-0.51 -0.15,-0.63 -0.22,-0.78 -0.3,-1.05 -0.38,-1.2 -0.05,-0.09 -0.08,-0.2 -0.08,-0.24 0,-0.16 -0.66,-1.55 -0.79,-1.65 -0.06,-0.05 -0.06,-0.09 -0.02,-0.14 0.14,-0.17 0.62,0.16 1.73,1.21 0.24,0.22 0.65,0.59 0.92,0.82 0.74,0.63 3.59,3.49 3.77,3.8 0.06,0.09 0.31,0.38 0.55,0.63 0.24,0.25 0.51,0.56 0.59,0.68 0.08,0.12 0.28,0.37 0.45,0.55 0.17,0.18 0.38,0.43 0.46,0.56 0.08,0.13 0.25,0.33 0.37,0.46 0.12,0.13 0.31,0.36 0.43,0.52 0.41,0.55 1.5,1.51 2.1,1.84 0.15,0.08 0.37,0.23 0.49,0.32 0.12,0.09 0.3,0.2 0.41,0.24 0.11,0.04 0.24,0.1 0.28,0.14 0.09,0.07 0.6,0.26 0.82,0.31 0.08,0.02 0.2,0.06 0.26,0.1 0.06,0.04 0.25,0.09 0.4,0.11 0.16,0.02 0.33,0.06 0.39,0.09 0.05,0.03 0.47,0.05 0.93,0.06 0.81,0 1.38,-0.06 1.85,-0.21 0.79,-0.26 1.88,-0.67 1.96,-0.73 0.03,-0.03 0.1,-0.05 0.16,-0.05 0.11,0 0.55,-0.16 1.28,-0.47 0.81,-0.34 0.93,-0.17 0.38,0.53 -0.19,0.24 -0.41,0.56 -0.5,0.72 -0.08,0.16 -0.29,0.45 -0.46,0.66 -0.17,0.2 -0.33,0.44 -0.34,0.52 -0.02,0.08 -0.17,0.32 -0.35,0.52 -0.17,0.2 -0.37,0.48 -0.43,0.6 -0.14,0.3 -0.26,0.47 -0.53,0.79 -0.12,0.14 -0.22,0.28 -0.22,0.31 0,0.08 -0.33,0.58 -0.58,0.89 -0.12,0.14 -0.25,0.36 -0.31,0.49 -0.05,0.12 -0.11,0.24 -0.14,0.26 -0.12,0.09 -0.48,0.59 -0.62,0.87 -0.09,0.17 -0.19,0.34 -0.24,0.36 -0.04,0.03 -0.08,0.07 -0.08,0.1 0,0.03 -0.08,0.14 -0.17,0.24 -0.29,0.32 -0.4,0.45 -0.6,0.72 -0.45,0.62 -0.82,1.03 -1.76,1.94 -0.55,0.54 -1.08,1.03 -1.18,1.09 -0.1,0.06 -0.32,0.24 -0.49,0.39 -0.17,0.15 -0.34,0.28 -0.39,0.28 -0.04,0 -0.17,0.08 -0.28,0.17 -0.19,0.17 -0.47,0.34 -0.97,0.58 -0.12,0.06 -0.23,0.13 -0.25,0.16 -0.02,0.03 -0.09,0.06 -0.16,0.06 -0.07,0 -0.18,0.03 -0.24,0.07 -0.06,0.04 -0.23,0.11 -0.37,0.15 -0.14,0.04 -0.32,0.1 -0.4,0.12 -0.29,0.09 -0.79,0.18 -1.34,0.22 -0.44,0.03 -0.59,0.07 -0.68,0.15 -0.09,0.09 -0.25,0.55 -0.52,1.55 -0.03,0.13 -0.09,0.29 -0.12,0.36 -0.03,0.07 -0.05,0.18 -0.05,0.25 0,0.06 -0.02,0.16 -0.05,0.21 -0.03,0.06 -0.13,0.39 -0.23,0.73 -0.1,0.35 -0.2,0.67 -0.23,0.72 -0.03,0.05 -0.07,0.23 -0.09,0.4 -0.02,0.17 -0.06,0.34 -0.09,0.37 -0.02,0.03 -0.06,0.14 -0.07,0.23 -0.02,0.1 -0.06,0.26 -0.09,0.38 -0.16,0.54 -0.64,2.37 -0.7,2.68 -0.03,0.13 -0.09,0.35 -0.13,0.49 -0.05,0.14 -0.1,0.38 -0.12,0.52 -0.02,0.14 -0.06,0.31 -0.08,0.38 -0.03,0.06 -0.09,0.27 -0.13,0.46l-0.08 0.35 -5.02 0.01c-2.76,0.01 -5.03,-0 -5.06,-0.02z"/>
   <path fill="white" fill-rule="nonzero" d="M27.61 27c0,-0.07 -0.02,-0.1 -0.06,-0.08 -0.03,0.02 -0.06,0.07 -0.06,0.12 0,0.05 0.03,0.08 0.06,0.08 0.03,0 0.06,-0.05 0.06,-0.12z"/>
   <path fill="white" fill-rule="nonzero" d="M15.05 72c-0.13,-0.11 -0.26,-0.2 -0.28,-0.2 -0.08,-0 -0.76,-0.68 -0.76,-0.76 0,-0.05 0.04,-0.14 0.08,-0.2 0.05,-0.06 0.08,-0.16 0.09,-0.23 0,-0.07 0.07,-0.21 0.15,-0.31 0.08,-0.11 0.14,-0.22 0.14,-0.26 0,-0.03 0.09,-0.25 0.2,-0.48 0.11,-0.23 0.2,-0.44 0.2,-0.47 0,-0.03 0.04,-0.08 0.09,-0.12 0.05,-0.04 0.09,-0.13 0.09,-0.19 0,-0.07 0.08,-0.25 0.17,-0.41 0.09,-0.16 0.17,-0.34 0.17,-0.41 0,-0.07 0.04,-0.15 0.08,-0.19 0.04,-0.04 0.11,-0.18 0.15,-0.32 0.04,-0.14 0.11,-0.29 0.15,-0.32 0.04,-0.04 0.08,-0.11 0.08,-0.17 0,-0.06 0.08,-0.23 0.17,-0.38 0.1,-0.15 0.17,-0.29 0.17,-0.32 0,-0.06 0.25,-0.62 0.41,-0.92 0.06,-0.12 0.11,-0.25 0.11,-0.29 0,-0.04 0.06,-0.2 0.14,-0.35 0.08,-0.15 0.14,-0.31 0.14,-0.35 0,-0.04 0.05,-0.15 0.11,-0.23 0.06,-0.08 0.12,-0.19 0.12,-0.25 0,-0.06 0.05,-0.19 0.11,-0.29 0.06,-0.1 0.12,-0.24 0.12,-0.3 0,-0.06 0.06,-0.21 0.14,-0.32 0.08,-0.12 0.14,-0.24 0.14,-0.28 0,-0.07 0.23,-0.62 0.37,-0.89 0.04,-0.08 0.09,-0.23 0.11,-0.33 0.02,-0.1 0.08,-0.21 0.12,-0.25 0.04,-0.04 0.08,-0.11 0.08,-0.15 0,-0.04 0.05,-0.19 0.12,-0.32 0.06,-0.13 0.11,-0.27 0.11,-0.32 0,-0.04 0.05,-0.17 0.12,-0.29 0.06,-0.12 0.11,-0.27 0.11,-0.33 0,-0.06 0.04,-0.15 0.08,-0.2 0.08,-0.09 0.23,-0.45 0.32,-0.78 0.02,-0.09 0.09,-0.25 0.14,-0.35 0.05,-0.09 0.12,-0.24 0.15,-0.32 0.03,-0.08 0.08,-0.18 0.11,-0.23 0.05,-0.08 0.14,-0.39 0.22,-0.75 0.02,-0.08 0.06,-0.18 0.1,-0.23 0.04,-0.05 0.13,-0.27 0.2,-0.49 0.07,-0.22 0.18,-0.51 0.24,-0.64 0.06,-0.13 0.11,-0.26 0.11,-0.3 0,-0.03 0.03,-0.14 0.08,-0.23 0.1,-0.19 0.2,-0.49 0.27,-0.76 0.03,-0.11 0.08,-0.22 0.11,-0.26 0.03,-0.03 0.06,-0.11 0.06,-0.17 0,-0.06 0.08,-0.33 0.17,-0.61 0.35,-1.05 0.28,-1.84 -0.34,-3.79 -0.03,-0.1 -0.06,-0.23 -0.06,-0.29 0,-0.06 -0.04,-0.16 -0.08,-0.23 -0.05,-0.06 -0.08,-0.16 -0.09,-0.22 0,-0.06 -0.05,-0.26 -0.11,-0.43 -0.06,-0.18 -0.13,-0.43 -0.17,-0.55 -0.03,-0.13 -0.1,-0.37 -0.15,-0.53 -0.05,-0.16 -0.09,-0.34 -0.09,-0.39 0,-0.05 -0.02,-0.14 -0.05,-0.19 -0.15,-0.29 -0.24,-0.55 -0.21,-0.59 0.02,-0.03 -0,-0.13 -0.05,-0.21 -0.05,-0.09 -0.13,-0.33 -0.17,-0.53 -0.2,-0.84 -0.29,-1.13 -0.36,-1.28 -0.04,-0.08 -0.08,-0.21 -0.08,-0.27 0,-0.06 -0.02,-0.13 -0.06,-0.15 -0.03,-0.02 -0.06,-0.11 -0.06,-0.2 0,-0.09 -0.05,-0.29 -0.11,-0.43 -0.06,-0.15 -0.13,-0.37 -0.15,-0.5 -0.02,-0.12 -0.06,-0.24 -0.09,-0.26 -0.03,-0.02 -0.05,-0.09 -0.05,-0.17 0,-0.08 -0.02,-0.2 -0.05,-0.27 -0.1,-0.26 -0.34,-1.06 -0.41,-1.37 -0.04,-0.17 -0.11,-0.4 -0.15,-0.5 -0.04,-0.1 -0.08,-0.22 -0.08,-0.26 0,-0.09 -0.21,-0.78 -0.29,-0.91 -0.02,-0.05 -0.07,-0.21 -0.09,-0.35 -0.02,-0.14 -0.06,-0.28 -0.08,-0.31 -0.02,-0.03 -0.07,-0.19 -0.11,-0.35 -0.04,-0.16 -0.09,-0.34 -0.12,-0.4 -0.03,-0.06 -0.06,-0.18 -0.08,-0.26 -0.01,-0.08 -0.07,-0.29 -0.12,-0.46 -0.05,-0.17 -0.12,-0.41 -0.14,-0.52 -0.02,-0.11 -0.13,-0.43 -0.23,-0.7 -0.1,-0.28 -0.18,-0.55 -0.18,-0.61 0,-0.06 -0.02,-0.13 -0.04,-0.15 -0.02,-0.02 -0.07,-0.16 -0.11,-0.31 -0.03,-0.15 -0.13,-0.45 -0.21,-0.67 -0.14,-0.39 -0.26,-0.77 -0.39,-1.27 -0.03,-0.13 -0.1,-0.32 -0.14,-0.43 -0.04,-0.11 -0.11,-0.33 -0.15,-0.48 -0.04,-0.15 -0.09,-0.29 -0.12,-0.31 -0.03,-0.02 -0.05,-0.1 -0.05,-0.19 0,-0.09 -0.03,-0.18 -0.06,-0.22 -0.03,-0.03 -0.08,-0.17 -0.11,-0.31 -0.03,-0.14 -0.13,-0.48 -0.22,-0.75 -0.26,-0.76 -0.33,-1.13 -0.33,-1.82 0,-0.74 0.13,-1.69 0.24,-1.82 0.04,-0.05 0.08,-0.14 0.08,-0.19 0,-0.05 0.04,-0.18 0.1,-0.28 0.05,-0.1 0.11,-0.25 0.13,-0.34 0.02,-0.08 0.16,-0.32 0.32,-0.51 0.42,-0.53 1.57,-1.66 1.68,-1.66 0.05,0 0.24,-0.15 0.42,-0.34 0.18,-0.18 0.41,-0.39 0.52,-0.45 0.11,-0.06 0.35,-0.26 0.54,-0.43 0.19,-0.18 0.43,-0.37 0.54,-0.42 0.11,-0.05 0.3,-0.22 0.43,-0.36 0.13,-0.14 0.32,-0.3 0.43,-0.34 0.11,-0.05 0.37,-0.25 0.59,-0.45 0.22,-0.2 0.42,-0.37 0.45,-0.37 0.03,0 0.23,-0.16 0.45,-0.36 0.22,-0.2 0.5,-0.42 0.62,-0.5 0.13,-0.08 0.33,-0.25 0.46,-0.38 0.13,-0.13 0.35,-0.31 0.49,-0.4 0.14,-0.09 0.38,-0.27 0.52,-0.4 0.14,-0.13 0.39,-0.33 0.54,-0.44 0.15,-0.11 0.41,-0.32 0.58,-0.47 0.16,-0.15 0.33,-0.27 0.36,-0.28 0.04,0 0.13,-0.05 0.22,-0.12 0.31,-0.24 0.84,-0.4 1.36,-0.41 0.49,-0.01 0.71,0.04 1.2,0.25 0.14,0.06 0.29,0.11 0.33,0.11 0.05,0 0.22,0.1 0.38,0.23 0.16,0.13 0.39,0.27 0.49,0.32 0.11,0.04 0.29,0.16 0.41,0.25 0.12,0.09 0.35,0.23 0.51,0.32 0.16,0.08 0.37,0.21 0.45,0.29 0.09,0.08 0.31,0.22 0.51,0.31 0.2,0.09 0.45,0.25 0.56,0.35 0.11,0.1 0.27,0.2 0.36,0.22 0.09,0.02 0.33,0.17 0.54,0.32 0.21,0.15 0.42,0.28 0.47,0.28 0.05,0 0.24,0.12 0.42,0.26 0.18,0.14 0.42,0.29 0.52,0.33 0.1,0.03 0.33,0.17 0.51,0.3 0.17,0.13 0.39,0.27 0.49,0.31 0.09,0.04 0.26,0.15 0.37,0.23 0.11,0.09 0.34,0.22 0.5,0.29 0.16,0.07 0.39,0.22 0.52,0.32 0.13,0.1 0.33,0.22 0.45,0.26 0.12,0.04 0.35,0.18 0.51,0.31 0.16,0.13 0.39,0.27 0.5,0.31 0.12,0.04 0.32,0.16 0.45,0.26 0.13,0.1 0.31,0.2 0.4,0.23 0.09,0.02 0.26,0.12 0.38,0.2 0.11,0.09 0.35,0.24 0.52,0.33 0.32,0.17 1.34,1.02 1.94,1.63 0.2,0.2 0.42,0.51 0.55,0.76 0.2,0.39 0.22,0.47 0.22,0.91 0,0.46 -0.01,0.51 -0.29,1.08 -0.16,0.33 -0.29,0.62 -0.29,0.65 0,0.02 -0.12,0.18 -0.27,0.34 -0.15,0.16 -0.37,0.41 -0.48,0.55 -0.11,0.14 -0.31,0.3 -0.43,0.37 -0.12,0.06 -0.31,0.18 -0.42,0.26 -0.21,0.16 -0.97,0.51 -1.09,0.51 -0.04,0 -0.13,0.03 -0.2,0.07 -0.07,0.04 -0.31,0.07 -0.53,0.08 -0.23,0.01 -0.48,0.05 -0.58,0.1 -0.22,0.12 -0.32,0.12 -1.87,0.12 -0.81,-0 -1.41,-0.03 -1.58,-0.07 -0.31,-0.08 -0.7,-0.13 -0.98,-0.13 -0.09,0 -0.2,-0.02 -0.23,-0.05 -0.05,-0.04 -0.35,-0.11 -0.64,-0.15 -0.06,-0.01 -0.22,-0.05 -0.35,-0.08 -0.13,-0.04 -0.32,-0.08 -0.42,-0.1 -0.1,-0.01 -0.2,-0.05 -0.22,-0.08 -0.02,-0.03 -0.09,-0.05 -0.17,-0.05 -0.08,0 -0.2,-0.02 -0.27,-0.05 -0.07,-0.03 -0.29,-0.1 -0.48,-0.15 -0.54,-0.16 -1.12,-0.38 -1.16,-0.43 -0.02,-0.03 -0.08,-0.05 -0.14,-0.05 -0.14,0 -0.6,-0.41 -0.76,-0.68 -0.07,-0.12 -0.2,-0.3 -0.29,-0.41 -0.09,-0.11 -0.16,-0.24 -0.16,-0.29 0,-0.05 -0.05,-0.18 -0.11,-0.29 -0.06,-0.11 -0.13,-0.3 -0.15,-0.42 -0.04,-0.24 -0.12,-0.28 -0.17,-0.09 -0.05,0.21 0.05,1.2 0.16,1.48 0.05,0.14 0.11,0.39 0.13,0.56l0.04 0.31 -0.31 0c-0.17,0 -0.44,-0.04 -0.6,-0.08 -0.34,-0.1 -1.7,-0.09 -2.26,0.01 -0.39,0.07 -1.02,0.36 -0.95,0.43 0.03,0.02 0.37,0.06 0.76,0.08 0.39,0.02 0.81,0.05 0.92,0.08 0.11,0.02 0.25,0.05 0.32,0.05 0.23,0.01 0.84,0.13 0.94,0.18 0.05,0.03 0.25,0.07 0.43,0.09 0.18,0.02 0.36,0.08 0.39,0.12 0.04,0.04 0.12,0.08 0.19,0.08 0.14,0 0.79,0.22 0.87,0.3 0.03,0.03 0.11,0.05 0.19,0.05 0.07,0 0.13,0.02 0.13,0.05 0,0.06 0.38,0.24 0.51,0.24 0.05,0 0.19,0.08 0.3,0.17 0.11,0.09 0.29,0.2 0.4,0.24 0.11,0.03 0.35,0.17 0.52,0.31 0.18,0.14 0.44,0.3 0.58,0.37 0.48,0.23 3.22,2.7 3.54,3.21 0.1,0.16 0.28,0.38 0.39,0.5 0.12,0.12 0.21,0.25 0.21,0.29 0,0.04 0.1,0.2 0.23,0.36 0.12,0.15 0.24,0.33 0.27,0.4 0.02,0.07 0.08,0.18 0.14,0.24 0.06,0.06 0.12,0.18 0.14,0.26 0.02,0.08 0.1,0.23 0.18,0.33 0.08,0.1 0.14,0.21 0.14,0.24 0,0.03 0.08,0.21 0.17,0.39 0.19,0.38 0.76,2.03 0.73,2.09 -0.01,0.02 0.02,0.15 0.07,0.29 0.05,0.14 0.11,0.46 0.13,0.72 0.02,0.25 0.08,0.56 0.11,0.69 0.08,0.28 0.12,2.51 0.04,2.97 -0.03,0.18 -0.06,0.41 -0.06,0.52 -0.01,0.11 -0.03,0.23 -0.05,0.26 -0.02,0.03 -0.05,0.24 -0.07,0.46 -0.07,0.68 -0.41,2.19 -0.55,2.45 -0.03,0.06 -0.05,0.16 -0.05,0.22 0,0.07 -0.02,0.17 -0.05,0.22 -0.03,0.05 -0.08,0.22 -0.12,0.36 -0.04,0.14 -0.12,0.37 -0.18,0.51 -0.06,0.14 -0.11,0.29 -0.11,0.35 0,0.05 -0.04,0.15 -0.09,0.21 -0.05,0.06 -0.08,0.15 -0.08,0.2 0,0.05 -0.05,0.19 -0.11,0.31 -0.06,0.12 -0.12,0.26 -0.12,0.32 -0,0.06 -0.04,0.15 -0.09,0.21 -0.05,0.06 -0.11,0.21 -0.14,0.33 -0.03,0.12 -0.12,0.29 -0.19,0.38 -0.07,0.09 -0.19,0.28 -0.27,0.43 -0.16,0.31 -0.95,1.2 -1.07,1.2 -0.04,0 -0.19,0.1 -0.32,0.22 -0.26,0.24 -0.57,0.43 -1.17,0.71 -0.22,0.11 -0.55,0.32 -0.72,0.48 -0.17,0.15 -0.38,0.31 -0.45,0.34 -0.28,0.13 -0.1,0.16 0.84,0.12 0.66,-0.03 1.04,-0.02 1.2,0.03l0.24 0.07 -0.03 0.24c-0.02,0.13 -0.06,0.3 -0.1,0.36 -0.04,0.06 -0.09,0.2 -0.11,0.31 -0.02,0.11 -0.06,0.24 -0.09,0.29 -0.02,0.05 -0.08,0.2 -0.12,0.35 -0.04,0.14 -0.14,0.47 -0.23,0.72 -0.09,0.25 -0.27,0.81 -0.4,1.24 -0.13,0.43 -0.26,0.83 -0.29,0.89 -0.02,0.06 -0.13,0.39 -0.23,0.72 -0.1,0.33 -0.21,0.65 -0.24,0.71 -0.03,0.05 -0.05,0.16 -0.05,0.23 0,0.07 -0.04,0.18 -0.08,0.25 -0.05,0.06 -0.09,0.15 -0.09,0.2 -0,0.05 -0.13,0.48 -0.3,0.95 -0.16,0.47 -0.31,0.94 -0.32,1.05 -0.02,0.1 -0.05,0.2 -0.08,0.22 -0.03,0.02 -0.05,0.08 -0.05,0.14 0,0.06 -0.04,0.18 -0.08,0.27 -0.05,0.09 -0.13,0.33 -0.18,0.54 -0.06,0.21 -0.14,0.43 -0.18,0.5 -0.04,0.07 -0.06,0.13 -0.04,0.15 0.03,0.03 -0.37,1.34 -0.52,1.69 -0.07,0.16 -0.17,0.5 -0.34,1.07 -0.03,0.11 -0.08,0.25 -0.1,0.32 -0.1,0.24 -0.24,0.64 -0.26,0.78 -0.02,0.08 -0.05,0.2 -0.07,0.26 -0.1,0.25 -0.18,0.53 -0.18,0.64 0,0.06 -0.03,0.14 -0.06,0.17 -0.03,0.03 -0.09,0.17 -0.13,0.32l-0.07 0.26 -6.75 0.01 -6.75 0.01 -0.24 -0.2z"/>
  </g>
 </g>
</svg>
