<?xml version="1.0" encoding="UTF-8"?>
<!DOCTYPE svg PUBLIC "-//W3C//DTD SVG 1.1//EN" "http://www.w3.org/Graphics/SVG/1.1/DTD/svg11.dtd">
<!-- Creator: CorelDRAW 2021 (64-Bit) -->
<svg xmlns="http://www.w3.org/2000/svg" xml:space="preserve" width="12mm" height="12mm" version="1.1" shape-rendering="geometricPrecision" text-rendering="geometricPrecision" image-rendering="optimizeQuality" fill-rule="evenodd" clip-rule="evenodd"
viewBox="0 0 56.49 56.49"
 xmlns:xlink="http://www.w3.org/1999/xlink"
 xmlns:xodm="http://www.corel.com/coreldraw/odm/2003">
 <g id="Слой_x0020_1">
  <metadata id="CorelCorpID_0Corel-Layer"/>
  <rect fill="none" x="-0" y="-0" width="56.49" height="56.49"/>
  <g id="_2194009989312">
   <path fill="black" fill-rule="nonzero" d="M27.86 14.48c-0.13,-0.07 -0.29,-0.17 -0.37,-0.23 -0.08,-0.06 -0.25,-0.16 -0.37,-0.22 -0.12,-0.06 -0.3,-0.17 -0.39,-0.24 -0.09,-0.07 -0.21,-0.14 -0.27,-0.16 -0.06,-0.02 -0.23,-0.12 -0.37,-0.22 -0.14,-0.1 -0.31,-0.2 -0.37,-0.22 -0.06,-0.02 -0.18,-0.09 -0.26,-0.15 -0.08,-0.07 -0.26,-0.17 -0.39,-0.24 -0.13,-0.06 -0.31,-0.17 -0.41,-0.24 -0.1,-0.07 -0.2,-0.13 -0.23,-0.13 -0.03,0 -0.11,-0.05 -0.18,-0.11 -0.07,-0.06 -0.15,-0.11 -0.18,-0.11 -0.03,0 -0.05,-0.02 -0.05,-0.04 0,-0.02 -0.11,-0.09 -0.25,-0.16 -0.14,-0.07 -0.31,-0.17 -0.38,-0.22 -0.07,-0.05 -0.23,-0.15 -0.36,-0.21 -0.13,-0.06 -0.32,-0.18 -0.43,-0.27 -0.11,-0.08 -0.23,-0.15 -0.27,-0.15 -0.1,0 -0.58,-0.35 -0.58,-0.43 -0.01,-0.15 0.02,-0.25 0.11,-0.38 0.06,-0.07 0.13,-0.22 0.16,-0.32 0.03,-0.1 0.07,-0.18 0.09,-0.18 0.03,0 0.21,-0.35 0.21,-0.42 0,-0.02 0.05,-0.11 0.11,-0.2 0.06,-0.09 0.11,-0.19 0.11,-0.22 0,-0.03 0.07,-0.17 0.15,-0.3 0.08,-0.13 0.15,-0.26 0.15,-0.29 0,-0.03 0.06,-0.14 0.13,-0.24 0.07,-0.1 0.13,-0.21 0.13,-0.25 0,-0.04 0.07,-0.18 0.15,-0.31 0.08,-0.13 0.15,-0.26 0.15,-0.3 0,-0.03 0.06,-0.14 0.12,-0.24 0.07,-0.1 0.15,-0.25 0.18,-0.33 0.03,-0.08 0.1,-0.21 0.16,-0.28 0.05,-0.07 0.12,-0.19 0.14,-0.27 0.02,-0.08 0.11,-0.22 0.18,-0.32 0.07,-0.1 0.13,-0.22 0.13,-0.27 0,-0.05 0.07,-0.17 0.15,-0.28 0.08,-0.11 0.15,-0.24 0.15,-0.28 0,-0.04 0.06,-0.16 0.14,-0.27 0.08,-0.1 0.17,-0.25 0.2,-0.32 0.03,-0.07 0.13,-0.24 0.23,-0.38 0.09,-0.14 0.2,-0.31 0.23,-0.39 0.04,-0.08 0.14,-0.22 0.22,-0.32 0.09,-0.1 0.19,-0.22 0.23,-0.27 0.16,-0.24 0.82,-0.41 1.19,-0.32 0.11,0.03 0.25,0.06 0.31,0.07 0.13,0.03 0.33,0.11 0.66,0.28 0.14,0.07 0.27,0.13 0.3,0.13 0.03,0 0.12,0.06 0.21,0.14 0.09,0.08 0.26,0.18 0.39,0.24 0.13,0.06 0.33,0.18 0.45,0.28 0.12,0.1 0.26,0.17 0.3,0.17 0.04,0 0.21,0.1 0.36,0.21 0.16,0.12 0.33,0.23 0.39,0.25 0.06,0.02 0.17,0.09 0.26,0.16 0.09,0.07 0.26,0.17 0.39,0.24 0.13,0.06 0.26,0.15 0.31,0.19 0.04,0.04 0.14,0.12 0.22,0.18 0.35,0.26 0.5,0.46 0.62,0.85 0.11,0.33 0.12,0.41 0.1,0.71 -0.02,0.18 -0.06,0.38 -0.09,0.43 -0.04,0.05 -0.07,0.14 -0.07,0.18 0,0.04 -0.07,0.18 -0.15,0.3 -0.08,0.12 -0.15,0.25 -0.15,0.29 0,0.04 -0.07,0.16 -0.15,0.26 -0.08,0.11 -0.2,0.3 -0.26,0.43 -0.16,0.32 -0.42,0.78 -0.53,0.94 -0.05,0.07 -0.11,0.19 -0.14,0.27 -0.03,0.08 -0.11,0.22 -0.17,0.31 -0.07,0.09 -0.15,0.23 -0.18,0.31 -0.03,0.08 -0.09,0.21 -0.15,0.28 -0.06,0.08 -0.15,0.23 -0.19,0.34 -0.05,0.11 -0.15,0.28 -0.22,0.39 -0.08,0.1 -0.14,0.21 -0.14,0.24 0,0.03 -0.07,0.15 -0.15,0.27 -0.08,0.12 -0.16,0.27 -0.18,0.33 -0.02,0.06 -0.06,0.14 -0.1,0.19 -0.11,0.13 -0.23,0.31 -0.23,0.38 0,0.03 -0.06,0.14 -0.13,0.25 -0.07,0.1 -0.17,0.28 -0.22,0.39 -0.05,0.11 -0.12,0.24 -0.17,0.29 -0.05,0.05 -0.13,0.2 -0.19,0.33 -0.16,0.34 -0.21,0.36 -0.5,0.22z"/>
   <path fill="black" fill-rule="nonzero" d="M28.92 25.34c-0.02,-0.02 -0.07,-0.04 -0.11,-0.04 -0.05,0 -0.16,-0.05 -0.25,-0.11 -0.09,-0.06 -0.19,-0.11 -0.22,-0.11 -0.07,0 -0.37,-0.2 -0.53,-0.36 -0.19,-0.18 -0.59,-0.48 -0.74,-0.56 -0.24,-0.12 -0.51,-0.39 -0.63,-0.63 -0.14,-0.27 -0.15,-0.26 0.54,-0.3 0.69,-0.04 1.54,-0.21 1.95,-0.39 0.07,-0.03 0.21,-0.09 0.31,-0.13 0.1,-0.04 0.22,-0.1 0.28,-0.14 0.06,-0.03 0.18,-0.09 0.27,-0.14 0.09,-0.04 0.24,-0.15 0.34,-0.24 0.1,-0.09 0.21,-0.16 0.24,-0.16 0.14,0 0.83,-0.79 1,-1.14 0.07,-0.14 0.13,-0.25 0.15,-0.25 0.02,0 0.06,-0.06 0.1,-0.14 0.04,-0.08 0.11,-0.23 0.16,-0.33 0.05,-0.1 0.09,-0.22 0.09,-0.26 0,-0.04 0.03,-0.12 0.07,-0.17 0.09,-0.13 0.16,-0.76 0.13,-1.08 -0.03,-0.32 -0.17,-0.76 -0.3,-0.95 -0.05,-0.08 -0.12,-0.2 -0.16,-0.27 -0.04,-0.07 -0.14,-0.21 -0.23,-0.32 -0.09,-0.1 -0.16,-0.2 -0.16,-0.23 0,-0.11 -1.05,-1.05 -1.17,-1.05 -0.08,0 -0.31,-0.23 -0.31,-0.31 0,-0.04 0.03,-0.11 0.06,-0.14 0.04,-0.04 0.12,-0.18 0.18,-0.32 0.07,-0.14 0.14,-0.28 0.17,-0.31 0.03,-0.03 0.11,-0.17 0.17,-0.31 0.06,-0.14 0.16,-0.31 0.22,-0.37 0.06,-0.07 0.1,-0.16 0.1,-0.2 0,-0.04 0.06,-0.16 0.14,-0.27 0.08,-0.1 0.17,-0.27 0.22,-0.37 0.04,-0.1 0.12,-0.23 0.17,-0.3 0.05,-0.06 0.13,-0.21 0.18,-0.32 0.05,-0.11 0.13,-0.24 0.17,-0.28 0.1,-0.1 0.22,-0.32 0.22,-0.4 0,-0.03 0.07,-0.16 0.15,-0.27 0.08,-0.12 0.15,-0.25 0.15,-0.3 0,-0.05 0.06,-0.15 0.12,-0.24 0.07,-0.09 0.18,-0.27 0.25,-0.4 0.07,-0.13 0.17,-0.3 0.22,-0.37 0.06,-0.07 0.13,-0.21 0.17,-0.32 0.04,-0.1 0.09,-0.19 0.11,-0.19 0.02,0 0.1,-0.09 0.17,-0.2 0.24,-0.34 0.84,-0.94 1.03,-1.03 0.1,-0.05 0.21,-0.11 0.24,-0.14 0.1,-0.08 0.45,-0.16 0.74,-0.16 0.36,-0 0.69,0.11 0.86,0.29 0.07,0.08 0.15,0.14 0.17,0.14 0.04,0 0.23,0.17 0.77,0.68 0.18,0.17 0.39,0.36 0.46,0.44 0.08,0.07 0.22,0.2 0.32,0.28 0.1,0.08 0.26,0.26 0.35,0.39 0.09,0.13 0.31,0.38 0.48,0.55 0.17,0.17 0.31,0.35 0.31,0.39 0,0.05 0.07,0.15 0.16,0.23 0.09,0.08 0.19,0.21 0.21,0.28 0.29,0.77 0.28,0.73 0.29,1.21 0,0.49 -0.05,0.77 -0.18,1.07 -0.05,0.1 -0.09,0.2 -0.09,0.23 0,0.06 -0.17,0.27 -0.52,0.66 -0.54,0.59 -0.55,0.61 -1.16,1.31 -0.22,0.25 -0.57,0.68 -0.78,0.96 -0.21,0.28 -0.45,0.58 -0.54,0.68 -0.09,0.1 -0.24,0.27 -0.33,0.39 -0.1,0.12 -0.27,0.33 -0.39,0.46 -0.12,0.13 -0.25,0.27 -0.29,0.31 -0.04,0.04 -0.12,0.14 -0.19,0.22 -0.07,0.08 -0.2,0.23 -0.29,0.33 -0.21,0.23 -0.87,1.06 -1.05,1.32 -0.08,0.11 -0.2,0.27 -0.27,0.35 -0.26,0.29 -0.53,0.59 -0.64,0.7 -0.06,0.06 -0.13,0.14 -0.15,0.18 -0.02,0.04 -0.11,0.14 -0.19,0.24 -0.69,0.76 -1.22,1.39 -1.48,1.74 -0.11,0.14 -0.25,0.33 -0.33,0.41 -0.18,0.19 -0.62,0.5 -0.81,0.57 -0.19,0.06 -0.81,0.07 -0.85,0.01z"/>
   <path fill="black" fill-rule="nonzero" d="M33.87 30.06c-0.3,-0.11 -0.53,-0.29 -1.2,-0.95 -0.81,-0.8 -1.05,-1.18 -1.13,-1.75 -0.04,-0.32 0.05,-0.8 0.21,-1.14 0.05,-0.11 0.1,-0.17 0.57,-0.72 0.55,-0.64 0.74,-0.87 0.94,-1.14 0.11,-0.14 0.24,-0.32 0.3,-0.4 0.06,-0.07 0.19,-0.23 0.29,-0.35 0.23,-0.28 0.81,-0.94 1.11,-1.27 0.26,-0.28 0.42,-0.47 0.66,-0.76 0.08,-0.1 0.22,-0.27 0.3,-0.37 0.08,-0.1 0.26,-0.33 0.39,-0.51 0.2,-0.28 0.71,-0.89 0.8,-0.96 0.02,-0.02 0.29,-0.33 0.5,-0.57 0.05,-0.06 0.33,-0.38 0.62,-0.71 0.29,-0.33 0.68,-0.8 0.86,-1.05 0.58,-0.77 1.04,-1.29 1.14,-1.29 0.04,0 0.1,-0.03 0.14,-0.07 0.12,-0.1 0.6,-0.13 0.76,-0.05 0.32,0.17 0.53,0.43 0.84,1.04 0.33,0.64 0.39,0.77 0.45,0.87 0.02,0.04 0.06,0.11 0.09,0.17 0.2,0.43 0.37,0.76 0.49,0.98 0.08,0.14 0.15,0.29 0.15,0.32 0,0.03 0.04,0.11 0.09,0.17 0.05,0.06 0.09,0.15 0.09,0.19 0,0.04 0.02,0.08 0.04,0.08 0.04,0 0.18,0.28 0.18,0.37 0,0.03 0.03,0.09 0.06,0.12 0.13,0.13 0.21,0.69 0.16,1.11 -0.04,0.36 -0.09,0.54 -0.23,0.81 -0.05,0.09 -0.08,0.19 -0.08,0.23 0,0.09 -0.37,0.49 -0.65,0.7 -0.13,0.1 -0.41,0.35 -0.62,0.55 -0.21,0.21 -0.46,0.43 -0.55,0.5 -0.09,0.07 -0.34,0.29 -0.55,0.51 -0.21,0.22 -0.45,0.44 -0.55,0.5 -0.1,0.06 -0.33,0.27 -0.51,0.46 -0.19,0.19 -0.46,0.44 -0.6,0.54 -0.14,0.1 -0.4,0.33 -0.57,0.51 -0.17,0.18 -0.37,0.36 -0.43,0.41 -0.22,0.16 -0.47,0.39 -0.76,0.69 -0.15,0.16 -0.38,0.36 -0.5,0.44 -0.12,0.08 -0.37,0.31 -0.55,0.5 -0.18,0.19 -0.43,0.42 -0.56,0.52 -0.13,0.1 -0.33,0.27 -0.45,0.37 -0.2,0.19 -0.41,0.31 -0.73,0.42 -0.22,0.07 -0.76,0.05 -1,-0.03z"/>
   <path fill="black" fill-rule="nonzero" d="M38.5 34.28c-0.37,-0.04 -0.59,-0.11 -0.97,-0.3 -0.49,-0.25 -1.35,-0.97 -1.35,-1.15 0,-0.03 -0.03,-0.12 -0.07,-0.19 -0.08,-0.16 -0.09,-0.6 -0.01,-0.75 0.03,-0.06 0.09,-0.17 0.12,-0.24 0.09,-0.19 0.42,-0.53 0.67,-0.7 0.12,-0.08 0.36,-0.3 0.54,-0.5 0.18,-0.19 0.42,-0.42 0.55,-0.5 0.12,-0.08 0.37,-0.3 0.55,-0.48 0.18,-0.18 0.43,-0.41 0.56,-0.51 0.13,-0.1 0.4,-0.34 0.59,-0.53 0.2,-0.19 0.47,-0.44 0.62,-0.55 0.14,-0.11 0.37,-0.32 0.5,-0.46 0.13,-0.14 0.38,-0.37 0.56,-0.51 0.18,-0.14 0.43,-0.37 0.57,-0.51 0.13,-0.14 0.39,-0.38 0.57,-0.51 0.18,-0.14 0.46,-0.39 0.62,-0.56 0.16,-0.17 0.37,-0.36 0.46,-0.42 0.09,-0.06 0.26,-0.21 0.38,-0.32 0.38,-0.36 0.91,-0.46 1.36,-0.25 0.25,0.12 0.69,0.6 0.74,0.82 0.02,0.07 0.04,0.13 0.06,0.15 0.02,0.01 0.12,0.2 0.22,0.41 0.1,0.22 0.2,0.39 0.22,0.39 0.02,0 0.04,0.03 0.04,0.06 0,0.04 0.05,0.16 0.1,0.27 0.22,0.45 0.25,0.54 0.36,1.06 0.06,0.29 -0.02,1.42 -0.12,1.64 -0.02,0.05 -0.07,0.2 -0.1,0.34 -0.04,0.14 -0.08,0.28 -0.1,0.31 -0.02,0.03 -0.08,0.16 -0.14,0.3 -0.06,0.14 -0.13,0.27 -0.16,0.3 -0.03,0.03 -0.06,0.09 -0.06,0.14 0,0.17 -1.14,1.47 -1.37,1.57 -0.07,0.03 -0.23,0.14 -0.35,0.24 -0.12,0.1 -0.24,0.18 -0.27,0.18 -0.03,0 -0.1,0.04 -0.15,0.08 -0.06,0.04 -0.29,0.15 -0.52,0.24 -0.23,0.09 -0.47,0.19 -0.54,0.23 -0.07,0.03 -0.15,0.06 -0.17,0.06 -0.05,0 -0.38,0.12 -0.82,0.28 -0.18,0.07 -0.2,0.08 -0.81,0.29 -0.75,0.26 -1.42,0.48 -1.63,0.52 -0.67,0.14 -0.72,0.14 -1.27,0.08z"/>
   <path fill="black" fill-rule="nonzero" d="M22.78 53.19c-0.04,-0.04 -0.04,-0.18 0.01,-0.27 0.02,-0.04 0.06,-0.16 0.09,-0.27 0.03,-0.11 0.07,-0.26 0.1,-0.33 0.13,-0.4 0.26,-0.83 0.26,-0.91 0,-0.05 0.03,-0.13 0.06,-0.18 0.03,-0.05 0.08,-0.19 0.09,-0.3 0.02,-0.12 0.06,-0.27 0.09,-0.33 0.08,-0.16 0.2,-0.55 0.2,-0.64 0,-0.05 0.02,-0.1 0.04,-0.13 0.02,-0.02 0.06,-0.13 0.09,-0.24 0.03,-0.11 0.09,-0.3 0.13,-0.44 0.09,-0.26 0.21,-0.67 0.33,-1.07 0.04,-0.14 0.1,-0.33 0.13,-0.41 0.03,-0.08 0.08,-0.24 0.11,-0.35 0.03,-0.11 0.07,-0.23 0.09,-0.27 0.02,-0.04 0.04,-0.11 0.04,-0.16 0,-0.05 0.03,-0.15 0.06,-0.23 0.09,-0.22 0.25,-0.75 0.25,-0.85 0,-0.05 0.02,-0.1 0.04,-0.12 0.04,-0.02 0.15,-0.37 0.27,-0.83 0.03,-0.1 0.06,-0.21 0.09,-0.25 0.02,-0.04 0.04,-0.11 0.04,-0.16 0,-0.05 0.03,-0.15 0.06,-0.23 0.03,-0.08 0.11,-0.32 0.18,-0.54 0.06,-0.22 0.15,-0.48 0.19,-0.59 0.04,-0.11 0.12,-0.37 0.18,-0.58 0.13,-0.46 0.18,-0.49 0.44,-0.28 0.1,0.08 0.28,0.2 0.39,0.26 0.22,0.13 0.4,0.28 0.57,0.51 0.22,0.28 0.25,0.03 0.08,-0.59 -0.32,-1.15 -0.37,-3.04 -0.11,-4.1 0.06,-0.24 0.13,-0.55 0.16,-0.68 0.06,-0.26 0.16,-0.6 0.24,-0.81 0.03,-0.07 0.09,-0.26 0.13,-0.41 0.04,-0.16 0.09,-0.3 0.11,-0.33 0.02,-0.02 0.04,-0.1 0.04,-0.16 0,-0.07 0.02,-0.16 0.04,-0.2 0.06,-0.12 0.14,-0.42 0.13,-0.47 -0.01,-0.02 0.01,-0.1 0.04,-0.17 0.07,-0.18 0.18,-0.82 0.23,-1.35 0.06,-0.67 0.13,-1.03 0.21,-1.18 0.09,-0.16 0.15,-0.39 0.13,-0.51 -0.01,-0.04 0.01,-0.1 0.03,-0.13 0.05,-0.06 -0.01,-0.99 -0.08,-1.11 -0.02,-0.04 -0.06,-0.18 -0.09,-0.3 -0.03,-0.12 -0.09,-0.26 -0.13,-0.31 -0.04,-0.05 -0.09,-0.14 -0.1,-0.2 -0.01,-0.06 -0.05,-0.25 -0.09,-0.41 -0.04,-0.17 -0.09,-0.38 -0.12,-0.48 -0.16,-0.59 -0.23,-0.8 -0.28,-0.91 -0.04,-0.07 -0.06,-0.15 -0.06,-0.18 0,-0.12 -0.5,-1.17 -0.59,-1.25 -0.05,-0.04 -0.05,-0.07 -0.01,-0.11 0.11,-0.13 0.47,0.12 1.31,0.92 0.18,0.17 0.5,0.45 0.7,0.62 0.56,0.47 2.71,2.64 2.86,2.87 0.04,0.07 0.23,0.29 0.42,0.48 0.18,0.19 0.38,0.42 0.45,0.52 0.06,0.09 0.21,0.28 0.34,0.41 0.13,0.14 0.29,0.33 0.35,0.42 0.06,0.1 0.19,0.25 0.28,0.35 0.09,0.1 0.24,0.27 0.33,0.39 0.31,0.41 1.14,1.14 1.59,1.39 0.12,0.06 0.28,0.17 0.37,0.24 0.09,0.07 0.23,0.15 0.31,0.18 0.08,0.03 0.18,0.08 0.21,0.1 0.07,0.05 0.46,0.2 0.62,0.24 0.06,0.01 0.15,0.05 0.2,0.08 0.05,0.03 0.19,0.07 0.31,0.09 0.12,0.02 0.25,0.05 0.29,0.07 0.04,0.02 0.36,0.04 0.7,0.04 0.61,0 1.05,-0.05 1.4,-0.16 0.6,-0.2 1.43,-0.5 1.48,-0.55 0.02,-0.02 0.08,-0.04 0.12,-0.04 0.08,0 0.42,-0.12 0.97,-0.35 0.61,-0.26 0.71,-0.13 0.29,0.4 -0.14,0.18 -0.31,0.42 -0.38,0.55 -0.06,0.12 -0.22,0.34 -0.35,0.5 -0.13,0.15 -0.25,0.33 -0.26,0.4 -0.01,0.06 -0.13,0.24 -0.26,0.4 -0.13,0.15 -0.28,0.36 -0.32,0.46 -0.11,0.23 -0.2,0.36 -0.4,0.6 -0.09,0.11 -0.16,0.21 -0.16,0.23 0,0.06 -0.25,0.44 -0.44,0.67 -0.09,0.11 -0.19,0.27 -0.23,0.37 -0.04,0.09 -0.09,0.18 -0.1,0.2 -0.09,0.07 -0.36,0.44 -0.47,0.66 -0.07,0.13 -0.15,0.26 -0.18,0.27 -0.03,0.02 -0.06,0.05 -0.06,0.08 0,0.02 -0.06,0.11 -0.13,0.18 -0.22,0.24 -0.3,0.34 -0.45,0.54 -0.34,0.47 -0.62,0.78 -1.33,1.47 -0.42,0.41 -0.82,0.78 -0.9,0.83 -0.08,0.05 -0.24,0.18 -0.37,0.3 -0.13,0.12 -0.26,0.21 -0.29,0.21 -0.03,0 -0.13,0.06 -0.21,0.13 -0.14,0.13 -0.36,0.26 -0.73,0.44 -0.09,0.04 -0.17,0.1 -0.19,0.12 -0.02,0.02 -0.07,0.04 -0.12,0.04 -0.05,0 -0.13,0.02 -0.18,0.06 -0.05,0.03 -0.17,0.08 -0.28,0.11 -0.11,0.03 -0.25,0.07 -0.31,0.09 -0.22,0.07 -0.6,0.13 -1.02,0.17 -0.33,0.03 -0.45,0.05 -0.51,0.12 -0.07,0.07 -0.19,0.42 -0.4,1.17 -0.03,0.1 -0.07,0.22 -0.09,0.27 -0.02,0.06 -0.04,0.14 -0.04,0.19 0,0.05 -0.02,0.12 -0.04,0.16 -0.02,0.04 -0.1,0.29 -0.18,0.56 -0.07,0.26 -0.15,0.51 -0.17,0.55 -0.02,0.04 -0.05,0.17 -0.07,0.31 -0.02,0.13 -0.05,0.26 -0.07,0.28 -0.02,0.02 -0.04,0.1 -0.06,0.17 -0.01,0.07 -0.04,0.2 -0.07,0.28 -0.12,0.41 -0.48,1.79 -0.53,2.03 -0.02,0.1 -0.07,0.26 -0.1,0.37 -0.04,0.11 -0.08,0.28 -0.09,0.39 -0.02,0.11 -0.04,0.24 -0.06,0.28 -0.02,0.05 -0.06,0.2 -0.1,0.35l-0.06 0.26 -3.8 0.01c-2.09,0.01 -3.81,-0 -3.83,-0.02z"/>
   <path fill="black" fill-rule="nonzero" d="M19.78 19.01c0,-0.05 -0.02,-0.08 -0.04,-0.06 -0.02,0.02 -0.04,0.06 -0.04,0.09 0,0.03 0.02,0.06 0.04,0.06 0.02,0 0.04,-0.04 0.04,-0.09z"/>
   <path fill="black" fill-rule="nonzero" d="M10.27 53.07c-0.1,-0.08 -0.2,-0.15 -0.21,-0.15 -0.06,-0 -0.57,-0.51 -0.57,-0.57 0,-0.04 0.03,-0.1 0.06,-0.15 0.04,-0.05 0.06,-0.12 0.07,-0.17 0,-0.05 0.05,-0.16 0.11,-0.24 0.06,-0.08 0.11,-0.17 0.11,-0.19 0,-0.03 0.07,-0.19 0.15,-0.36 0.08,-0.17 0.15,-0.33 0.15,-0.35 0,-0.02 0.03,-0.06 0.07,-0.09 0.04,-0.03 0.07,-0.1 0.07,-0.15 0,-0.05 0.06,-0.19 0.13,-0.31 0.07,-0.12 0.13,-0.26 0.13,-0.31 0,-0.05 0.03,-0.12 0.06,-0.14 0.03,-0.03 0.08,-0.14 0.11,-0.24 0.03,-0.11 0.08,-0.22 0.11,-0.25 0.03,-0.03 0.06,-0.09 0.06,-0.13 0,-0.05 0.06,-0.17 0.13,-0.29 0.07,-0.11 0.13,-0.22 0.13,-0.24 0,-0.05 0.19,-0.47 0.31,-0.7 0.05,-0.09 0.09,-0.19 0.09,-0.22 0,-0.03 0.05,-0.15 0.11,-0.26 0.06,-0.11 0.11,-0.23 0.11,-0.27 0,-0.03 0.04,-0.11 0.09,-0.17 0.05,-0.06 0.09,-0.15 0.09,-0.19 0,-0.04 0.04,-0.14 0.09,-0.22 0.05,-0.08 0.09,-0.18 0.09,-0.23 0,-0.05 0.05,-0.16 0.11,-0.25 0.06,-0.09 0.11,-0.18 0.11,-0.21 0,-0.05 0.17,-0.47 0.28,-0.68 0.03,-0.06 0.07,-0.17 0.09,-0.25 0.02,-0.08 0.06,-0.16 0.09,-0.19 0.03,-0.03 0.06,-0.08 0.06,-0.11 0,-0.03 0.04,-0.14 0.09,-0.24 0.05,-0.1 0.09,-0.21 0.09,-0.24 0,-0.03 0.04,-0.13 0.09,-0.22 0.05,-0.09 0.09,-0.2 0.09,-0.25 0,-0.05 0.03,-0.11 0.06,-0.15 0.06,-0.07 0.17,-0.34 0.24,-0.59 0.02,-0.07 0.07,-0.19 0.1,-0.26 0.04,-0.07 0.09,-0.18 0.11,-0.24 0.03,-0.06 0.06,-0.14 0.08,-0.17 0.04,-0.06 0.1,-0.29 0.17,-0.57 0.01,-0.06 0.05,-0.14 0.08,-0.17 0.03,-0.04 0.1,-0.2 0.15,-0.37 0.06,-0.17 0.14,-0.38 0.18,-0.48 0.04,-0.1 0.08,-0.2 0.08,-0.23 0,-0.03 0.03,-0.1 0.06,-0.17 0.07,-0.15 0.15,-0.37 0.2,-0.58 0.02,-0.08 0.06,-0.17 0.08,-0.19 0.03,-0.03 0.05,-0.08 0.05,-0.13 0,-0.04 0.06,-0.25 0.13,-0.46 0.27,-0.79 0.21,-1.39 -0.26,-2.87 -0.02,-0.07 -0.04,-0.17 -0.04,-0.22 0,-0.05 -0.03,-0.12 -0.06,-0.17 -0.04,-0.05 -0.06,-0.12 -0.07,-0.17 0,-0.05 -0.04,-0.19 -0.08,-0.33 -0.04,-0.13 -0.1,-0.32 -0.13,-0.42 -0.02,-0.1 -0.08,-0.28 -0.11,-0.4 -0.04,-0.12 -0.07,-0.26 -0.07,-0.3 0,-0.04 -0.02,-0.1 -0.04,-0.14 -0.11,-0.22 -0.18,-0.41 -0.16,-0.45 0.01,-0.02 -0,-0.1 -0.04,-0.16 -0.04,-0.07 -0.09,-0.25 -0.13,-0.4 -0.15,-0.63 -0.22,-0.86 -0.27,-0.97 -0.03,-0.06 -0.06,-0.16 -0.06,-0.2 0,-0.05 -0.02,-0.1 -0.04,-0.12 -0.02,-0.02 -0.04,-0.08 -0.04,-0.15 0,-0.07 -0.04,-0.22 -0.09,-0.33 -0.05,-0.11 -0.1,-0.28 -0.12,-0.38 -0.02,-0.09 -0.04,-0.18 -0.06,-0.19 -0.02,-0.01 -0.04,-0.07 -0.04,-0.13 0,-0.06 -0.02,-0.15 -0.04,-0.21 -0.08,-0.2 -0.26,-0.8 -0.31,-1.04 -0.03,-0.13 -0.08,-0.3 -0.11,-0.38 -0.03,-0.08 -0.06,-0.16 -0.06,-0.2 0,-0.07 -0.16,-0.59 -0.22,-0.69 -0.02,-0.04 -0.05,-0.16 -0.07,-0.26 -0.02,-0.11 -0.05,-0.21 -0.06,-0.24 -0.02,-0.02 -0.06,-0.14 -0.09,-0.26 -0.03,-0.12 -0.07,-0.26 -0.09,-0.31 -0.02,-0.05 -0.05,-0.14 -0.06,-0.2 -0.01,-0.06 -0.05,-0.22 -0.09,-0.35 -0.04,-0.13 -0.09,-0.31 -0.11,-0.39 -0.02,-0.08 -0.1,-0.32 -0.17,-0.53 -0.07,-0.21 -0.14,-0.42 -0.14,-0.46 0,-0.05 -0.02,-0.1 -0.03,-0.12 -0.02,-0.02 -0.06,-0.12 -0.08,-0.24 -0.03,-0.11 -0.1,-0.34 -0.16,-0.51 -0.11,-0.29 -0.2,-0.59 -0.3,-0.96 -0.03,-0.1 -0.07,-0.24 -0.11,-0.33 -0.03,-0.08 -0.08,-0.25 -0.11,-0.36 -0.03,-0.11 -0.07,-0.22 -0.09,-0.23 -0.02,-0.01 -0.04,-0.08 -0.04,-0.14 0,-0.07 -0.02,-0.14 -0.04,-0.16 -0.02,-0.02 -0.06,-0.13 -0.09,-0.24 -0.02,-0.11 -0.1,-0.36 -0.17,-0.56 -0.2,-0.57 -0.25,-0.85 -0.25,-1.37 0,-0.56 0.09,-1.28 0.18,-1.38 0.03,-0.04 0.06,-0.1 0.06,-0.14 0,-0.04 0.03,-0.14 0.07,-0.21 0.04,-0.08 0.08,-0.19 0.1,-0.26 0.01,-0.06 0.12,-0.24 0.24,-0.39 0.32,-0.4 1.19,-1.26 1.27,-1.26 0.04,0 0.18,-0.11 0.32,-0.25 0.13,-0.14 0.31,-0.29 0.4,-0.34 0.08,-0.05 0.27,-0.19 0.41,-0.33 0.14,-0.13 0.33,-0.28 0.41,-0.32 0.08,-0.04 0.23,-0.16 0.33,-0.27 0.1,-0.11 0.24,-0.23 0.33,-0.26 0.08,-0.03 0.28,-0.19 0.45,-0.34 0.16,-0.15 0.32,-0.28 0.34,-0.28 0.02,0 0.18,-0.12 0.34,-0.27 0.16,-0.15 0.38,-0.32 0.47,-0.38 0.1,-0.06 0.25,-0.19 0.35,-0.29 0.1,-0.1 0.26,-0.23 0.37,-0.3 0.11,-0.07 0.28,-0.2 0.39,-0.31 0.11,-0.1 0.29,-0.25 0.41,-0.33 0.11,-0.08 0.31,-0.24 0.44,-0.36 0.12,-0.11 0.25,-0.21 0.27,-0.21 0.03,0 0.1,-0.04 0.16,-0.09 0.23,-0.18 0.63,-0.31 1.03,-0.31 0.37,-0.01 0.54,0.03 0.91,0.19 0.1,0.05 0.22,0.08 0.25,0.08 0.04,0 0.17,0.08 0.29,0.18 0.12,0.1 0.29,0.21 0.37,0.24 0.08,0.03 0.22,0.12 0.31,0.19 0.09,0.07 0.26,0.18 0.39,0.24 0.12,0.06 0.28,0.16 0.34,0.22 0.06,0.06 0.24,0.16 0.39,0.23 0.15,0.07 0.34,0.19 0.42,0.26 0.08,0.07 0.21,0.15 0.27,0.16 0.06,0.02 0.25,0.13 0.41,0.24 0.16,0.12 0.32,0.21 0.36,0.21 0.04,0 0.18,0.09 0.32,0.2 0.14,0.11 0.32,0.22 0.39,0.25 0.08,0.02 0.25,0.13 0.38,0.23 0.13,0.1 0.3,0.21 0.37,0.24 0.07,0.03 0.2,0.11 0.28,0.18 0.09,0.07 0.25,0.17 0.37,0.22 0.12,0.06 0.3,0.17 0.39,0.24 0.1,0.08 0.25,0.16 0.34,0.2 0.09,0.03 0.26,0.14 0.38,0.24 0.12,0.1 0.29,0.2 0.38,0.24 0.09,0.03 0.24,0.12 0.34,0.2 0.1,0.08 0.23,0.15 0.3,0.17 0.07,0.02 0.2,0.09 0.28,0.15 0.09,0.07 0.26,0.18 0.39,0.25 0.25,0.13 1.02,0.77 1.47,1.23 0.15,0.15 0.32,0.38 0.42,0.58 0.15,0.3 0.16,0.35 0.16,0.69 0,0.35 -0.01,0.39 -0.22,0.82 -0.12,0.25 -0.22,0.47 -0.22,0.49 0,0.02 -0.09,0.13 -0.21,0.26 -0.11,0.12 -0.28,0.31 -0.37,0.41 -0.09,0.1 -0.23,0.23 -0.33,0.28 -0.09,0.05 -0.24,0.14 -0.32,0.2 -0.16,0.12 -0.73,0.39 -0.82,0.39 -0.03,0 -0.1,0.02 -0.15,0.05 -0.05,0.03 -0.23,0.05 -0.4,0.06 -0.18,0.01 -0.36,0.04 -0.44,0.08 -0.17,0.09 -0.24,0.09 -1.42,0.09 -0.61,-0 -1.06,-0.02 -1.2,-0.05 -0.23,-0.06 -0.53,-0.09 -0.74,-0.1 -0.07,0 -0.15,-0.02 -0.17,-0.04 -0.04,-0.03 -0.26,-0.09 -0.48,-0.12 -0.05,-0.01 -0.17,-0.04 -0.26,-0.06 -0.1,-0.03 -0.24,-0.06 -0.32,-0.08 -0.08,-0.01 -0.15,-0.04 -0.17,-0.06 -0.01,-0.02 -0.07,-0.04 -0.13,-0.04 -0.06,0 -0.15,-0.02 -0.21,-0.04 -0.06,-0.02 -0.22,-0.07 -0.36,-0.12 -0.41,-0.12 -0.85,-0.29 -0.87,-0.33 -0.01,-0.02 -0.06,-0.04 -0.1,-0.04 -0.11,0 -0.45,-0.31 -0.58,-0.51 -0.05,-0.09 -0.15,-0.23 -0.22,-0.31 -0.07,-0.08 -0.12,-0.18 -0.12,-0.22 0,-0.04 -0.04,-0.13 -0.08,-0.22 -0.05,-0.08 -0.1,-0.22 -0.11,-0.32 -0.03,-0.18 -0.09,-0.21 -0.13,-0.07 -0.04,0.16 0.04,0.91 0.12,1.12 0.04,0.11 0.08,0.3 0.1,0.43l0.03 0.23 -0.24 0c-0.13,0 -0.34,-0.03 -0.45,-0.06 -0.25,-0.07 -1.29,-0.07 -1.71,0.01 -0.3,0.05 -0.77,0.27 -0.72,0.33 0.02,0.02 0.28,0.05 0.58,0.06 0.3,0.01 0.61,0.04 0.7,0.06 0.08,0.02 0.19,0.04 0.24,0.04 0.17,0.01 0.64,0.09 0.71,0.13 0.04,0.02 0.19,0.05 0.32,0.07 0.14,0.02 0.27,0.06 0.3,0.09 0.03,0.03 0.09,0.06 0.14,0.06 0.11,0 0.6,0.17 0.66,0.22 0.02,0.02 0.09,0.04 0.14,0.04 0.06,0 0.1,0.02 0.1,0.04 0,0.05 0.29,0.18 0.38,0.18 0.04,0 0.14,0.06 0.23,0.13 0.08,0.07 0.22,0.15 0.31,0.18 0.08,0.03 0.26,0.13 0.39,0.23 0.13,0.1 0.33,0.23 0.44,0.28 0.36,0.17 2.44,2.05 2.68,2.43 0.08,0.12 0.21,0.29 0.3,0.38 0.09,0.09 0.16,0.19 0.16,0.22 0,0.03 0.08,0.15 0.17,0.27 0.09,0.11 0.18,0.25 0.2,0.3 0.02,0.05 0.06,0.14 0.11,0.18 0.04,0.05 0.09,0.14 0.11,0.2 0.02,0.06 0.08,0.17 0.14,0.25 0.06,0.08 0.1,0.16 0.1,0.18 0,0.02 0.06,0.16 0.13,0.3 0.14,0.29 0.58,1.54 0.55,1.58 -0.01,0.02 0.01,0.12 0.05,0.22 0.04,0.11 0.08,0.35 0.1,0.54 0.02,0.19 0.06,0.43 0.09,0.52 0.06,0.21 0.09,1.9 0.03,2.25 -0.02,0.13 -0.04,0.31 -0.05,0.39 -0.01,0.08 -0.02,0.17 -0.04,0.2 -0.01,0.02 -0.04,0.18 -0.06,0.35 -0.05,0.51 -0.31,1.66 -0.42,1.86 -0.02,0.04 -0.04,0.12 -0.04,0.17 0,0.05 -0.02,0.13 -0.04,0.17 -0.02,0.04 -0.06,0.16 -0.09,0.27 -0.03,0.11 -0.09,0.28 -0.14,0.38 -0.05,0.1 -0.08,0.22 -0.08,0.26 0,0.04 -0.03,0.11 -0.07,0.16 -0.03,0.05 -0.06,0.12 -0.06,0.15 0,0.04 -0.04,0.14 -0.09,0.23 -0.05,0.09 -0.09,0.2 -0.09,0.24 -0,0.04 -0.03,0.12 -0.07,0.16 -0.04,0.05 -0.08,0.16 -0.11,0.25 -0.02,0.09 -0.09,0.22 -0.14,0.29 -0.05,0.07 -0.14,0.21 -0.2,0.33 -0.12,0.24 -0.72,0.91 -0.81,0.91 -0.03,0 -0.14,0.07 -0.24,0.16 -0.2,0.18 -0.43,0.32 -0.89,0.54 -0.17,0.08 -0.41,0.24 -0.55,0.36 -0.13,0.12 -0.29,0.23 -0.34,0.26 -0.22,0.1 -0.07,0.12 0.63,0.09 0.5,-0.02 0.79,-0.01 0.91,0.02l0.18 0.05 -0.02 0.18c-0.01,0.1 -0.05,0.22 -0.08,0.27 -0.03,0.05 -0.07,0.15 -0.09,0.24 -0.02,0.08 -0.05,0.18 -0.07,0.22 -0.02,0.04 -0.06,0.15 -0.09,0.26 -0.03,0.11 -0.11,0.35 -0.17,0.55 -0.07,0.19 -0.2,0.61 -0.3,0.94 -0.1,0.32 -0.2,0.63 -0.22,0.68 -0.02,0.05 -0.1,0.29 -0.17,0.55 -0.08,0.25 -0.16,0.49 -0.18,0.53 -0.02,0.04 -0.04,0.12 -0.04,0.18 0,0.06 -0.03,0.14 -0.06,0.19 -0.04,0.05 -0.07,0.12 -0.07,0.15 -0,0.04 -0.1,0.36 -0.22,0.72 -0.12,0.36 -0.23,0.71 -0.25,0.79 -0.01,0.08 -0.04,0.15 -0.06,0.17 -0.02,0.01 -0.04,0.06 -0.04,0.11 0,0.04 -0.03,0.14 -0.06,0.2 -0.04,0.07 -0.1,0.25 -0.14,0.41 -0.04,0.16 -0.1,0.32 -0.13,0.37 -0.03,0.05 -0.05,0.1 -0.03,0.12 0.02,0.02 -0.28,1.01 -0.39,1.28 -0.05,0.12 -0.13,0.37 -0.26,0.81 -0.02,0.08 -0.06,0.19 -0.08,0.24 -0.08,0.18 -0.18,0.48 -0.2,0.59 -0.01,0.06 -0.04,0.15 -0.06,0.2 -0.08,0.19 -0.13,0.4 -0.13,0.49 0,0.05 -0.02,0.11 -0.04,0.13 -0.02,0.02 -0.07,0.13 -0.1,0.24l-0.06 0.19 -5.11 0.01 -5.11 0.01 -0.18 -0.15z"/>
  </g>
  <g id="_2194009995504">
   <path fill="white" fill-rule="nonzero" d="M27.77 14.98c-0.13,-0.07 -0.29,-0.17 -0.37,-0.23 -0.08,-0.06 -0.25,-0.16 -0.37,-0.22 -0.12,-0.06 -0.3,-0.17 -0.39,-0.24 -0.09,-0.07 -0.21,-0.14 -0.27,-0.16 -0.06,-0.02 -0.23,-0.12 -0.37,-0.22 -0.14,-0.1 -0.31,-0.2 -0.37,-0.22 -0.06,-0.02 -0.18,-0.09 -0.26,-0.15 -0.08,-0.07 -0.26,-0.17 -0.39,-0.24 -0.13,-0.06 -0.31,-0.17 -0.41,-0.24 -0.1,-0.07 -0.2,-0.13 -0.23,-0.13 -0.03,0 -0.11,-0.05 -0.18,-0.11 -0.07,-0.06 -0.15,-0.11 -0.18,-0.11 -0.03,0 -0.05,-0.02 -0.05,-0.04 0,-0.02 -0.11,-0.09 -0.25,-0.16 -0.14,-0.07 -0.31,-0.17 -0.38,-0.22 -0.07,-0.05 -0.23,-0.15 -0.36,-0.21 -0.13,-0.06 -0.32,-0.18 -0.43,-0.27 -0.11,-0.08 -0.23,-0.15 -0.27,-0.15 -0.1,0 -0.58,-0.35 -0.58,-0.43 -0.01,-0.15 0.02,-0.25 0.11,-0.38 0.06,-0.07 0.13,-0.22 0.16,-0.32 0.03,-0.1 0.07,-0.18 0.09,-0.18 0.03,0 0.21,-0.35 0.21,-0.42 0,-0.02 0.05,-0.11 0.11,-0.2 0.06,-0.09 0.11,-0.19 0.11,-0.22 0,-0.03 0.07,-0.17 0.15,-0.3 0.08,-0.13 0.15,-0.26 0.15,-0.29 0,-0.03 0.06,-0.14 0.13,-0.24 0.07,-0.1 0.13,-0.21 0.13,-0.25 0,-0.04 0.07,-0.18 0.15,-0.31 0.08,-0.13 0.15,-0.26 0.15,-0.3 0,-0.03 0.06,-0.14 0.12,-0.24 0.07,-0.1 0.15,-0.25 0.18,-0.33 0.03,-0.08 0.1,-0.21 0.16,-0.28 0.05,-0.07 0.12,-0.19 0.14,-0.27 0.02,-0.08 0.11,-0.22 0.18,-0.32 0.07,-0.1 0.13,-0.22 0.13,-0.27 0,-0.05 0.07,-0.17 0.15,-0.28 0.08,-0.11 0.15,-0.24 0.15,-0.28 0,-0.04 0.06,-0.16 0.14,-0.27 0.08,-0.1 0.17,-0.25 0.2,-0.32 0.03,-0.07 0.13,-0.24 0.23,-0.38 0.09,-0.14 0.2,-0.31 0.23,-0.39 0.04,-0.08 0.14,-0.22 0.22,-0.32 0.09,-0.1 0.19,-0.22 0.23,-0.27 0.16,-0.24 0.82,-0.41 1.19,-0.32 0.11,0.03 0.25,0.06 0.31,0.07 0.13,0.03 0.33,0.11 0.66,0.28 0.14,0.07 0.27,0.13 0.3,0.13 0.03,0 0.12,0.06 0.21,0.14 0.09,0.08 0.26,0.18 0.39,0.24 0.13,0.06 0.33,0.18 0.45,0.28 0.12,0.1 0.26,0.17 0.3,0.17 0.04,0 0.21,0.1 0.36,0.21 0.16,0.12 0.33,0.23 0.39,0.25 0.06,0.02 0.17,0.09 0.26,0.16 0.09,0.07 0.26,0.17 0.39,0.24 0.13,0.06 0.26,0.15 0.31,0.19 0.04,0.04 0.14,0.12 0.22,0.18 0.35,0.26 0.5,0.46 0.62,0.85 0.11,0.33 0.12,0.41 0.1,0.71 -0.02,0.18 -0.06,0.38 -0.09,0.43 -0.04,0.05 -0.07,0.14 -0.07,0.18 0,0.04 -0.07,0.18 -0.15,0.3 -0.08,0.12 -0.15,0.25 -0.15,0.29 0,0.04 -0.07,0.16 -0.15,0.26 -0.08,0.11 -0.2,0.3 -0.26,0.43 -0.16,0.32 -0.42,0.78 -0.53,0.94 -0.05,0.07 -0.11,0.19 -0.14,0.27 -0.03,0.08 -0.11,0.22 -0.17,0.31 -0.07,0.09 -0.15,0.23 -0.18,0.31 -0.03,0.08 -0.09,0.21 -0.15,0.28 -0.06,0.08 -0.15,0.23 -0.19,0.34 -0.05,0.11 -0.15,0.28 -0.22,0.39 -0.08,0.1 -0.14,0.21 -0.14,0.24 0,0.03 -0.07,0.15 -0.15,0.27 -0.08,0.12 -0.16,0.27 -0.18,0.33 -0.02,0.06 -0.06,0.14 -0.1,0.19 -0.11,0.13 -0.23,0.31 -0.23,0.38 0,0.03 -0.06,0.14 -0.13,0.25 -0.07,0.1 -0.17,0.28 -0.22,0.39 -0.05,0.11 -0.12,0.24 -0.17,0.29 -0.05,0.05 -0.13,0.2 -0.19,0.33 -0.16,0.34 -0.21,0.36 -0.5,0.22z"/>
   <path fill="white" fill-rule="nonzero" d="M28.83 25.85c-0.02,-0.02 -0.07,-0.04 -0.11,-0.04 -0.05,0 -0.16,-0.05 -0.25,-0.11 -0.09,-0.06 -0.19,-0.11 -0.22,-0.11 -0.07,0 -0.37,-0.2 -0.53,-0.36 -0.19,-0.18 -0.59,-0.48 -0.74,-0.56 -0.24,-0.12 -0.51,-0.39 -0.63,-0.63 -0.14,-0.27 -0.15,-0.26 0.54,-0.3 0.69,-0.04 1.54,-0.21 1.95,-0.39 0.07,-0.03 0.21,-0.09 0.31,-0.13 0.1,-0.04 0.22,-0.1 0.28,-0.14 0.06,-0.03 0.18,-0.09 0.27,-0.14 0.09,-0.04 0.24,-0.15 0.34,-0.24 0.1,-0.09 0.21,-0.16 0.24,-0.16 0.14,0 0.83,-0.79 1,-1.14 0.07,-0.14 0.13,-0.25 0.15,-0.25 0.02,0 0.06,-0.06 0.1,-0.14 0.04,-0.08 0.11,-0.23 0.16,-0.33 0.05,-0.1 0.09,-0.22 0.09,-0.26 0,-0.04 0.03,-0.12 0.07,-0.17 0.09,-0.13 0.16,-0.76 0.13,-1.08 -0.03,-0.32 -0.17,-0.76 -0.3,-0.95 -0.05,-0.08 -0.12,-0.2 -0.16,-0.27 -0.04,-0.07 -0.14,-0.21 -0.23,-0.32 -0.09,-0.1 -0.16,-0.2 -0.16,-0.23 0,-0.11 -1.05,-1.05 -1.17,-1.05 -0.08,0 -0.31,-0.23 -0.31,-0.31 0,-0.04 0.03,-0.11 0.06,-0.14 0.04,-0.04 0.12,-0.18 0.18,-0.32 0.07,-0.14 0.14,-0.28 0.17,-0.31 0.03,-0.03 0.11,-0.17 0.17,-0.31 0.06,-0.14 0.16,-0.31 0.22,-0.37 0.06,-0.07 0.1,-0.16 0.1,-0.2 0,-0.04 0.06,-0.16 0.14,-0.27 0.08,-0.1 0.17,-0.27 0.22,-0.37 0.04,-0.1 0.12,-0.23 0.17,-0.3 0.05,-0.06 0.13,-0.21 0.18,-0.32 0.05,-0.11 0.13,-0.24 0.17,-0.28 0.1,-0.1 0.22,-0.32 0.22,-0.4 0,-0.03 0.07,-0.16 0.15,-0.27 0.08,-0.12 0.15,-0.25 0.15,-0.3 0,-0.05 0.06,-0.15 0.12,-0.24 0.07,-0.09 0.18,-0.27 0.25,-0.4 0.07,-0.13 0.17,-0.3 0.22,-0.37 0.06,-0.07 0.13,-0.21 0.17,-0.32 0.04,-0.1 0.09,-0.19 0.11,-0.19 0.02,0 0.1,-0.09 0.17,-0.2 0.24,-0.34 0.84,-0.94 1.03,-1.03 0.1,-0.05 0.21,-0.11 0.24,-0.14 0.1,-0.08 0.45,-0.16 0.74,-0.16 0.36,-0 0.69,0.11 0.86,0.29 0.07,0.08 0.15,0.14 0.17,0.14 0.04,0 0.23,0.17 0.77,0.68 0.18,0.17 0.39,0.36 0.46,0.44 0.08,0.07 0.22,0.2 0.32,0.28 0.1,0.08 0.26,0.26 0.35,0.39 0.09,0.13 0.31,0.38 0.48,0.55 0.17,0.17 0.31,0.35 0.31,0.39 0,0.05 0.07,0.15 0.16,0.23 0.09,0.08 0.19,0.21 0.21,0.28 0.29,0.77 0.28,0.73 0.29,1.21 0,0.49 -0.05,0.77 -0.18,1.07 -0.05,0.1 -0.09,0.2 -0.09,0.23 0,0.06 -0.17,0.27 -0.52,0.66 -0.54,0.59 -0.55,0.61 -1.16,1.31 -0.22,0.25 -0.57,0.68 -0.78,0.96 -0.21,0.28 -0.45,0.58 -0.54,0.68 -0.09,0.1 -0.24,0.27 -0.33,0.39 -0.1,0.12 -0.27,0.33 -0.39,0.46 -0.12,0.13 -0.25,0.27 -0.29,0.31 -0.04,0.04 -0.12,0.14 -0.19,0.22 -0.07,0.08 -0.2,0.23 -0.29,0.33 -0.21,0.23 -0.87,1.06 -1.05,1.32 -0.08,0.11 -0.2,0.27 -0.27,0.35 -0.26,0.29 -0.53,0.59 -0.64,0.7 -0.06,0.06 -0.13,0.14 -0.15,0.18 -0.02,0.04 -0.11,0.14 -0.19,0.24 -0.69,0.76 -1.22,1.39 -1.48,1.74 -0.11,0.14 -0.25,0.33 -0.33,0.41 -0.18,0.19 -0.62,0.5 -0.81,0.57 -0.19,0.06 -0.81,0.07 -0.85,0.01z"/>
   <path fill="white" fill-rule="nonzero" d="M33.78 30.57c-0.3,-0.11 -0.53,-0.29 -1.2,-0.95 -0.81,-0.8 -1.05,-1.18 -1.13,-1.75 -0.04,-0.32 0.05,-0.8 0.21,-1.14 0.05,-0.11 0.1,-0.17 0.57,-0.72 0.55,-0.64 0.74,-0.87 0.94,-1.14 0.11,-0.14 0.24,-0.32 0.3,-0.4 0.06,-0.07 0.19,-0.23 0.29,-0.35 0.23,-0.28 0.81,-0.94 1.11,-1.27 0.26,-0.28 0.42,-0.47 0.66,-0.76 0.08,-0.1 0.22,-0.27 0.3,-0.37 0.08,-0.1 0.26,-0.33 0.39,-0.51 0.2,-0.28 0.71,-0.89 0.8,-0.96 0.02,-0.02 0.29,-0.33 0.5,-0.57 0.05,-0.06 0.33,-0.38 0.62,-0.71 0.29,-0.33 0.68,-0.8 0.86,-1.05 0.58,-0.77 1.04,-1.29 1.14,-1.29 0.04,0 0.1,-0.03 0.14,-0.07 0.12,-0.1 0.6,-0.13 0.76,-0.05 0.32,0.17 0.53,0.43 0.84,1.04 0.33,0.64 0.39,0.77 0.45,0.87 0.02,0.04 0.06,0.11 0.09,0.17 0.2,0.43 0.37,0.76 0.49,0.98 0.08,0.14 0.15,0.29 0.15,0.32 0,0.03 0.04,0.11 0.09,0.17 0.05,0.06 0.09,0.15 0.09,0.19 0,0.04 0.02,0.08 0.04,0.08 0.04,0 0.18,0.28 0.18,0.37 0,0.03 0.03,0.09 0.06,0.12 0.13,0.13 0.21,0.69 0.16,1.11 -0.04,0.36 -0.09,0.54 -0.23,0.81 -0.05,0.09 -0.08,0.19 -0.08,0.23 0,0.09 -0.37,0.49 -0.65,0.7 -0.13,0.1 -0.41,0.35 -0.62,0.55 -0.21,0.21 -0.46,0.43 -0.55,0.5 -0.09,0.07 -0.34,0.29 -0.55,0.51 -0.21,0.22 -0.45,0.44 -0.55,0.5 -0.1,0.06 -0.33,0.27 -0.51,0.46 -0.19,0.19 -0.46,0.44 -0.6,0.54 -0.14,0.1 -0.4,0.33 -0.57,0.51 -0.17,0.18 -0.37,0.36 -0.43,0.41 -0.22,0.16 -0.47,0.39 -0.76,0.69 -0.15,0.16 -0.38,0.36 -0.5,0.44 -0.12,0.08 -0.37,0.31 -0.55,0.5 -0.18,0.19 -0.43,0.42 -0.56,0.52 -0.13,0.1 -0.33,0.27 -0.45,0.37 -0.2,0.19 -0.41,0.31 -0.73,0.42 -0.22,0.07 -0.76,0.05 -1,-0.03z"/>
   <path fill="white" fill-rule="nonzero" d="M38.41 34.79c-0.37,-0.04 -0.59,-0.11 -0.97,-0.3 -0.49,-0.25 -1.35,-0.97 -1.35,-1.15 0,-0.03 -0.03,-0.12 -0.07,-0.19 -0.08,-0.16 -0.09,-0.6 -0.01,-0.75 0.03,-0.06 0.09,-0.17 0.12,-0.24 0.09,-0.19 0.42,-0.53 0.67,-0.7 0.12,-0.08 0.36,-0.3 0.54,-0.5 0.18,-0.19 0.42,-0.42 0.55,-0.5 0.12,-0.08 0.37,-0.3 0.55,-0.48 0.18,-0.18 0.43,-0.41 0.56,-0.51 0.13,-0.1 0.4,-0.34 0.59,-0.53 0.2,-0.19 0.47,-0.44 0.62,-0.55 0.14,-0.11 0.37,-0.32 0.5,-0.46 0.13,-0.14 0.38,-0.37 0.56,-0.51 0.18,-0.14 0.43,-0.37 0.57,-0.51 0.13,-0.14 0.39,-0.38 0.57,-0.51 0.18,-0.14 0.46,-0.39 0.62,-0.56 0.16,-0.17 0.37,-0.36 0.46,-0.42 0.09,-0.06 0.26,-0.21 0.38,-0.32 0.38,-0.36 0.91,-0.46 1.36,-0.25 0.25,0.12 0.69,0.6 0.74,0.82 0.02,0.07 0.04,0.13 0.06,0.15 0.02,0.01 0.12,0.2 0.22,0.41 0.1,0.22 0.2,0.39 0.22,0.39 0.02,0 0.04,0.03 0.04,0.06 0,0.04 0.05,0.16 0.1,0.27 0.22,0.45 0.25,0.54 0.36,1.06 0.06,0.29 -0.02,1.42 -0.12,1.64 -0.02,0.05 -0.07,0.2 -0.1,0.34 -0.04,0.14 -0.08,0.28 -0.1,0.31 -0.02,0.03 -0.08,0.16 -0.14,0.3 -0.06,0.14 -0.13,0.27 -0.16,0.3 -0.03,0.03 -0.06,0.09 -0.06,0.14 0,0.17 -1.14,1.47 -1.37,1.57 -0.07,0.03 -0.23,0.14 -0.35,0.24 -0.12,0.1 -0.24,0.18 -0.27,0.18 -0.03,0 -0.1,0.04 -0.15,0.08 -0.06,0.04 -0.29,0.15 -0.52,0.24 -0.23,0.09 -0.47,0.19 -0.54,0.23 -0.07,0.03 -0.15,0.06 -0.17,0.06 -0.05,0 -0.38,0.12 -0.82,0.28 -0.18,0.07 -0.2,0.08 -0.81,0.29 -0.75,0.26 -1.42,0.48 -1.63,0.52 -0.67,0.14 -0.72,0.14 -1.27,0.08z"/>
   <path fill="white" fill-rule="nonzero" d="M22.68 53.7c-0.04,-0.04 -0.04,-0.18 0.01,-0.27 0.02,-0.04 0.06,-0.16 0.09,-0.27 0.03,-0.11 0.07,-0.26 0.1,-0.33 0.13,-0.4 0.26,-0.83 0.26,-0.91 0,-0.05 0.03,-0.13 0.06,-0.18 0.03,-0.05 0.08,-0.19 0.09,-0.3 0.02,-0.12 0.06,-0.27 0.09,-0.33 0.08,-0.16 0.2,-0.55 0.2,-0.64 0,-0.05 0.02,-0.1 0.04,-0.13 0.02,-0.02 0.06,-0.13 0.09,-0.24 0.03,-0.11 0.09,-0.3 0.13,-0.44 0.09,-0.26 0.21,-0.67 0.33,-1.07 0.04,-0.14 0.1,-0.33 0.13,-0.41 0.03,-0.08 0.08,-0.24 0.11,-0.35 0.03,-0.11 0.07,-0.23 0.09,-0.27 0.02,-0.04 0.04,-0.11 0.04,-0.16 0,-0.05 0.03,-0.15 0.06,-0.23 0.09,-0.22 0.25,-0.75 0.25,-0.85 0,-0.05 0.02,-0.1 0.04,-0.12 0.04,-0.02 0.15,-0.37 0.27,-0.83 0.03,-0.1 0.06,-0.21 0.09,-0.25 0.02,-0.04 0.04,-0.11 0.04,-0.16 0,-0.05 0.03,-0.15 0.06,-0.23 0.03,-0.08 0.11,-0.32 0.18,-0.54 0.06,-0.22 0.15,-0.48 0.19,-0.59 0.04,-0.11 0.12,-0.37 0.18,-0.58 0.13,-0.46 0.18,-0.49 0.44,-0.28 0.1,0.08 0.28,0.2 0.39,0.26 0.22,0.13 0.4,0.28 0.57,0.51 0.22,0.28 0.25,0.03 0.08,-0.59 -0.32,-1.15 -0.37,-3.04 -0.11,-4.1 0.06,-0.24 0.13,-0.55 0.16,-0.68 0.06,-0.26 0.16,-0.6 0.24,-0.81 0.03,-0.07 0.09,-0.26 0.13,-0.41 0.04,-0.16 0.09,-0.3 0.11,-0.33 0.02,-0.02 0.04,-0.1 0.04,-0.16 0,-0.07 0.02,-0.16 0.04,-0.2 0.06,-0.12 0.14,-0.42 0.13,-0.47 -0.01,-0.02 0.01,-0.1 0.04,-0.17 0.07,-0.18 0.18,-0.82 0.23,-1.35 0.06,-0.67 0.13,-1.03 0.21,-1.18 0.09,-0.16 0.15,-0.39 0.13,-0.51 -0.01,-0.04 0.01,-0.1 0.03,-0.13 0.05,-0.06 -0.01,-0.99 -0.08,-1.11 -0.02,-0.04 -0.06,-0.18 -0.09,-0.3 -0.03,-0.12 -0.09,-0.26 -0.13,-0.31 -0.04,-0.05 -0.09,-0.14 -0.1,-0.2 -0.01,-0.06 -0.05,-0.25 -0.09,-0.41 -0.04,-0.17 -0.09,-0.38 -0.12,-0.48 -0.16,-0.59 -0.23,-0.8 -0.28,-0.91 -0.04,-0.07 -0.06,-0.15 -0.06,-0.18 0,-0.12 -0.5,-1.17 -0.59,-1.25 -0.05,-0.04 -0.05,-0.07 -0.01,-0.11 0.11,-0.13 0.47,0.12 1.31,0.92 0.18,0.17 0.5,0.45 0.7,0.62 0.56,0.47 2.71,2.64 2.86,2.87 0.04,0.07 0.23,0.29 0.42,0.48 0.18,0.19 0.38,0.42 0.45,0.52 0.06,0.09 0.21,0.28 0.34,0.41 0.13,0.14 0.29,0.33 0.35,0.42 0.06,0.1 0.19,0.25 0.28,0.35 0.09,0.1 0.24,0.27 0.33,0.39 0.31,0.41 1.14,1.14 1.59,1.39 0.12,0.06 0.28,0.17 0.37,0.24 0.09,0.07 0.23,0.15 0.31,0.18 0.08,0.03 0.18,0.08 0.21,0.1 0.07,0.05 0.46,0.2 0.62,0.24 0.06,0.01 0.15,0.05 0.2,0.08 0.05,0.03 0.19,0.07 0.31,0.09 0.12,0.02 0.25,0.05 0.29,0.07 0.04,0.02 0.36,0.04 0.7,0.04 0.61,0 1.05,-0.05 1.4,-0.16 0.6,-0.2 1.43,-0.5 1.48,-0.55 0.02,-0.02 0.08,-0.04 0.12,-0.04 0.08,0 0.42,-0.12 0.97,-0.35 0.61,-0.26 0.71,-0.13 0.29,0.4 -0.14,0.18 -0.31,0.42 -0.38,0.55 -0.06,0.12 -0.22,0.34 -0.35,0.5 -0.13,0.15 -0.25,0.33 -0.26,0.4 -0.01,0.06 -0.13,0.24 -0.26,0.4 -0.13,0.15 -0.28,0.36 -0.32,0.46 -0.11,0.23 -0.2,0.36 -0.4,0.6 -0.09,0.11 -0.16,0.21 -0.16,0.23 0,0.06 -0.25,0.44 -0.44,0.67 -0.09,0.11 -0.19,0.27 -0.23,0.37 -0.04,0.09 -0.09,0.18 -0.1,0.2 -0.09,0.07 -0.36,0.44 -0.47,0.66 -0.07,0.13 -0.15,0.26 -0.18,0.27 -0.03,0.02 -0.06,0.05 -0.06,0.08 0,0.02 -0.06,0.11 -0.13,0.18 -0.22,0.24 -0.3,0.34 -0.45,0.54 -0.34,0.47 -0.62,0.78 -1.33,1.47 -0.42,0.41 -0.82,0.78 -0.9,0.83 -0.08,0.05 -0.24,0.18 -0.37,0.3 -0.13,0.12 -0.26,0.21 -0.29,0.21 -0.03,0 -0.13,0.06 -0.21,0.13 -0.14,0.13 -0.36,0.26 -0.73,0.44 -0.09,0.04 -0.17,0.1 -0.19,0.12 -0.02,0.02 -0.07,0.04 -0.12,0.04 -0.05,0 -0.13,0.02 -0.18,0.06 -0.05,0.03 -0.17,0.08 -0.28,0.11 -0.11,0.03 -0.25,0.07 -0.31,0.09 -0.22,0.07 -0.6,0.13 -1.02,0.17 -0.33,0.03 -0.45,0.05 -0.51,0.12 -0.07,0.07 -0.19,0.42 -0.4,1.17 -0.03,0.1 -0.07,0.22 -0.09,0.27 -0.02,0.06 -0.04,0.14 -0.04,0.19 0,0.05 -0.02,0.12 -0.04,0.16 -0.02,0.04 -0.1,0.29 -0.18,0.56 -0.07,0.26 -0.15,0.51 -0.17,0.55 -0.02,0.04 -0.05,0.17 -0.07,0.31 -0.02,0.13 -0.05,0.26 -0.07,0.28 -0.02,0.02 -0.04,0.1 -0.06,0.17 -0.01,0.07 -0.04,0.2 -0.07,0.28 -0.12,0.41 -0.48,1.79 -0.53,2.03 -0.02,0.1 -0.07,0.26 -0.1,0.37 -0.04,0.11 -0.08,0.28 -0.09,0.39 -0.02,0.11 -0.04,0.24 -0.06,0.28 -0.02,0.05 -0.06,0.2 -0.1,0.35l-0.06 0.26 -3.8 0.01c-2.09,0.01 -3.81,-0 -3.83,-0.02z"/>
   <path fill="white" fill-rule="nonzero" d="M19.68 19.52c0,-0.05 -0.02,-0.08 -0.04,-0.06 -0.02,0.02 -0.04,0.06 -0.04,0.09 0,0.03 0.02,0.06 0.04,0.06 0.02,0 0.04,-0.04 0.04,-0.09z"/>
   <path fill="white" fill-rule="nonzero" d="M10.17 53.57c-0.1,-0.08 -0.2,-0.15 -0.21,-0.15 -0.06,-0 -0.57,-0.51 -0.57,-0.57 0,-0.04 0.03,-0.1 0.06,-0.15 0.04,-0.05 0.06,-0.12 0.07,-0.17 0,-0.05 0.05,-0.16 0.11,-0.24 0.06,-0.08 0.11,-0.17 0.11,-0.19 0,-0.03 0.07,-0.19 0.15,-0.36 0.08,-0.17 0.15,-0.33 0.15,-0.35 0,-0.02 0.03,-0.06 0.07,-0.09 0.04,-0.03 0.07,-0.1 0.07,-0.15 0,-0.05 0.06,-0.19 0.13,-0.31 0.07,-0.12 0.13,-0.26 0.13,-0.31 0,-0.05 0.03,-0.12 0.06,-0.14 0.03,-0.03 0.08,-0.14 0.11,-0.24 0.03,-0.11 0.08,-0.22 0.11,-0.25 0.03,-0.03 0.06,-0.09 0.06,-0.13 0,-0.05 0.06,-0.17 0.13,-0.29 0.07,-0.11 0.13,-0.22 0.13,-0.24 0,-0.05 0.19,-0.47 0.31,-0.7 0.05,-0.09 0.09,-0.19 0.09,-0.22 0,-0.03 0.05,-0.15 0.11,-0.26 0.06,-0.11 0.11,-0.23 0.11,-0.27 0,-0.03 0.04,-0.11 0.09,-0.17 0.05,-0.06 0.09,-0.15 0.09,-0.19 0,-0.04 0.04,-0.14 0.09,-0.22 0.05,-0.08 0.09,-0.18 0.09,-0.23 0,-0.05 0.05,-0.16 0.11,-0.25 0.06,-0.09 0.11,-0.18 0.11,-0.21 0,-0.05 0.17,-0.47 0.28,-0.68 0.03,-0.06 0.07,-0.17 0.09,-0.25 0.02,-0.08 0.06,-0.16 0.09,-0.19 0.03,-0.03 0.06,-0.08 0.06,-0.11 0,-0.03 0.04,-0.14 0.09,-0.24 0.05,-0.1 0.09,-0.21 0.09,-0.24 0,-0.03 0.04,-0.13 0.09,-0.22 0.05,-0.09 0.09,-0.2 0.09,-0.25 0,-0.05 0.03,-0.11 0.06,-0.15 0.06,-0.07 0.17,-0.34 0.24,-0.59 0.02,-0.07 0.07,-0.19 0.1,-0.26 0.04,-0.07 0.09,-0.18 0.11,-0.24 0.03,-0.06 0.06,-0.14 0.08,-0.17 0.04,-0.06 0.1,-0.29 0.17,-0.57 0.01,-0.06 0.05,-0.14 0.08,-0.17 0.03,-0.04 0.1,-0.2 0.15,-0.37 0.06,-0.17 0.14,-0.38 0.18,-0.48 0.04,-0.1 0.08,-0.2 0.08,-0.23 0,-0.03 0.03,-0.1 0.06,-0.17 0.07,-0.15 0.15,-0.37 0.2,-0.58 0.02,-0.08 0.06,-0.17 0.08,-0.19 0.03,-0.03 0.05,-0.08 0.05,-0.13 0,-0.04 0.06,-0.25 0.13,-0.46 0.27,-0.79 0.21,-1.39 -0.26,-2.87 -0.02,-0.07 -0.04,-0.17 -0.04,-0.22 0,-0.05 -0.03,-0.12 -0.06,-0.17 -0.04,-0.05 -0.06,-0.12 -0.07,-0.17 0,-0.05 -0.04,-0.19 -0.08,-0.33 -0.04,-0.13 -0.1,-0.32 -0.13,-0.42 -0.02,-0.1 -0.08,-0.28 -0.11,-0.4 -0.04,-0.12 -0.07,-0.26 -0.07,-0.3 0,-0.04 -0.02,-0.1 -0.04,-0.14 -0.11,-0.22 -0.18,-0.41 -0.16,-0.45 0.01,-0.02 -0,-0.1 -0.04,-0.16 -0.04,-0.07 -0.09,-0.25 -0.13,-0.4 -0.15,-0.63 -0.22,-0.86 -0.27,-0.97 -0.03,-0.06 -0.06,-0.16 -0.06,-0.2 0,-0.05 -0.02,-0.1 -0.04,-0.12 -0.02,-0.02 -0.04,-0.08 -0.04,-0.15 0,-0.07 -0.04,-0.22 -0.09,-0.33 -0.05,-0.11 -0.1,-0.28 -0.12,-0.38 -0.02,-0.09 -0.04,-0.18 -0.06,-0.19 -0.02,-0.01 -0.04,-0.07 -0.04,-0.13 0,-0.06 -0.02,-0.15 -0.04,-0.21 -0.08,-0.2 -0.26,-0.8 -0.31,-1.04 -0.03,-0.13 -0.08,-0.3 -0.11,-0.38 -0.03,-0.08 -0.06,-0.16 -0.06,-0.2 0,-0.07 -0.16,-0.59 -0.22,-0.69 -0.02,-0.04 -0.05,-0.16 -0.07,-0.26 -0.02,-0.11 -0.05,-0.21 -0.06,-0.24 -0.02,-0.02 -0.06,-0.14 -0.09,-0.26 -0.03,-0.12 -0.07,-0.26 -0.09,-0.31 -0.02,-0.05 -0.05,-0.14 -0.06,-0.2 -0.01,-0.06 -0.05,-0.22 -0.09,-0.35 -0.04,-0.13 -0.09,-0.31 -0.11,-0.39 -0.02,-0.08 -0.1,-0.32 -0.17,-0.53 -0.07,-0.21 -0.14,-0.42 -0.14,-0.46 0,-0.05 -0.02,-0.1 -0.03,-0.12 -0.02,-0.02 -0.06,-0.12 -0.08,-0.24 -0.03,-0.11 -0.1,-0.34 -0.16,-0.51 -0.11,-0.29 -0.2,-0.59 -0.3,-0.96 -0.03,-0.1 -0.07,-0.24 -0.11,-0.33 -0.03,-0.08 -0.08,-0.25 -0.11,-0.36 -0.03,-0.11 -0.07,-0.22 -0.09,-0.23 -0.02,-0.01 -0.04,-0.08 -0.04,-0.14 0,-0.07 -0.02,-0.14 -0.04,-0.16 -0.02,-0.02 -0.06,-0.13 -0.09,-0.24 -0.02,-0.11 -0.1,-0.36 -0.17,-0.56 -0.2,-0.57 -0.25,-0.85 -0.25,-1.37 0,-0.56 0.09,-1.28 0.18,-1.38 0.03,-0.04 0.06,-0.1 0.06,-0.14 0,-0.04 0.03,-0.14 0.07,-0.21 0.04,-0.08 0.08,-0.19 0.1,-0.26 0.01,-0.06 0.12,-0.24 0.24,-0.39 0.32,-0.4 1.19,-1.26 1.27,-1.26 0.04,0 0.18,-0.11 0.32,-0.25 0.13,-0.14 0.31,-0.29 0.4,-0.34 0.08,-0.05 0.27,-0.19 0.41,-0.33 0.14,-0.13 0.33,-0.28 0.41,-0.32 0.08,-0.04 0.23,-0.16 0.33,-0.27 0.1,-0.11 0.24,-0.23 0.33,-0.26 0.08,-0.03 0.28,-0.19 0.45,-0.34 0.16,-0.15 0.32,-0.28 0.34,-0.28 0.02,0 0.18,-0.12 0.34,-0.27 0.16,-0.15 0.38,-0.32 0.47,-0.38 0.1,-0.06 0.25,-0.19 0.35,-0.29 0.1,-0.1 0.26,-0.23 0.37,-0.3 0.11,-0.07 0.28,-0.2 0.39,-0.31 0.11,-0.1 0.29,-0.25 0.41,-0.33 0.11,-0.08 0.31,-0.24 0.44,-0.36 0.12,-0.11 0.25,-0.21 0.27,-0.21 0.03,0 0.1,-0.04 0.16,-0.09 0.23,-0.18 0.63,-0.31 1.03,-0.31 0.37,-0.01 0.54,0.03 0.91,0.19 0.1,0.05 0.22,0.08 0.25,0.08 0.04,0 0.17,0.08 0.29,0.18 0.12,0.1 0.29,0.21 0.37,0.24 0.08,0.03 0.22,0.12 0.31,0.19 0.09,0.07 0.26,0.18 0.39,0.24 0.12,0.06 0.28,0.16 0.34,0.22 0.06,0.06 0.24,0.16 0.39,0.23 0.15,0.07 0.34,0.19 0.42,0.26 0.08,0.07 0.21,0.15 0.27,0.16 0.06,0.02 0.25,0.13 0.41,0.24 0.16,0.12 0.32,0.21 0.36,0.21 0.04,0 0.18,0.09 0.32,0.2 0.14,0.11 0.32,0.22 0.39,0.25 0.08,0.02 0.25,0.13 0.38,0.23 0.13,0.1 0.3,0.21 0.37,0.24 0.07,0.03 0.2,0.11 0.28,0.18 0.09,0.07 0.25,0.17 0.37,0.22 0.12,0.06 0.3,0.17 0.39,0.24 0.1,0.08 0.25,0.16 0.34,0.2 0.09,0.03 0.26,0.14 0.38,0.24 0.12,0.1 0.29,0.2 0.38,0.24 0.09,0.03 0.24,0.12 0.34,0.2 0.1,0.08 0.23,0.15 0.3,0.17 0.07,0.02 0.2,0.09 0.28,0.15 0.09,0.07 0.26,0.18 0.39,0.25 0.25,0.13 1.02,0.77 1.47,1.23 0.15,0.15 0.32,0.38 0.42,0.58 0.15,0.3 0.16,0.35 0.16,0.69 0,0.35 -0.01,0.39 -0.22,0.82 -0.12,0.25 -0.22,0.47 -0.22,0.49 0,0.02 -0.09,0.13 -0.21,0.26 -0.11,0.12 -0.28,0.31 -0.37,0.41 -0.09,0.1 -0.23,0.23 -0.33,0.28 -0.09,0.05 -0.24,0.14 -0.32,0.2 -0.16,0.12 -0.73,0.39 -0.82,0.39 -0.03,0 -0.1,0.02 -0.15,0.05 -0.05,0.03 -0.23,0.05 -0.4,0.06 -0.18,0.01 -0.36,0.04 -0.44,0.08 -0.17,0.09 -0.24,0.09 -1.42,0.09 -0.61,-0 -1.06,-0.02 -1.2,-0.05 -0.23,-0.06 -0.53,-0.09 -0.74,-0.1 -0.07,0 -0.15,-0.02 -0.17,-0.04 -0.04,-0.03 -0.26,-0.09 -0.48,-0.12 -0.05,-0.01 -0.17,-0.04 -0.26,-0.06 -0.1,-0.03 -0.24,-0.06 -0.32,-0.08 -0.08,-0.01 -0.15,-0.04 -0.17,-0.06 -0.01,-0.02 -0.07,-0.04 -0.13,-0.04 -0.06,0 -0.15,-0.02 -0.21,-0.04 -0.06,-0.02 -0.22,-0.07 -0.36,-0.12 -0.41,-0.12 -0.85,-0.29 -0.87,-0.33 -0.01,-0.02 -0.06,-0.04 -0.1,-0.04 -0.11,0 -0.45,-0.31 -0.58,-0.51 -0.05,-0.09 -0.15,-0.23 -0.22,-0.31 -0.07,-0.08 -0.12,-0.18 -0.12,-0.22 0,-0.04 -0.04,-0.13 -0.08,-0.22 -0.05,-0.08 -0.1,-0.22 -0.11,-0.32 -0.03,-0.18 -0.09,-0.21 -0.13,-0.07 -0.04,0.16 0.04,0.91 0.12,1.12 0.04,0.11 0.08,0.3 0.1,0.43l0.03 0.23 -0.24 0c-0.13,0 -0.34,-0.03 -0.45,-0.06 -0.25,-0.07 -1.29,-0.07 -1.71,0.01 -0.3,0.05 -0.77,0.27 -0.72,0.33 0.02,0.02 0.28,0.05 0.58,0.06 0.3,0.01 0.61,0.04 0.7,0.06 0.08,0.02 0.19,0.04 0.24,0.04 0.17,0.01 0.64,0.09 0.71,0.13 0.04,0.02 0.19,0.05 0.32,0.07 0.14,0.02 0.27,0.06 0.3,0.09 0.03,0.03 0.09,0.06 0.14,0.06 0.11,0 0.6,0.17 0.66,0.22 0.02,0.02 0.09,0.04 0.14,0.04 0.06,0 0.1,0.02 0.1,0.04 0,0.05 0.29,0.18 0.38,0.18 0.04,0 0.14,0.06 0.23,0.13 0.08,0.07 0.22,0.15 0.31,0.18 0.08,0.03 0.26,0.13 0.39,0.23 0.13,0.1 0.33,0.23 0.44,0.28 0.36,0.17 2.44,2.05 2.68,2.43 0.08,0.12 0.21,0.29 0.3,0.38 0.09,0.09 0.16,0.19 0.16,0.22 0,0.03 0.08,0.15 0.17,0.27 0.09,0.11 0.18,0.25 0.2,0.3 0.02,0.05 0.06,0.14 0.11,0.18 0.04,0.05 0.09,0.14 0.11,0.2 0.02,0.06 0.08,0.17 0.14,0.25 0.06,0.08 0.1,0.16 0.1,0.18 0,0.02 0.06,0.16 0.13,0.3 0.14,0.29 0.58,1.54 0.55,1.58 -0.01,0.02 0.01,0.12 0.05,0.22 0.04,0.11 0.08,0.35 0.1,0.54 0.02,0.19 0.06,0.43 0.09,0.52 0.06,0.21 0.09,1.9 0.03,2.25 -0.02,0.13 -0.04,0.31 -0.05,0.39 -0.01,0.08 -0.02,0.17 -0.04,0.2 -0.01,0.02 -0.04,0.18 -0.06,0.35 -0.05,0.51 -0.31,1.66 -0.42,1.86 -0.02,0.04 -0.04,0.12 -0.04,0.17 0,0.05 -0.02,0.13 -0.04,0.17 -0.02,0.04 -0.06,0.16 -0.09,0.27 -0.03,0.11 -0.09,0.28 -0.14,0.38 -0.05,0.1 -0.08,0.22 -0.08,0.26 0,0.04 -0.03,0.11 -0.07,0.16 -0.03,0.05 -0.06,0.12 -0.06,0.15 0,0.04 -0.04,0.14 -0.09,0.23 -0.05,0.09 -0.09,0.2 -0.09,0.24 -0,0.04 -0.03,0.12 -0.07,0.16 -0.04,0.05 -0.08,0.16 -0.11,0.25 -0.02,0.09 -0.09,0.22 -0.14,0.29 -0.05,0.07 -0.14,0.21 -0.2,0.33 -0.12,0.24 -0.72,0.91 -0.81,0.91 -0.03,0 -0.14,0.07 -0.24,0.16 -0.2,0.18 -0.43,0.32 -0.89,0.54 -0.17,0.08 -0.41,0.24 -0.55,0.36 -0.13,0.12 -0.29,0.23 -0.34,0.26 -0.22,0.1 -0.07,0.12 0.63,0.09 0.5,-0.02 0.79,-0.01 0.91,0.02l0.18 0.05 -0.02 0.18c-0.01,0.1 -0.05,0.22 -0.08,0.27 -0.03,0.05 -0.07,0.15 -0.09,0.24 -0.02,0.08 -0.05,0.18 -0.07,0.22 -0.02,0.04 -0.06,0.15 -0.09,0.26 -0.03,0.11 -0.11,0.35 -0.17,0.55 -0.07,0.19 -0.2,0.61 -0.3,0.94 -0.1,0.32 -0.2,0.63 -0.22,0.68 -0.02,0.05 -0.1,0.29 -0.17,0.55 -0.08,0.25 -0.16,0.49 -0.18,0.53 -0.02,0.04 -0.04,0.12 -0.04,0.18 0,0.06 -0.03,0.14 -0.06,0.19 -0.04,0.05 -0.07,0.12 -0.07,0.15 -0,0.04 -0.1,0.36 -0.22,0.72 -0.12,0.36 -0.23,0.71 -0.25,0.79 -0.01,0.08 -0.04,0.15 -0.06,0.17 -0.02,0.01 -0.04,0.06 -0.04,0.11 0,0.04 -0.03,0.14 -0.06,0.2 -0.04,0.07 -0.1,0.25 -0.14,0.41 -0.04,0.16 -0.1,0.32 -0.13,0.37 -0.03,0.05 -0.05,0.1 -0.03,0.12 0.02,0.02 -0.28,1.01 -0.39,1.28 -0.05,0.12 -0.13,0.37 -0.26,0.81 -0.02,0.08 -0.06,0.19 -0.08,0.24 -0.08,0.18 -0.18,0.48 -0.2,0.59 -0.01,0.06 -0.04,0.15 -0.06,0.2 -0.08,0.19 -0.13,0.4 -0.13,0.49 0,0.05 -0.02,0.11 -0.04,0.13 -0.02,0.02 -0.07,0.13 -0.1,0.24l-0.06 0.19 -5.11 0.01 -5.11 0.01 -0.18 -0.15z"/>
  </g>
 </g>
</svg>
