<?xml version="1.0" encoding="UTF-8"?>
<!DOCTYPE svg PUBLIC "-//W3C//DTD SVG 1.1//EN" "http://www.w3.org/Graphics/SVG/1.1/DTD/svg11.dtd">
<!-- Creator: CorelDRAW 2021 (64-Bit) -->
<svg xmlns="http://www.w3.org/2000/svg" xml:space="preserve" width="70.2mm" height="70.2mm" version="1.1" shape-rendering="geometricPrecision" text-rendering="geometricPrecision" image-rendering="optimizeQuality" fill-rule="evenodd" clip-rule="evenodd"
viewBox="0 0 226.15 226.15"
 xmlns:xlink="http://www.w3.org/1999/xlink"
 xmlns:xodm="http://www.corel.com/coreldraw/odm/2003">
 <g id="Слой_x0020_1">
  <metadata id="CorelCorpID_0Corel-Layer"/>
  <circle fill="none" stroke="white" stroke-width="0.64" stroke-miterlimit="22.9256" cx="113.08" cy="113.08" r="112.75"/>
  <path fill="white" d="M137.13 174.46l0.03 -0c0.17,0.91 0.98,1.59 1.93,1.58l16.18 -0.19c0.95,-0.01 1.74,-0.72 1.89,-1.63l0.08 -0c-0.03,-2.33 -0.05,-4.66 -0.08,-7 -0.01,-0.96 -0.18,-5.93 -0.02,-6.43 0.24,-0 0.45,-0.09 0.65,-0.12 0.28,-0.03 0.55,-0.02 0.78,-0.06l4.93 -1.01c0.22,-0.08 0.44,-0.07 0.69,-0.14 0.23,-0.07 0.38,-0.13 0.66,-0.17l1.01 -0.3c0.55,-0.21 1.11,-0.28 1.63,-0.51 0.12,-0.05 0.17,-0.06 0.31,-0.1l0.96 -0.35c0.23,-0.09 0.36,-0.11 0.61,-0.22l1.24 -0.49c0.78,-0.35 1.61,-0.63 2.37,-1 0.12,-0.06 0.15,-0.08 0.28,-0.13l3.13 -1.55c0.18,-0.09 0.35,-0.18 0.54,-0.29 0.2,-0.11 0.36,-0.21 0.56,-0.33l3.61 -2.24c0.2,-0.13 0.35,-0.21 0.54,-0.35l1.95 -1.41c0.17,-0.12 0.3,-0.25 0.46,-0.37 1.08,-0.82 2.77,-2.2 3.67,-3.12l5.69 -6.1c0.59,-0.82 1.27,-1.57 1.82,-2.42l0.68 -0.97c0.48,-0.66 0.88,-1.39 1.33,-2.08l2.27 -4.02c0.08,-0.16 0.07,-0.11 0.15,-0.27 0.06,-0.13 0.05,-0.15 0.12,-0.29 0.06,-0.11 0.09,-0.15 0.14,-0.26 0.01,-0.01 0.01,-0.03 0.02,-0.04l0.04 -0.08c0.05,-0.1 0.02,-0.03 0.08,-0.16 0.07,-0.15 0.07,-0.18 0.15,-0.32 0.1,-0.17 0.18,-0.36 0.27,-0.55 0.05,-0.11 0.06,-0.18 0.12,-0.29 0.06,-0.13 0.07,-0.11 0.13,-0.27l1 -2.41c0.05,-0.12 0.06,-0.18 0.11,-0.3 0.04,-0.12 0.07,-0.17 0.12,-0.3 0.04,-0.12 0.06,-0.2 0.1,-0.31 0.05,-0.13 0.08,-0.16 0.13,-0.33l0.63 -1.83c0.11,-0.42 0.34,-0.88 0.42,-1.28l0.35 -1.3c0.07,-0.2 0.1,-0.5 0.18,-0.7l0.48 -1.97c0.07,-0.33 0.05,-0.44 0.14,-0.74l0.49 -2.89c0.03,-0.45 0.16,-0.96 0.21,-1.43 0.03,-0.32 -0,-0.49 0.05,-0.77 0.05,-0.27 0.11,-0.46 0.12,-0.76l0.05 -1.18c0.05,-0.41 0.03,0.02 0.1,-0.31 0.08,-0.38 -0.04,-4.47 -0.05,-5.06 -0.01,-0.54 0.03,-3.08 -0.07,-3.4l-0.05 -0.12c-0.06,-0.15 -0.13,-1.58 -0.24,-2.09 -0.07,-0.31 -0.04,-0.46 -0.08,-0.8l-0.38 -2.13c-0.08,-0.27 -0.09,-0.48 -0.12,-0.77 -0.03,-0.26 -0.13,-0.44 -0.17,-0.66 -0.05,-0.32 -0.01,-0.41 -0.13,-0.72l-0.89 -3.38c-0.05,-0.12 -0.07,-0.14 -0.11,-0.31 -0.04,-0.17 -0.04,-0.22 -0.09,-0.38 -0.05,-0.15 -0.07,-0.13 -0.12,-0.3 -0.04,-0.14 -0.03,-0.21 -0.07,-0.35l-0.54 -1.53c-0.09,-0.21 -0.05,-0.13 -0.12,-0.36 -0.04,-0.14 -0.06,-0.15 -0.12,-0.29l-0.47 -1.19c-0.38,-0.85 -0.64,-1.61 -1.13,-2.67l-1.71 -3.44c-0.1,-0.17 -0.21,-0.37 -0.29,-0.53 -0.34,-0.62 -1.21,-2.17 -1.57,-2.64 -0.31,-0.4 -0.53,-0.84 -0.82,-1.24l-0.19 -0.29c-0.13,-0.2 -0.18,-0.29 -0.34,-0.49l-3.36 -4.31c-0.12,-0.15 -0.24,-0.32 -0.37,-0.46l-0.62 -0.68c-0.01,-0.01 -0.02,-0.02 -0.03,-0.03 -0.01,-0.01 -0.02,-0.02 -0.03,-0.03l-0.52 -0.59c-0.3,-0.38 -0.74,-0.75 -1.07,-1.11 -0.01,-0.01 -0.02,-0.02 -0.03,-0.03 -0.45,-0.48 -0.93,-0.98 -1.44,-1.4 -0.19,-0.16 -0.26,-0.2 -0.44,-0.38l-5.18 -4.24 -3.76 -2.47c-0.01,-0.01 -0.02,-0.02 -0.03,-0.02l-2.86 -1.62c-0.13,-0.06 -0.15,-0.05 -0.29,-0.12 -1.11,-0.59 -2.26,-1.15 -3.44,-1.61 -0.2,-0.08 -0.13,-0.08 -0.31,-0.16l-0.58 -0.25c-0.06,-0.02 -0.08,-0.02 -0.13,-0.04 -0.13,-0.05 -0.02,-0.01 -0.16,-0.07l-0.64 -0.24c-0.12,-0.05 -0.2,-0.05 -0.31,-0.1 -0.11,-0.05 -0.16,-0.09 -0.28,-0.13l-1.56 -0.55c-0.23,-0.1 -0.4,-0.1 -0.62,-0.2l-3.86 -1.12c-0.6,-0.1 -2.37,-0.58 -2.78,-0.62 -0.55,-0.05 -0.92,-0.19 -1.47,-0.22 -0.24,-0.02 -0.45,-0.11 -0.67,-0.15 -0.28,-0.05 -0.44,-0.05 -0.74,-0.08 -0.2,-0.02 -0.49,-0.09 -0.75,-0.13 -0.27,-0.04 -0.51,0 -0.78,-0.04 -0.55,-0.08 -0.98,-0.2 -1.5,-0.2 -0.28,-0 -0.6,0.05 -0.86,-0.02l-0.74 -0.08c-0.74,0.01 -1.82,0.12 -2.51,0.02 -0.99,-0.15 -1.27,-0.44 -2.98,-0.42l-15.51 0.19c-2.16,0.03 -4.31,0.49 -5.83,1.12 -0.93,0.39 -1.87,0.95 -2.55,1.66 -0.01,0.01 -0.02,0.02 -0.03,0.03l-2.02 2.39c-0.71,1.08 -1.22,2.22 -1.74,3.43 -0.56,1.3 -1.28,3.62 -1.8,5.12 -0.07,0.2 -0.02,0.09 -0.11,0.3l-5.85 16.08c-0.04,0.11 -0.06,0.17 -0.11,0.31l-2.02 5.55c-0,0.01 -0.01,0.03 -0.02,0.04l-1.08 2.96c-0.09,0.23 -0.13,0.36 -0.22,0.6l-7.13 19.62c-0.33,0.87 -0.59,1.67 -0.92,2.54l-3.69 10.15c-0.23,0.66 -0.75,1.87 -0.91,2.55 -0.39,0 -0.35,-0.06 -0.46,-0.37 -0.1,-0.32 -0.13,-0.33 -0.24,-0.65l-1.93 -5.13c-0.18,-0.44 -0.31,-0.85 -0.49,-1.29 -0.43,-1.06 -0.78,-2.17 -1.22,-3.22 -0.01,-0.01 -0.01,-0.03 -0.02,-0.04l-0.7 -1.86c-0.59,-1.4 -1.39,-3.65 -1.93,-5.13 -0.32,-0.88 -0.66,-1.69 -0.97,-2.58 -0.74,-2.12 -1.66,-4.25 -2.41,-6.37 -0.15,-0.43 -0.32,-0.86 -0.49,-1.3 -1.29,-3.41 -2.52,-6.83 -3.86,-10.25l-0.73 -1.94c-0.78,-1.91 -1.41,-3.84 -2.18,-5.76 -0.12,-0.29 -0.32,-0.86 -0.47,-1.26l-1.69 -4.47c-0.99,-2.81 -2.12,-5.57 -3.15,-8.35l-1.13 -3.27c-0.05,-0.13 -0.08,-0.18 -0.12,-0.29 -0.05,-0.11 -0.07,-0.2 -0.12,-0.36 -0.29,-0.86 -0.64,-1.67 -1.06,-2.49 -0.49,-0.97 -1.04,-1.82 -1.7,-2.68l-0.85 -0.92c-0.01,-0.01 -0.02,-0.02 -0.03,-0.03l-0.88 -0.78c-1.27,-0.94 -2.56,-1.61 -4.14,-2.03 -1.75,-0.47 -4.02,-0.76 -6.27,-0.74l-15.27 0.18c-2.18,0.03 -4.17,0.95 -5.56,2.5l-0.41 0.53c-0.07,0.11 -0.12,0.19 -0.18,0.29 -0.26,0.4 -0.42,0.74 -0.63,1.25 -0.84,2.04 -0.65,4.71 -0.63,6.9l1.05 87.17c0.03,2.52 -0.4,4.5 2.31,5.27 1.95,0.55 4.29,0.78 6.79,0.75 2.7,-0.03 7.79,-0.09 9.87,-1.38 1.66,-1.03 1.23,-2.9 1.2,-4.82l-0.87 -82.04c0.03,0.28 0.39,1.22 0.48,1.48l1.59 4.4c1.54,4.4 3.19,8.81 4.72,13.21 0.17,0.49 0.36,0.99 0.53,1.48l1.57 4.41c1.18,3.45 2.51,6.9 3.69,10.31 1.02,2.93 2.14,5.84 3.14,8.78l1.05 2.98c1.42,3.9 2.81,7.83 4.21,11.75l2.61 7.29c1.9,5.41 3.91,10.76 5.8,16.21 0.18,0.51 0.34,0.96 0.52,1.45 0.55,1.52 0.8,1.96 2.21,2.74 0.13,0.07 0.17,0.08 0.33,0.14 3.01,1.2 7.32,0.99 10.83,0.97 0.41,-0 0.56,-0.07 0.94,-0.07 0.63,-0.01 1.33,-0.02 1.91,-0.11 2.05,-0.32 4.36,-0.57 5.39,-2.66 0.39,-0.79 2.15,-6.23 2.55,-7.36 0.08,-0.23 0.17,-0.46 0.26,-0.74l0.77 -2.22c0.63,-1.81 1.36,-4.18 2.02,-5.89l9.14 -26.63c0.15,-0.49 0.34,-1 0.51,-1.48 0.18,-0.51 0.32,-0.96 0.5,-1.49l7.11 -20.68c0.56,-1.49 0.99,-2.92 1.53,-4.46l4.83 -14.1c0.09,-0.26 0.1,-0.58 0.35,-0.65l1.1 91.56 0.18 15.3 0 0.34zm19.9 -22.34c-0.18,-0.45 -0.17,-8.89 -0.18,-10.14 -0.02,-1.26 -0.23,-9.73 -0.06,-10.2l14.27 -0.17c0.75,-0.01 1.03,-0.11 0.69,0.57l-1.71 4.27c-0.08,0.18 -0.08,0.19 -0.17,0.35 -0.09,0.16 -0.1,0.23 -0.19,0.4 -0.06,0.11 -0.03,0.05 -0.08,0.15l-1.6 3.1c-0.31,0.53 -0.22,0.47 -0.62,1.03l-0.64 1.01c-0.1,0.14 -0.14,0.22 -0.23,0.36l-1.86 2.56c-0.17,0.23 -0.31,0.4 -0.48,0.64 -0.11,0.15 -0.14,0.16 -0.24,0.29 -0.07,0.09 -0.05,0.07 -0.1,0.14 -0.22,0.29 -1.17,1.16 -1.52,1.59 -0.01,0.01 -0.02,0.02 -0.03,0.03 -0.01,0.01 -0.02,0.02 -0.03,0.03l-1.35 1.25c-0.23,0.18 -0.4,0.32 -0.62,0.5l-3.26 2.24zm14.76 -3.54c0.02,-0.24 0.14,-0.31 0.27,-0.49 0.09,-0.12 0.08,-0.13 0.16,-0.25 0.06,-0.09 0.1,-0.14 0.17,-0.24 0.58,-0.78 1.39,-2.07 1.83,-2.94l0.69 -1.25c0.07,-0.15 0.06,-0.13 0.14,-0.27 0.11,-0.21 0.18,-0.32 0.29,-0.53l1.08 -2.1c0.07,-0.16 0.15,-0.37 0.23,-0.53l0.96 -2.2c0.42,-0.98 0.56,-1.27 0.89,-2.28 0.04,-0.13 0.08,-0.17 0.12,-0.29 0.05,-0.13 0.05,-0.18 0.09,-0.31 0.03,-0.09 0.07,-0.16 0.1,-0.25 0.05,-0.12 0.05,-0.18 0.1,-0.32 0.07,-0.2 0.07,-0.14 0.12,-0.29l0.7 -2.05c0.05,-0.19 0.12,-0.48 0.35,-0.48l10.5 -0.13c-0,0.38 -0.64,1.11 -0.83,1.41l-3.54 4.6c-0.01,0.01 -0.02,0.02 -0.03,0.03l-4.66 4.66c-0.11,0.12 0.01,0 -0.09,0.08l-1.42 1.11c-1.05,0.84 -2.1,1.67 -3.24,2.37l-4.97 2.95zm2.3 -24.56c-1.81,0.02 -17.06,0.11 -17.45,0.27l-0.17 -14.51c0.38,-0.15 17.46,-0.27 19.4,-0.29l-0.13 2.03c-0.08,0.62 0.01,1.33 -0.08,1.97l-0.12 0.88c-0.04,0.31 -0.01,0.63 -0.05,0.93 -0.05,0.31 -0.13,0.58 -0.13,0.86 -0.01,0.33 -0.02,0.66 -0.07,0.98l-0.28 1.7c-0.1,0.48 -0,0.54 -0.19,1.34 -0.04,0.17 -0.03,0.18 -0.06,0.46l-0.33 1.66c-0.07,0.26 -0.07,0.6 -0.14,0.85 -0.17,0.6 -0.09,0.44 -0.18,0.87zm20.46 -0.25l-12.74 0.15 0.18 -1.27c0.03,-0.18 0.08,-0.26 0.11,-0.42 0.07,-0.28 0.05,-0.58 0.12,-0.86l0.3 -1.76c0.03,-0.25 0.03,-0.66 0.08,-0.92l0.27 -1.77c0.11,-0.6 0.05,-1.03 0.15,-1.83l0.28 -3.75c-0.01,-0.52 0,-1.54 0.09,-1.95l12.15 -0.15c0.64,-0.01 1.39,-0.05 2.01,-0.03 0.23,0.01 0.26,-0.04 0.27,0.16l-0.2 1.39c-0.04,0.37 -0,0.6 -0.06,0.94l-1.32 6.69c-0.08,0.31 -0.01,0.3 -0.15,0.62 -0.01,0.01 -0.01,0.03 -0.02,0.04 -0.12,0.28 -0.06,0.31 -0.12,0.51l-0.5 1.56c-0.07,0.15 -0.08,0.25 -0.13,0.38 -0.05,0.13 -0.08,0.15 -0.13,0.34 -0.16,0.54 -0.58,1.52 -0.66,1.92zm-38.36 -35.99c0.4,-0.16 15.65,-0.25 17.46,-0.27 0.04,0.18 0.04,0.19 0.07,0.41 0.03,0.21 0.07,0.23 0.12,0.41 0.07,0.24 0.07,0.57 0.16,0.86 0.2,0.67 0.07,0.31 0.17,0.84 0.04,0.23 0.08,0.22 0.13,0.4l0.39 2.23c0.08,0.34 0.13,0.47 0.15,0.86 0.02,0.43 0.2,0.78 0.26,1.82 0.02,0.3 0.11,0.59 0.16,0.91 0.05,0.3 0.04,0.68 0.08,0.93 0.05,0.35 0.11,0.62 0.14,0.93 0.07,0.6 0.05,1.41 0.13,1.97l0.16 1.92 -19.34 0.23c-0.15,-0.33 -0.21,-12.95 -0.23,-14.45zm25.18 -0.36l12.74 -0.15c0.09,0.37 0.26,0.72 0.42,1.07 0.06,0.15 0.08,0.26 0.13,0.41 0.06,0.15 0.07,0.15 0.13,0.34 0.05,0.16 0.08,0.22 0.15,0.38 0.07,0.15 0.07,0.2 0.13,0.35l0.87 2.69c0.24,0.91 0.48,1.36 0.66,2.43 0.06,0.34 0.15,0.49 0.2,0.82 0.06,0.42 0.09,0.56 0.19,0.88 0.08,0.29 0.07,0.54 0.16,0.84 0.23,0.71 0.33,2.67 0.52,3.59 0.13,0.65 0.14,0.64 -0.13,0.68l-14.22 0.17c-0.09,-0.38 -0.22,-3.7 -0.39,-4.74 -0.05,-0.34 -0.05,-0.57 -0.11,-0.89 -0.11,-0.59 -0.1,-1.35 -0.21,-1.89l-0.3 -1.72c-0.06,-0.22 -0.07,-0.66 -0.1,-0.91 -0.07,-0.42 -0.11,-0.53 -0.17,-0.89 -0.09,-0.53 0.04,-0.14 -0.16,-0.84l-0.49 -2.61zm-25.21 -7.25c-0.18,-0.45 -0.17,-8.89 -0.18,-10.13 -0.02,-1.26 -0.23,-9.76 -0.06,-10.21l2.32 1.38c0.48,0.3 1.6,1.26 2.19,1.7 0.25,0.18 0.37,0.32 0.59,0.53l2.64 2.85c0.44,0.53 1.14,1.33 1.49,1.87 0.38,0.6 1.65,2.38 1.87,2.81l0.3 0.53c0.08,0.13 0.12,0.18 0.2,0.33l2.79 5.56 0.96 2.42c0,0.27 -0.47,0.18 -0.76,0.19l-14.33 0.17zm14.6 -17.16c0.17,0.04 0.2,0.1 0.35,0.18l1.86 0.96c0.13,0.07 0.22,0.11 0.35,0.18l3.83 2.35 3.2 2.4c0.28,0.2 0.36,0.31 0.59,0.53l2.19 1.94c0.72,0.56 0.85,0.84 1.33,1.32l2.15 2.33c0.19,0.19 0.36,0.42 0.52,0.61l2.53 3.38c0.26,0.38 0.28,0.29 0.29,0.59l-10.5 0.13c-0.29,0 -0.36,-0.53 -0.45,-0.74l-3.68 -8.71c-0.05,-0.1 -0.1,-0.16 -0.16,-0.26l-1.54 -2.71c-0.34,-0.53 -0.49,-0.93 -0.95,-1.6 -0.11,-0.16 -0.2,-0.29 -0.3,-0.47 -0.1,-0.17 -0.22,-0.3 -0.33,-0.49l-0.98 -1.39c-0.31,-0.41 -0.27,-0.22 -0.31,-0.52z"/>
 </g>
</svg>
