<?xml version="1.0" encoding="UTF-8"?>
<!DOCTYPE svg PUBLIC "-//W3C//DTD SVG 1.1//EN" "http://www.w3.org/Graphics/SVG/1.1/DTD/svg11.dtd">
<!-- Creator: CorelDRAW 2021 (64-Bit) -->
<svg xmlns="http://www.w3.org/2000/svg" xml:space="preserve" width="70mm" height="70mm" version="1.1" shape-rendering="geometricPrecision" text-rendering="geometricPrecision" image-rendering="optimizeQuality" fill-rule="evenodd" clip-rule="evenodd"
viewBox="0 0 326.91 326.91"
 xmlns:xlink="http://www.w3.org/1999/xlink"
 xmlns:xodm="http://www.corel.com/coreldraw/odm/2003">
 <g id="Слой_x0020_1">
  <metadata id="CorelCorpID_0Corel-Layer"/>
  <circle fill="none" cx="163.46" cy="163.46" r="163.46"/>
  <path id="radio-solid.svg" fill="white" fill-rule="nonzero" d="M262 77.2c5.24,-1.53 8.25,-7.06 6.73,-12.3 -1.53,-5.24 -7.06,-8.25 -12.34,-6.69l-177.26 51.96c-3.88,1.11 -7.39,3.01 -10.36,5.45 -6.64,4.79 -10.98,12.59 -10.98,21.42l0 1.65 0 44.57 0 59.43c0,14.57 11.84,26.41 26.41,26.41l158.48 0c14.57,0 26.41,-11.84 26.41,-26.41l0 -105.65c0,-14.57 -11.84,-26.41 -26.41,-26.41l-94.72 0 114.03 -33.43zm-52.33 79.65c18.23,0 33.02,14.78 33.02,33.02 0,18.23 -14.78,33.02 -33.02,33.02 -18.23,0 -33.02,-14.78 -33.02,-33.02 0,-18.23 14.78,-33.02 33.02,-33.02zm-118.86 6.6c0,-3.63 2.97,-6.6 6.6,-6.6l39.62 0c3.63,0 6.6,2.97 6.6,6.6 0,3.63 -2.97,6.6 -6.6,6.6l-39.62 0c-3.63,0 -6.6,-2.97 -6.6,-6.6zm-6.6 26.41c0,-3.63 2.97,-6.6 6.6,-6.6l52.83 0c3.63,0 6.6,2.97 6.6,6.6 0,3.63 -2.97,6.6 -6.6,6.6l-52.83 0c-3.63,0 -6.6,-2.97 -6.6,-6.6zm6.6 26.41c0,-3.63 2.97,-6.6 6.6,-6.6l39.62 0c3.63,0 6.6,2.97 6.6,6.6 0,3.63 -2.97,6.6 -6.6,6.6l-39.62 0c-3.63,0 -6.6,-2.97 -6.6,-6.6z"/>
 </g>
</svg>
