<?xml version="1.0" encoding="UTF-8"?>
<!DOCTYPE svg PUBLIC "-//W3C//DTD SVG 1.1//EN" "http://www.w3.org/Graphics/SVG/1.1/DTD/svg11.dtd">
<!-- Creator: CorelDRAW 2021 (64-Bit) -->
<svg xmlns="http://www.w3.org/2000/svg" xml:space="preserve" width="70mm" height="70mm" version="1.1" shape-rendering="geometricPrecision" text-rendering="geometricPrecision" image-rendering="optimizeQuality" fill-rule="evenodd" clip-rule="evenodd"
viewBox="0 0 296.41 296.41"
 xmlns:xlink="http://www.w3.org/1999/xlink"
 xmlns:xodm="http://www.corel.com/coreldraw/odm/2003">
 <g id="Слой_x0020_1">
  <metadata id="CorelCorpID_0Corel-Layer"/>
  <circle fill="none" cx="148.21" cy="148.21" r="148.21"/>
  <path id="list-check-solid.svg" fill="white" fill-rule="nonzero" d="M107.06 65.12c3.92,3.53 4.24,9.51 0.71,13.43l-28.52 31.69c-1.74,1.94 -4.2,3.09 -6.81,3.13 -2.61,0.04 -5.11,-0.95 -6.97,-2.77l-15.88 -15.84c-3.68,-3.72 -3.68,-9.74 0,-13.47 3.68,-3.72 9.74,-3.72 13.43,0l8.75 8.75 21.82 -24.24c3.53,-3.92 9.51,-4.24 13.43,-0.71l0.04 0.04zm0 63.38c3.92,3.53 4.24,9.51 0.71,13.43l-28.52 31.69c-1.74,1.94 -4.2,3.09 -6.81,3.13 -2.61,0.04 -5.11,-0.95 -6.97,-2.77l-15.88 -15.84c-3.72,-3.72 -3.72,-9.74 0,-13.43 3.72,-3.68 9.74,-3.72 13.43,0l8.75 8.75 21.82 -24.24c3.53,-3.92 9.51,-4.24 13.43,-0.71l0.04 0zm28.48 -40.48c0,-7.01 5.66,-12.67 12.67,-12.67l88.73 0c7.01,0 12.67,5.66 12.67,12.67 0,7.01 -5.66,12.68 -12.67,12.68l-88.73 0c-7.01,0 -12.67,-5.66 -12.67,-12.68zm0 63.38c0,-7.01 5.66,-12.68 12.67,-12.68l88.73 0c7.01,0 12.67,5.66 12.67,12.68 0,7.01 -5.66,12.67 -12.67,12.67l-88.73 0c-7.01,0 -12.67,-5.66 -12.67,-12.67zm-25.35 63.38c0,-7.01 5.66,-12.67 12.67,-12.67l114.08 0c7.01,0 12.67,5.66 12.67,12.67 0,7.01 -5.66,12.67 -12.67,12.67l-114.08 0c-7.01,0 -12.67,-5.66 -12.67,-12.67zm-44.36 -19.01c10.5,0 19.01,8.51 19.01,19.01 0,10.5 -8.51,19.01 -19.01,19.01 -10.5,0 -19.01,-8.51 -19.01,-19.01 0,-10.5 8.51,-19.01 19.01,-19.01l0 0z"/>
 </g>
</svg>
