<?xml version="1.0" encoding="UTF-8"?>
<!DOCTYPE svg PUBLIC "-//W3C//DTD SVG 1.1//EN" "http://www.w3.org/Graphics/SVG/1.1/DTD/svg11.dtd">
<!-- Creator: CorelDRAW 2021 (64-Bit) -->
<svg xmlns="http://www.w3.org/2000/svg" xml:space="preserve" width="70mm" height="70mm" version="1.1" shape-rendering="geometricPrecision" text-rendering="geometricPrecision" image-rendering="optimizeQuality" fill-rule="evenodd" clip-rule="evenodd"
viewBox="0 0 326.91 326.91"
 xmlns:xlink="http://www.w3.org/1999/xlink"
 xmlns:xodm="http://www.corel.com/coreldraw/odm/2003">
 <g id="Слой_x0020_1">
  <metadata id="CorelCorpID_0Corel-Layer"/>
  <circle fill="none" cx="163.46" cy="163.46" r="163.46"/>
  <path id="user-group-solid.svg" fill="white" fill-rule="nonzero" d="M81.73 105.55c0,-25.79 20.91,-46.7 46.7,-46.7 25.79,0 46.7,20.91 46.7,46.7 0,25.79 -20.91,46.7 -46.7,46.7 -25.79,0 -46.7,-20.91 -46.7,-46.7l0 0zm-35.03 129.27c0,-35.94 29.12,-65.05 65.05,-65.05l33.35 0c35.94,0 65.05,29.12 65.05,65.05 0,5.98 -4.85,10.84 -10.84,10.84l-141.78 0c-5.98,0 -10.84,-4.85 -10.84,-10.84zm222.31 10.84l-50.31 0c1.97,-3.43 3.14,-7.41 3.14,-11.68l0 -2.92c0,-22.15 -9.89,-42.03 -25.47,-55.39 0.88,-0.04 1.71,-0.07 2.59,-0.07l22.4 0c32.51,0 58.85,26.34 58.85,58.85 0,6.2 -5.03,11.2 -11.2,11.2zm-64.69 -93.4c-11.31,0 -21.53,-4.6 -28.93,-12 7.19,-9.71 11.42,-21.71 11.42,-34.7 0,-9.78 -2.41,-19.01 -6.68,-27.11 6.79,-4.96 15.14,-7.92 24.19,-7.92 22.58,0 40.86,18.28 40.86,40.86 0,22.58 -18.28,40.86 -40.86,40.86z"/>
 </g>
</svg>
