<?xml version="1.0" encoding="UTF-8"?>
<!DOCTYPE svg PUBLIC "-//W3C//DTD SVG 1.1//EN" "http://www.w3.org/Graphics/SVG/1.1/DTD/svg11.dtd">
<!-- Creator: CorelDRAW 2021 (64-Bit) -->
<svg xmlns="http://www.w3.org/2000/svg" xml:space="preserve" width="70mm" height="70mm" version="1.1" shape-rendering="geometricPrecision" text-rendering="geometricPrecision" image-rendering="optimizeQuality" fill-rule="evenodd" clip-rule="evenodd"
viewBox="0 0 326.91 326.91"
 xmlns:xlink="http://www.w3.org/1999/xlink"
 xmlns:xodm="http://www.corel.com/coreldraw/odm/2003">
 <g id="Слой_x0020_1">
  <metadata id="CorelCorpID_0Corel-Layer"/>
  <circle fill="none" cx="163.46" cy="163.46" r="163.46"/>
  <g id="_2210042095472">
   <g>
    <path fill="white" d="M236.09 226.35c1.07,-1.96 10.72,-45.54 12.25,-48.61 1.99,-3.99 6.24,-2.86 10.43,-1.29 7.57,2.83 13.39,6.29 18.88,11.76 1.3,1.3 2.42,2.46 3.67,3.85 5.69,6.33 10.57,16.63 11.9,26.23 1.27,9.17 1.53,18.11 -11.47,18.1l-122.22 -0c-12.92,0.02 -13.48,-7.49 -12.14,-17.54 2.07,-15.5 11.26,-29.23 23.8,-37.18 3.21,-2.04 6.52,-3.54 10.28,-5.04 11.88,-4.73 11.14,1.35 13.98,13 1.01,4.11 2.05,8.26 3.02,12.3 0.99,4.11 2.02,8.16 3.03,12.31 0.55,2.26 2.3,10.69 3.08,12.12 0.68,-1.13 8.86,-33.08 10.4,-38.48 0.62,-2.17 0.22,-2.19 -0.79,-3.77 -3,-4.71 -8.12,-11.08 -4.04,-14.55 2.3,-1.96 6.31,-1.52 9.74,-1.52 3.22,0 7.44,-0.59 9.96,1.01 4.92,3.13 -0,9.35 -3.17,14.63 -1.92,3.2 -1.37,2.6 0.12,8.23 1.53,5.77 3.13,11.47 4.64,17.31 0.68,2.64 3.84,15.72 4.67,17.13z"/>
    <path fill="white" d="M224.01 68.37c23.65,2.64 40.21,21.87 38.17,45.76 -1.87,21.87 -21.39,40.07 -45.68,37.92 -21.94,-1.94 -40.17,-21.17 -38.04,-45.72 1.98,-22.76 22.91,-40.5 45.55,-37.97z"/>
   </g>
   <path id="user-group-solid.svg" fill="white" fill-rule="nonzero" d="M98.72 236.37l45.21 0c-1.77,-3.08 -2.82,-6.66 -2.82,-10.49l0 -2.62c0,-19.9 8.88,-37.77 22.88,-49.77 -0.79,-0.03 -1.54,-0.07 -2.33,-0.07l-20.13 0c-29.21,0 -52.88,23.67 -52.88,52.88 0,5.57 4.52,10.06 10.06,10.06zm58.13 -83.93c10.16,0 19.34,-4.13 26,-10.79 -6.46,-8.72 -10.26,-19.51 -10.26,-31.18 0,-8.79 2.16,-17.08 6,-24.36 -6.1,-4.46 -13.61,-7.11 -21.74,-7.11 -20.29,0 -36.72,16.42 -36.72,36.72 0,20.29 16.42,36.72 36.72,36.72z"/>
   <path id="user-group-solid.svg_0" fill="white" fill-rule="nonzero" d="M42.75 236.37l43.16 0c-1.69,-2.94 -2.69,-6.35 -2.69,-10.02l0 -2.5c0,-19 8.48,-36.06 21.85,-47.51 -0.75,-0.03 -1.47,-0.06 -2.22,-0.06l-19.22 0c-27.89,0 -50.49,22.6 -50.49,50.49 0,5.32 4.32,9.61 9.61,9.61zm55.5 -80.13c9.7,0 18.47,-3.94 24.82,-10.3 -6.17,-8.33 -9.8,-18.62 -9.8,-29.77 0,-8.39 2.07,-16.31 5.73,-23.26 -5.82,-4.26 -12.99,-6.79 -20.75,-6.79 -19.38,0 -35.06,15.68 -35.06,35.06 0,19.38 15.68,35.06 35.06,35.06z"/>
  </g>
 </g>
</svg>
