<?xml version="1.0" encoding="UTF-8"?>
<!DOCTYPE svg PUBLIC "-//W3C//DTD SVG 1.1//EN" "http://www.w3.org/Graphics/SVG/1.1/DTD/svg11.dtd">
<!-- Creator: CorelDRAW 2021 (64-Bit) -->
<svg xmlns="http://www.w3.org/2000/svg" xml:space="preserve" width="40mm" height="40mm" version="1.1" shape-rendering="geometricPrecision" text-rendering="geometricPrecision" image-rendering="optimizeQuality" fill-rule="evenodd" clip-rule="evenodd"
viewBox="0 0 1257.36 1257.36"
 xmlns:xlink="http://www.w3.org/1999/xlink"
 xmlns:xodm="http://www.corel.com/coreldraw/odm/2003">
 <g id="Слой_x0020_1">
  <metadata id="CorelCorpID_0Corel-Layer"/>
  <g id="_2991656697840">
   <path fill="#999999" fill-rule="nonzero" d="M924.17 1175.5l-326.88 -474.93 -46.55 -67.61 -379.31 -551.11 163.16 0 306.75 445.69 46.55 67.61 399.44 580.34 -163.16 0zm230.62 -46.39l-411.72 -598.14 -46.54 -67.65 -294.51 -427.86 -24.41 -35.46 -361.89 0 88.26 128.25 391.59 568.97 46.55 67.57 314.64 457.15 24.41 35.42 361.9 0 -88.26 -128.25z"/>
   <polygon fill="#999999" fill-rule="nonzero" points="550.74,632.97 597.29,700.57 542.11,764.79 118.71,1257.36 14.3,1257.36 495.56,697.22 "/>
   <polygon fill="#999999" fill-rule="nonzero" points="1199.49,0 743.08,530.97 687.89,595.16 641.35,527.55 696.53,463.33 1005.69,103.48 1095.08,0 "/>
  </g>
  <rect fill="none" width="1257.36" height="1257.36"/>
 </g>
</svg>
