<?xml version="1.0" encoding="UTF-8"?>
<!DOCTYPE svg PUBLIC "-//W3C//DTD SVG 1.1//EN" "http://www.w3.org/Graphics/SVG/1.1/DTD/svg11.dtd">
<!-- Creator: CorelDRAW 2021 (64-Bit) -->
<svg xmlns="http://www.w3.org/2000/svg" xml:space="preserve" width="12mm" height="12mm" version="1.1" shape-rendering="geometricPrecision" text-rendering="geometricPrecision" image-rendering="optimizeQuality" fill-rule="evenodd" clip-rule="evenodd"
viewBox="0 0 54.59 54.59"
 xmlns:xlink="http://www.w3.org/1999/xlink"
 xmlns:xodm="http://www.corel.com/coreldraw/odm/2003">
 <g id="Слой_x0020_1">
  <metadata id="CorelCorpID_0Corel-Layer"/>
  <path id="facebook-svgrepo-com.svg" fill="none" fill-rule="nonzero" d="M47.23 0l-39.88 0c-4.06,0 -7.36,3.29 -7.36,7.36l0 39.88c0,4.06 3.29,7.36 7.36,7.36 48.54,0 2.5,0 39.88,0 4.06,0 7.36,-3.29 7.36,-7.36l0 -39.88c0,-4.06 -3.29,-7.36 -7.36,-7.36z"/>
  <path fill="white" d="M19.55 12.21l21.52 10.89c1.25,0.63 2,1.81 2.04,3.2 0.04,1.4 -0.63,2.62 -1.84,3.32l-21.65 12.64c-1.18,0.69 -2.55,0.7 -3.73,0.01 -1.19,-0.69 -1.87,-1.87 -1.86,-3.24l0.13 -23.53c0.01,-1.33 0.65,-2.46 1.78,-3.15 1.13,-0.69 2.43,-0.74 3.62,-0.15z"/>
 </g>
</svg>
